<?xml version="1.0" encoding="UTF-8"?>
<svg xmlns="http://www.w3.org/2000/svg" xmlns:xlink="http://www.w3.org/1999/xlink" width="562.921" height="105.290" viewBox="0 0 255.873 47.859">
<defs>
<g>
<g id="glyph-0-0">
<path d="M 1.90625 0 L 1.90625 -0.25 C 1.5 -0.25 1.4375 -0.25 1.4375 -0.546875 L 1.4375 -3.0625 L 0.40625 -2.984375 L 0.40625 -2.734375 C 0.84375 -2.734375 0.90625 -2.703125 0.90625 -2.359375 L 0.90625 -0.546875 C 0.90625 -0.25 0.84375 -0.25 0.390625 -0.25 L 0.390625 0 C 0.390625 0 0.890625 -0.03125 1.171875 -0.03125 C 1.40625 -0.03125 1.65625 -0.015625 1.90625 0 Z M 1.515625 -4.1875 C 1.515625 -4.40625 1.34375 -4.59375 1.125 -4.59375 C 0.890625 -4.59375 0.734375 -4.390625 0.734375 -4.1875 C 0.734375 -3.96875 0.90625 -3.796875 1.125 -3.796875 C 1.359375 -3.796875 1.515625 -3.984375 1.515625 -4.1875 Z M 1.515625 -4.1875 "/>
</g>
<g id="glyph-0-1">
<path d="M 6.234375 0 L 6.234375 -0.25 C 5.78125 -0.25 5.71875 -0.25 5.71875 -0.546875 L 5.71875 -2.109375 C 5.71875 -2.71875 5.421875 -3.0625 4.671875 -3.0625 C 4.125 -3.0625 3.75 -2.765625 3.5625 -2.421875 C 3.421875 -2.90625 3.046875 -3.0625 2.53125 -3.0625 C 1.96875 -3.0625 1.59375 -2.75 1.40625 -2.390625 L 1.390625 -2.390625 L 1.390625 -3.0625 L 0.375 -2.984375 L 0.375 -2.734375 C 0.84375 -2.734375 0.890625 -2.6875 0.890625 -2.34375 L 0.890625 -0.546875 C 0.890625 -0.25 0.828125 -0.25 0.375 -0.25 L 0.375 0 C 0.375 0 0.875 -0.03125 1.171875 -0.03125 C 1.421875 -0.03125 1.90625 0 1.96875 0 L 1.96875 -0.25 C 1.515625 -0.25 1.453125 -0.25 1.453125 -0.546875 L 1.453125 -1.796875 C 1.453125 -2.53125 2.015625 -2.875 2.484375 -2.875 C 2.96875 -2.875 3.03125 -2.484375 3.03125 -2.140625 L 3.03125 -0.546875 C 3.03125 -0.25 2.96875 -0.25 2.515625 -0.25 L 2.515625 0 C 2.515625 0 3.015625 -0.03125 3.296875 -0.03125 C 3.5625 -0.03125 4.046875 0 4.109375 0 L 4.109375 -0.25 C 3.65625 -0.25 3.578125 -0.25 3.578125 -0.546875 L 3.578125 -1.796875 C 3.578125 -2.53125 4.15625 -2.875 4.609375 -2.875 C 5.109375 -2.875 5.171875 -2.484375 5.171875 -2.140625 L 5.171875 -0.546875 C 5.171875 -0.25 5.09375 -0.25 4.640625 -0.25 L 4.640625 0 C 4.640625 0 5.140625 -0.03125 5.4375 -0.03125 C 5.6875 -0.03125 6.171875 0 6.234375 0 Z M 6.234375 0 "/>
</g>
<g id="glyph-0-2">
<path d="M 3.78125 -0.625 L 3.78125 -1.015625 L 3.546875 -1.015625 L 3.546875 -0.625 C 3.546875 -0.5625 3.546875 -0.234375 3.28125 -0.234375 C 3.03125 -0.234375 3.03125 -0.5625 3.03125 -0.640625 L 3.03125 -1.859375 C 3.03125 -2.234375 3.03125 -2.5 2.71875 -2.75 C 2.421875 -2.984375 2.09375 -3.09375 1.6875 -3.09375 C 1.015625 -3.09375 0.5625 -2.84375 0.5625 -2.421875 C 0.5625 -2.203125 0.703125 -2.09375 0.890625 -2.09375 C 1.078125 -2.09375 1.21875 -2.21875 1.21875 -2.40625 C 1.21875 -2.53125 1.15625 -2.671875 0.96875 -2.734375 C 1.21875 -2.90625 1.625 -2.90625 1.671875 -2.90625 C 2.0625 -2.90625 2.484375 -2.65625 2.484375 -2.0625 L 2.484375 -1.84375 C 2.09375 -1.828125 1.640625 -1.8125 1.140625 -1.625 C 0.5 -1.390625 0.3125 -1.015625 0.3125 -0.703125 C 0.3125 -0.109375 1.03125 0.0625 1.53125 0.0625 C 2.09375 0.0625 2.40625 -0.25 2.5625 -0.515625 C 2.59375 -0.234375 2.78125 0.03125 3.09375 0.03125 C 3.09375 0.03125 3.78125 0.03125 3.78125 -0.625 Z M 2.484375 -0.984375 C 2.484375 -0.3125 1.890625 -0.125 1.578125 -0.125 C 1.234375 -0.125 0.890625 -0.359375 0.890625 -0.703125 C 0.890625 -1.078125 1.234375 -1.625 2.484375 -1.671875 Z M 2.484375 -0.984375 "/>
</g>
<g id="glyph-0-3">
<path d="M 3.796875 -2.78125 C 3.796875 -2.9375 3.65625 -3.140625 3.375 -3.140625 C 3.28125 -3.140625 2.90625 -3.109375 2.578125 -2.8125 C 2.359375 -2.96875 2.078125 -3.0625 1.765625 -3.0625 C 1.046875 -3.0625 0.53125 -2.59375 0.53125 -2.046875 C 0.53125 -1.765625 0.671875 -1.515625 0.859375 -1.34375 C 0.8125 -1.28125 0.65625 -1.046875 0.65625 -0.78125 C 0.65625 -0.6875 0.671875 -0.359375 0.953125 -0.15625 C 0.625 -0.0625 0.265625 0.171875 0.265625 0.53125 C 0.265625 1.046875 1.03125 1.421875 1.96875 1.421875 C 2.859375 1.421875 3.671875 1.078125 3.671875 0.515625 C 3.671875 0.3125 3.59375 -0.0625 3.21875 -0.265625 C 2.796875 -0.484375 2.390625 -0.484375 1.71875 -0.484375 C 1.5625 -0.484375 1.3125 -0.484375 1.265625 -0.5 C 1.03125 -0.546875 0.90625 -0.75 0.90625 -0.953125 C 0.90625 -1.125 0.953125 -1.1875 1 -1.234375 C 1.109375 -1.171875 1.359375 -1.015625 1.765625 -1.015625 C 2.46875 -1.015625 3 -1.5 3 -2.046875 C 3 -2.3125 2.875 -2.53125 2.703125 -2.71875 C 3.015625 -2.9375 3.28125 -2.9375 3.40625 -2.9375 C 3.375 -2.90625 3.34375 -2.890625 3.34375 -2.78125 C 3.34375 -2.640625 3.453125 -2.546875 3.5625 -2.546875 C 3.671875 -2.546875 3.796875 -2.625 3.796875 -2.78125 Z M 2.4375 -2.046875 C 2.4375 -1.9375 2.4375 -1.65625 2.296875 -1.46875 C 2.203125 -1.359375 2.015625 -1.234375 1.765625 -1.234375 C 1.078125 -1.234375 1.078125 -1.890625 1.078125 -2.046875 C 1.078125 -2.15625 1.078125 -2.4375 1.21875 -2.609375 C 1.328125 -2.734375 1.515625 -2.859375 1.765625 -2.859375 C 2.4375 -2.859375 2.4375 -2.1875 2.4375 -2.046875 Z M 3.25 0.53125 C 3.25 0.890625 2.703125 1.21875 1.96875 1.21875 C 1.25 1.21875 0.703125 0.890625 0.703125 0.53125 C 0.703125 0.28125 0.921875 -0.015625 1.359375 -0.015625 L 1.765625 -0.015625 C 2.390625 -0.015625 3.25 -0.015625 3.25 0.53125 Z M 3.25 0.53125 "/>
</g>
<g id="glyph-0-4">
<path d="M 3.25 -0.828125 C 3.25 -0.859375 3.234375 -0.9375 3.140625 -0.9375 C 3.046875 -0.9375 3.03125 -0.890625 3.015625 -0.828125 C 2.796875 -0.25 2.265625 -0.15625 2.015625 -0.15625 C 1.6875 -0.15625 1.375 -0.296875 1.171875 -0.5625 C 0.90625 -0.890625 0.90625 -1.3125 0.90625 -1.578125 L 3.0625 -1.578125 C 3.203125 -1.578125 3.25 -1.578125 3.25 -1.734375 C 3.25 -2.34375 2.90625 -3.09375 1.875 -3.09375 C 0.96875 -3.09375 0.265625 -2.375 0.265625 -1.515625 C 0.265625 -0.640625 1.046875 0.0625 1.96875 0.0625 C 2.90625 0.0625 3.25 -0.6875 3.25 -0.828125 Z M 2.765625 -1.765625 L 0.90625 -1.765625 C 0.984375 -2.75 1.609375 -2.90625 1.875 -2.90625 C 2.734375 -2.90625 2.765625 -1.9375 2.765625 -1.765625 Z M 2.765625 -1.765625 "/>
</g>
<g id="glyph-0-5">
<path d="M 4.109375 0 L 4.109375 -0.25 C 3.65625 -0.25 3.578125 -0.25 3.578125 -0.546875 L 3.578125 -2.109375 C 3.578125 -2.71875 3.28125 -3.0625 2.53125 -3.0625 C 1.96875 -3.0625 1.59375 -2.75 1.40625 -2.390625 L 1.390625 -2.390625 L 1.390625 -3.0625 L 0.375 -2.984375 L 0.375 -2.734375 C 0.84375 -2.734375 0.890625 -2.6875 0.890625 -2.34375 L 0.890625 -0.546875 C 0.890625 -0.25 0.828125 -0.25 0.375 -0.25 L 0.375 0 C 0.375 0 0.875 -0.03125 1.171875 -0.03125 C 1.421875 -0.03125 1.90625 0 1.96875 0 L 1.96875 -0.25 C 1.515625 -0.25 1.453125 -0.25 1.453125 -0.546875 L 1.453125 -1.796875 C 1.453125 -2.53125 2.015625 -2.875 2.484375 -2.875 C 2.96875 -2.875 3.03125 -2.484375 3.03125 -2.140625 L 3.03125 -0.546875 C 3.03125 -0.25 2.96875 -0.25 2.515625 -0.25 L 2.515625 0 C 2.515625 0 3.015625 -0.03125 3.296875 -0.03125 C 3.5625 -0.03125 4.046875 0 4.109375 0 Z M 4.109375 0 "/>
</g>
<g id="glyph-0-6">
<path d="M 2.609375 -0.875 L 2.609375 -1.265625 L 2.375 -1.265625 L 2.375 -0.890625 C 2.375 -0.40625 2.15625 -0.15625 1.875 -0.15625 C 1.390625 -0.15625 1.390625 -0.734375 1.390625 -0.859375 L 1.390625 -2.75 L 2.484375 -2.75 L 2.484375 -3 L 1.390625 -3 L 1.390625 -4.28125 L 1.15625 -4.28125 C 1.15625 -3.65625 0.875 -2.96875 0.203125 -2.9375 L 0.203125 -2.75 L 0.84375 -2.75 L 0.84375 -0.875 C 0.84375 -0.09375 1.4375 0.0625 1.828125 0.0625 C 2.28125 0.0625 2.609375 -0.328125 2.609375 -0.875 Z M 2.609375 -0.875 "/>
</g>
<g id="glyph-0-7">
<path d="M 3.984375 0 L 3.984375 -0.25 C 3.53125 -0.25 3.46875 -0.296875 3.3125 -0.46875 L 2.359375 -1.5625 L 2.296875 -1.625 C 2.296875 -1.640625 2.765625 -2.140625 2.828125 -2.203125 C 3.0625 -2.46875 3.3125 -2.734375 3.859375 -2.75 L 3.859375 -3 C 3.671875 -2.984375 3.46875 -2.96875 3.28125 -2.96875 C 3.0625 -2.96875 2.796875 -2.96875 2.59375 -3 L 2.59375 -2.75 C 2.703125 -2.71875 2.71875 -2.65625 2.71875 -2.59375 C 2.71875 -2.59375 2.71875 -2.46875 2.625 -2.34375 L 2.140625 -1.796875 L 1.5625 -2.46875 C 1.484375 -2.53125 1.484375 -2.578125 1.484375 -2.59375 C 1.484375 -2.703125 1.578125 -2.75 1.671875 -2.75 L 1.671875 -3 C 1.40625 -2.96875 1.140625 -2.96875 0.890625 -2.96875 C 0.6875 -2.96875 0.421875 -2.96875 0.21875 -3 L 0.21875 -2.75 C 0.53125 -2.75 0.71875 -2.75 0.890625 -2.53125 L 1.765625 -1.53125 L 1.828125 -1.46875 C 1.828125 -1.453125 1.296875 -0.875 1.234375 -0.796875 C 0.96875 -0.515625 0.734375 -0.265625 0.1875 -0.25 L 0.1875 0 C 0.390625 -0.015625 0.546875 -0.03125 0.765625 -0.03125 C 0.96875 -0.03125 1.25 -0.015625 1.453125 0 L 1.453125 -0.25 C 1.375 -0.265625 1.3125 -0.3125 1.3125 -0.40625 C 1.3125 -0.546875 1.390625 -0.625 1.5 -0.75 L 1.984375 -1.28125 L 2.59375 -0.59375 C 2.71875 -0.453125 2.71875 -0.4375 2.71875 -0.390625 C 2.71875 -0.25 2.5625 -0.25 2.53125 -0.25 L 2.53125 0 C 2.59375 0 3.09375 -0.03125 3.328125 -0.03125 C 3.546875 -0.03125 3.765625 -0.015625 3.984375 0 Z M 3.984375 0 "/>
</g>
<g id="glyph-0-8">
<path d="M 3.671875 -1.484375 C 3.671875 -2.34375 2.9375 -3.09375 1.96875 -3.09375 C 1.015625 -3.09375 0.265625 -2.34375 0.265625 -1.484375 C 0.265625 -0.625 1.03125 0.0625 1.96875 0.0625 C 2.90625 0.0625 3.671875 -0.625 3.671875 -1.484375 Z M 3.046875 -1.546875 C 3.046875 -1.203125 3.03125 -0.84375 2.828125 -0.5625 C 2.640625 -0.296875 2.3125 -0.15625 1.96875 -0.15625 C 1.71875 -0.15625 1.34375 -0.234375 1.109375 -0.578125 C 0.921875 -0.859375 0.90625 -1.21875 0.90625 -1.546875 C 0.90625 -1.84375 0.90625 -2.25 1.15625 -2.546875 C 1.328125 -2.75 1.625 -2.90625 1.96875 -2.90625 C 2.390625 -2.90625 2.671875 -2.71875 2.828125 -2.5 C 3.03125 -2.21875 3.046875 -1.875 3.046875 -1.546875 Z M 3.046875 -1.546875 "/>
</g>
<g id="glyph-0-9">
<path d="M 4.109375 0 L 4.109375 -0.25 C 3.640625 -0.25 3.578125 -0.296875 3.578125 -0.640625 L 3.578125 -3.0625 L 2.515625 -2.984375 L 2.515625 -2.734375 C 2.96875 -2.734375 3.03125 -2.6875 3.03125 -2.34375 L 3.03125 -1.15625 C 3.03125 -0.546875 2.640625 -0.125 2.109375 -0.125 C 1.46875 -0.125 1.453125 -0.421875 1.453125 -0.78125 L 1.453125 -3.0625 L 0.375 -2.984375 L 0.375 -2.734375 C 0.890625 -2.734375 0.890625 -2.71875 0.890625 -2.09375 L 0.890625 -1.0625 C 0.890625 -0.578125 0.890625 0.0625 2.0625 0.0625 C 2.21875 0.0625 2.71875 0.0625 3.046875 -0.515625 L 3.0625 -0.515625 L 3.0625 0.0625 Z M 4.109375 0 "/>
</g>
<g id="glyph-0-10">
<path d="M 2.828125 -0.90625 C 2.828125 -1.171875 2.71875 -1.390625 2.53125 -1.546875 C 2.265625 -1.796875 1.953125 -1.84375 1.703125 -1.890625 C 1.140625 -1.984375 0.703125 -2.078125 0.703125 -2.4375 C 0.703125 -2.65625 0.890625 -2.9375 1.546875 -2.9375 C 2.34375 -2.9375 2.390625 -2.375 2.40625 -2.171875 C 2.40625 -2.09375 2.484375 -2.09375 2.515625 -2.09375 C 2.640625 -2.09375 2.640625 -2.140625 2.640625 -2.28125 L 2.640625 -2.921875 C 2.640625 -3.03125 2.640625 -3.09375 2.53125 -3.09375 C 2.5 -3.09375 2.484375 -3.09375 2.40625 -3.015625 C 2.390625 -3.015625 2.3125 -2.953125 2.28125 -2.90625 C 2.0625 -3.0625 1.796875 -3.09375 1.546875 -3.09375 C 0.546875 -3.09375 0.3125 -2.578125 0.3125 -2.234375 C 0.3125 -2.015625 0.40625 -1.828125 0.578125 -1.6875 C 0.84375 -1.453125 1.109375 -1.40625 1.53125 -1.34375 C 1.890625 -1.28125 2.453125 -1.1875 2.453125 -0.71875 C 2.453125 -0.4375 2.265625 -0.125 1.59375 -0.125 C 0.921875 -0.125 0.6875 -0.5625 0.5625 -1.03125 C 0.53125 -1.125 0.53125 -1.15625 0.4375 -1.15625 C 0.3125 -1.15625 0.3125 -1.109375 0.3125 -0.96875 L 0.3125 -0.109375 C 0.3125 0 0.3125 0.0625 0.40625 0.0625 C 0.46875 0.0625 0.609375 -0.078125 0.75 -0.234375 C 1.046875 0.0625 1.421875 0.0625 1.59375 0.0625 C 2.5 0.0625 2.828125 -0.421875 2.828125 -0.90625 Z M 2.828125 -0.90625 "/>
</g>
<g id="glyph-0-11">
<path d="M 1.953125 0 L 1.953125 -0.25 C 1.5 -0.25 1.4375 -0.25 1.4375 -0.546875 L 1.4375 -4.828125 L 0.390625 -4.75 L 0.390625 -4.5 C 0.859375 -4.5 0.90625 -4.453125 0.90625 -4.109375 L 0.90625 -0.546875 C 0.90625 -0.25 0.84375 -0.25 0.390625 -0.25 L 0.390625 0 C 0.390625 0 0.890625 -0.03125 1.171875 -0.03125 C 1.4375 -0.03125 1.6875 -0.015625 1.953125 0 Z M 1.953125 0 "/>
</g>
<g id="glyph-0-12">
<path d="M 4.15625 0 L 4.15625 -0.25 C 3.703125 -0.25 3.625 -0.25 3.625 -0.546875 L 3.625 -3.078125 L 2.71875 -3.015625 C 2.640625 -3.015625 2.59375 -3.015625 2.59375 -3 C 2.578125 -3 2.5625 -3 2.46875 -3 L 1.359375 -3 L 1.359375 -3.75 C 1.359375 -4.4375 2.078125 -4.703125 2.546875 -4.703125 C 2.78125 -4.703125 3.03125 -4.65625 3.203125 -4.5 C 2.953125 -4.453125 2.9375 -4.25 2.9375 -4.171875 C 2.9375 -3.953125 3.109375 -3.828125 3.28125 -3.828125 C 3.40625 -3.828125 3.609375 -3.921875 3.609375 -4.1875 C 3.609375 -4.5625 3.21875 -4.890625 2.578125 -4.890625 C 1.859375 -4.890625 0.859375 -4.5625 0.859375 -3.765625 L 0.859375 -3 L 0.265625 -3 L 0.265625 -2.75 L 0.859375 -2.75 L 0.859375 -0.546875 C 0.859375 -0.25 0.796875 -0.25 0.34375 -0.25 L 0.34375 0 C 0.34375 0 0.84375 -0.03125 1.125 -0.03125 C 1.390625 -0.03125 1.640625 -0.015625 1.90625 0 L 1.90625 -0.25 C 1.453125 -0.25 1.390625 -0.25 1.390625 -0.546875 L 1.390625 -2.75 L 2.765625 -2.75 C 3.046875 -2.75 3.109375 -2.671875 3.109375 -2.375 L 3.109375 -0.546875 C 3.109375 -0.25 3.03125 -0.25 2.59375 -0.25 L 2.59375 0 C 2.59375 0 3.09375 -0.03125 3.359375 -0.03125 C 3.625 -0.03125 3.890625 -0.015625 4.15625 0 Z M 4.15625 0 "/>
</g>
<g id="glyph-0-13">
<path d="M 2.828125 -2.625 C 2.828125 -2.859375 2.609375 -3.0625 2.28125 -3.0625 C 1.9375 -3.0625 1.546875 -2.84375 1.34375 -2.328125 L 1.328125 -2.328125 L 1.328125 -3.0625 L 0.34375 -2.984375 L 0.34375 -2.734375 C 0.8125 -2.734375 0.859375 -2.6875 0.859375 -2.34375 L 0.859375 -0.546875 C 0.859375 -0.25 0.796875 -0.25 0.34375 -0.25 L 0.34375 0 C 0.375 0 0.84375 -0.03125 1.140625 -0.03125 L 2.03125 0 L 2.03125 -0.25 L 1.890625 -0.25 C 1.390625 -0.25 1.390625 -0.328125 1.390625 -0.5625 L 1.390625 -1.578125 C 1.390625 -2.171875 1.65625 -2.875 2.3125 -2.875 C 2.25 -2.828125 2.203125 -2.734375 2.203125 -2.625 C 2.203125 -2.390625 2.375 -2.296875 2.515625 -2.296875 C 2.671875 -2.296875 2.828125 -2.40625 2.828125 -2.625 Z M 2.828125 -2.625 "/>
</g>
<g id="glyph-0-14">
<path d="M 4.046875 0 L 4.046875 -0.25 C 3.578125 -0.25 3.515625 -0.296875 3.515625 -0.640625 L 3.515625 -4.828125 L 2.46875 -4.75 L 2.46875 -4.5 C 2.9375 -4.5 3 -4.453125 3 -4.109375 L 3 -2.671875 C 2.734375 -2.921875 2.40625 -3.0625 2.015625 -3.0625 C 1.09375 -3.0625 0.3125 -2.375 0.3125 -1.5 C 0.3125 -0.625 1.0625 0.0625 1.9375 0.0625 C 2.515625 0.0625 2.84375 -0.234375 2.96875 -0.359375 L 2.96875 0.0625 Z M 2.96875 -0.734375 C 2.78125 -0.40625 2.4375 -0.125 1.984375 -0.125 C 1.59375 -0.125 1.3125 -0.359375 1.171875 -0.5625 C 1.03125 -0.765625 0.953125 -1.046875 0.953125 -1.484375 C 0.953125 -1.640625 0.953125 -2.171875 1.234375 -2.5 C 1.515625 -2.8125 1.859375 -2.875 2.0625 -2.875 C 2.390625 -2.875 2.6875 -2.71875 2.890625 -2.46875 C 2.96875 -2.359375 2.96875 -2.34375 2.96875 -2.21875 Z M 2.96875 -0.734375 "/>
</g>
<g id="glyph-0-15">
<path d="M 3.25 -0.828125 C 3.25 -0.921875 3.15625 -0.921875 3.140625 -0.921875 C 3.046875 -0.921875 3.03125 -0.890625 3 -0.796875 C 2.84375 -0.375 2.484375 -0.15625 2.0625 -0.15625 C 1.578125 -0.15625 0.953125 -0.5 0.953125 -1.515625 C 0.953125 -2.390625 1.390625 -2.875 2.03125 -2.875 C 2.125 -2.875 2.453125 -2.875 2.703125 -2.78125 C 2.578125 -2.71875 2.515625 -2.609375 2.515625 -2.46875 C 2.515625 -2.28125 2.640625 -2.140625 2.84375 -2.140625 C 3.03125 -2.140625 3.171875 -2.265625 3.171875 -2.484375 C 3.171875 -3.09375 2.203125 -3.09375 2.015625 -3.09375 C 0.96875 -3.09375 0.3125 -2.296875 0.3125 -1.5 C 0.3125 -0.625 1.0625 0.0625 1.96875 0.0625 C 3.015625 0.0625 3.25 -0.75 3.25 -0.828125 Z M 3.25 -0.828125 "/>
</g>
<g id="glyph-0-16">
<path d="M 4.0625 -1.5 C 4.0625 -2.359375 3.34375 -3.0625 2.46875 -3.0625 C 2.078125 -3.0625 1.671875 -2.921875 1.390625 -2.640625 L 1.390625 -3.0625 L 0.34375 -2.984375 L 0.34375 -2.734375 C 0.828125 -2.734375 0.859375 -2.703125 0.859375 -2.40625 L 0.859375 0.796875 C 0.859375 1.09375 0.796875 1.09375 0.34375 1.09375 L 0.34375 1.34375 C 0.34375 1.34375 0.84375 1.328125 1.140625 1.328125 C 1.390625 1.328125 1.875 1.34375 1.9375 1.34375 L 1.9375 1.09375 C 1.484375 1.09375 1.40625 1.09375 1.40625 0.796875 L 1.40625 -0.328125 C 1.453125 -0.296875 1.765625 0.0625 2.359375 0.0625 C 3.28125 0.0625 4.0625 -0.625 4.0625 -1.5 Z M 3.421875 -1.5 C 3.421875 -0.703125 2.90625 -0.125 2.3125 -0.125 C 1.703125 -0.125 1.4375 -0.65625 1.40625 -0.703125 L 1.40625 -2.3125 C 1.625 -2.65625 2.015625 -2.84375 2.390625 -2.84375 C 2.96875 -2.84375 3.421875 -2.234375 3.421875 -1.5 Z M 3.421875 -1.5 "/>
</g>
<g id="glyph-0-17">
<path d="M 3.671875 -1.484375 C 3.671875 -2.34375 2.9375 -3.09375 1.96875 -3.09375 C 1.015625 -3.09375 0.265625 -2.34375 0.265625 -1.484375 C 0.265625 -0.625 1.03125 0.0625 1.96875 0.0625 C 2.90625 0.0625 3.671875 -0.625 3.671875 -1.484375 Z M 3.046875 -1.546875 C 3.046875 -1.203125 3.03125 -0.84375 2.828125 -0.5625 C 2.640625 -0.296875 2.3125 -0.15625 1.96875 -0.15625 C 1.71875 -0.15625 1.34375 -0.234375 1.109375 -0.578125 C 0.921875 -0.859375 0.90625 -1.21875 0.90625 -1.546875 C 0.90625 -1.84375 0.90625 -2.25 1.15625 -2.546875 C 1.328125 -2.75 1.625 -2.90625 1.96875 -2.90625 C 2.390625 -2.90625 2.671875 -2.71875 2.828125 -2.5 C 3.03125 -2.21875 3.046875 -1.875 3.046875 -1.546875 Z M 2.9375 -4.5625 C 2.9375 -4.703125 2.8125 -4.859375 2.65625 -4.859375 C 2.53125 -4.859375 2.484375 -4.796875 2.40625 -4.71875 L 1.5 -3.703125 L 1.65625 -3.515625 L 2.765625 -4.3125 C 2.875 -4.390625 2.9375 -4.4375 2.9375 -4.5625 Z M 2.9375 -4.5625 "/>
</g>
<g id="glyph-1-0">
<path d="M 3.609375 -0.234375 C 3.609375 -0.453125 3.421875 -0.453125 3.3125 -0.453125 L 3.03125 -0.453125 L 3.03125 -3.953125 C 3.03125 -4.1875 2.953125 -4.25 2.71875 -4.25 L 2.21875 -4.25 C 2.09375 -4.25 1.90625 -4.25 1.90625 -4.015625 C 1.90625 -3.796875 2.09375 -3.796875 2.21875 -3.796875 L 2.5 -3.796875 L 2.5 -2.75 C 2.171875 -3 1.890625 -3.03125 1.703125 -3.03125 C 0.921875 -3.03125 0.234375 -2.375 0.234375 -1.5 C 0.234375 -0.640625 0.875 0.03125 1.640625 0.03125 C 2 0.03125 2.296875 -0.125 2.5 -0.328125 C 2.5 -0.125 2.5 0 2.796875 0 L 3.3125 0 C 3.421875 0 3.609375 0 3.609375 -0.234375 Z M 2.5 -1.375 C 2.5 -0.96875 2.171875 -0.421875 1.65625 -0.421875 C 1.1875 -0.421875 0.765625 -0.890625 0.765625 -1.5 C 0.765625 -2.109375 1.21875 -2.578125 1.734375 -2.578125 C 2.140625 -2.578125 2.5 -2.21875 2.5 -1.828125 Z M 2.5 -1.375 "/>
</g>
<g id="glyph-1-1">
<path d="M 3.21875 -0.875 C 3.21875 -1.046875 3.15625 -1.296875 2.90625 -1.5 C 2.625 -1.703125 2.34375 -1.75 1.859375 -1.828125 C 1.390625 -1.90625 0.96875 -1.96875 0.96875 -2.21875 C 0.96875 -2.359375 1.140625 -2.59375 1.828125 -2.59375 C 2.453125 -2.59375 2.46875 -2.375 2.484375 -2.25 C 2.5 -2.015625 2.671875 -2.015625 2.75 -2.015625 C 3.015625 -2.015625 3.015625 -2.1875 3.015625 -2.328125 L 3.015625 -2.75 C 3.015625 -2.859375 3.015625 -3.046875 2.78125 -3.046875 C 2.625 -3.046875 2.59375 -2.96875 2.5625 -2.921875 C 2.28125 -3.046875 2 -3.046875 1.84375 -3.046875 C 0.65625 -3.046875 0.5 -2.46875 0.5 -2.21875 C 0.5 -1.578125 1.234375 -1.46875 1.84375 -1.375 C 2.21875 -1.3125 2.765625 -1.21875 2.765625 -0.890625 C 2.765625 -0.625 2.5 -0.421875 1.890625 -0.421875 C 1.453125 -0.421875 1.1875 -0.5625 1.03125 -0.984375 C 1 -1.09375 0.96875 -1.1875 0.765625 -1.1875 C 0.5 -1.1875 0.5 -1.015625 0.5 -0.890625 L 0.5 -0.265625 C 0.5 -0.15625 0.5 0.03125 0.734375 0.03125 C 0.8125 0.03125 0.9375 0.015625 1 -0.1875 C 1.359375 0.03125 1.75 0.03125 1.890625 0.03125 C 3.0625 0.03125 3.21875 -0.625 3.21875 -0.875 Z M 3.21875 -0.875 "/>
</g>
<g id="glyph-1-2">
<path d="M 3.453125 -1.5 C 3.453125 -2.34375 2.828125 -3.03125 2.046875 -3.03125 C 1.71875 -3.03125 1.4375 -2.90625 1.1875 -2.71875 C 1.1875 -3 1.03125 -3 0.890625 -3 L 0.375 -3 C 0.265625 -3 0.078125 -3 0.078125 -2.765625 C 0.078125 -2.53125 0.265625 -2.53125 0.375 -2.53125 L 0.65625 -2.53125 L 0.65625 1.078125 L 0.375 1.078125 C 0.265625 1.078125 0.078125 1.078125 0.078125 1.3125 C 0.078125 1.546875 0.265625 1.546875 0.375 1.546875 L 1.46875 1.546875 C 1.578125 1.546875 1.765625 1.546875 1.765625 1.3125 C 1.765625 1.078125 1.578125 1.078125 1.46875 1.078125 L 1.1875 1.078125 L 1.1875 -0.296875 C 1.40625 -0.078125 1.671875 0.03125 1.984375 0.03125 C 2.75 0.03125 3.453125 -0.625 3.453125 -1.5 Z M 2.921875 -1.5 C 2.921875 -0.875 2.453125 -0.421875 1.953125 -0.421875 C 1.453125 -0.421875 1.1875 -1 1.1875 -1.34375 L 1.1875 -1.828125 C 1.1875 -2.234375 1.59375 -2.578125 2.015625 -2.578125 C 2.515625 -2.578125 2.921875 -2.09375 2.921875 -1.5 Z M 2.921875 -1.5 "/>
</g>
<g id="glyph-1-3">
<path d="M 3.515625 -2.765625 C 3.515625 -3 3.3125 -3 3.1875 -3 L 2.421875 -3 C 2.296875 -3 2.09375 -3 2.09375 -2.765625 C 2.09375 -2.75 2.109375 -2.609375 2.21875 -2.5625 C 2.28125 -2.53125 2.453125 -2.53125 2.5625 -2.53125 L 2.21875 -1.5 C 2.109375 -1.171875 1.953125 -0.71875 1.90625 -0.546875 C 1.890625 -0.640625 1.84375 -0.765625 1.5625 -1.515625 L 1.15625 -2.53125 C 1.265625 -2.53125 1.421875 -2.53125 1.46875 -2.5625 C 1.53125 -2.578125 1.59375 -2.65625 1.59375 -2.765625 C 1.59375 -3 1.390625 -3 1.28125 -3 L 0.5 -3 C 0.390625 -3 0.1875 -3 0.1875 -2.765625 C 0.1875 -2.734375 0.203125 -2.59375 0.328125 -2.546875 C 0.375 -2.53125 0.5625 -2.53125 0.6875 -2.53125 L 1.65625 -0.09375 C 1.6875 -0.03125 1.6875 0 1.6875 0 C 1.6875 0.015625 1.515625 0.578125 1.453125 0.703125 C 1.328125 0.9375 1.140625 1.09375 0.890625 1.125 L 0.953125 0.984375 C 0.953125 0.765625 0.796875 0.65625 0.625 0.65625 C 0.4375 0.65625 0.296875 0.78125 0.296875 1 C 0.296875 1.265625 0.515625 1.578125 0.890625 1.578125 C 1.4375 1.578125 1.796875 1.046875 1.953125 0.578125 L 3.015625 -2.53125 C 3.140625 -2.53125 3.328125 -2.53125 3.359375 -2.546875 C 3.4375 -2.578125 3.515625 -2.640625 3.515625 -2.765625 Z M 3.515625 -2.765625 "/>
</g>
<g id="glyph-1-4">
<path d="M 2.3125 -0.46875 C 2.3125 -0.75 2.09375 -0.9375 1.84375 -0.9375 C 1.578125 -0.9375 1.375 -0.71875 1.375 -0.46875 C 1.375 -0.1875 1.59375 0 1.84375 0 C 2.125 0 2.3125 -0.21875 2.3125 -0.46875 Z M 2.3125 -0.46875 "/>
</g>
<g id="glyph-1-5">
<path d="M 3.140625 -0.234375 C 3.140625 -0.453125 2.921875 -0.453125 2.828125 -0.453125 L 2.109375 -0.453125 L 2.109375 -3.796875 L 2.828125 -3.796875 C 2.9375 -3.796875 3.140625 -3.796875 3.140625 -4.015625 C 3.140625 -4.25 2.921875 -4.25 2.828125 -4.25 L 0.859375 -4.25 C 0.75 -4.25 0.546875 -4.25 0.546875 -4.015625 C 0.546875 -3.796875 0.765625 -3.796875 0.859375 -3.796875 L 1.578125 -3.796875 L 1.578125 -0.453125 L 0.859375 -0.453125 C 0.75 -0.453125 0.546875 -0.453125 0.546875 -0.234375 C 0.546875 0 0.765625 0 0.859375 0 L 2.828125 0 C 2.9375 0 3.140625 0 3.140625 -0.234375 Z M 3.140625 -0.234375 "/>
</g>
<g id="glyph-1-6">
<path d="M 3.625 -0.234375 C 3.625 -0.453125 3.453125 -0.453125 3.234375 -0.453125 L 3.234375 -2.09375 C 3.234375 -2.25 3.234375 -3.03125 2.609375 -3.03125 C 2.375 -3.03125 2.09375 -2.921875 1.90625 -2.6875 C 1.78125 -2.9375 1.578125 -3.03125 1.390625 -3.03125 C 1.234375 -3.03125 1.015625 -2.984375 0.796875 -2.796875 C 0.75 -3 0.59375 -3 0.484375 -3 L 0.265625 -3 C 0.15625 -3 -0.03125 -3 -0.03125 -2.765625 C -0.03125 -2.53125 0.125 -2.53125 0.359375 -2.53125 L 0.359375 -0.453125 C 0.125 -0.453125 -0.03125 -0.453125 -0.03125 -0.234375 C -0.03125 0 0.15625 0 0.265625 0 L 0.875 0 C 0.984375 0 1.171875 0 1.171875 -0.234375 C 1.171875 -0.453125 1.015625 -0.453125 0.78125 -0.453125 L 0.78125 -1.671875 C 0.78125 -2.25 1.078125 -2.578125 1.359375 -2.578125 C 1.515625 -2.578125 1.578125 -2.40625 1.578125 -2.0625 L 1.578125 -0.453125 C 1.515625 -0.453125 1.3125 -0.453125 1.3125 -0.234375 C 1.3125 0 1.5 0 1.609375 0 L 2.09375 0 C 2.203125 0 2.40625 0 2.40625 -0.234375 C 2.40625 -0.453125 2.234375 -0.453125 2.015625 -0.453125 L 2.015625 -1.671875 C 2.015625 -2.25 2.3125 -2.578125 2.59375 -2.578125 C 2.734375 -2.578125 2.796875 -2.40625 2.796875 -2.0625 L 2.796875 -0.453125 C 2.734375 -0.453125 2.53125 -0.453125 2.53125 -0.234375 C 2.53125 0 2.71875 0 2.828125 0 L 3.328125 0 C 3.421875 0 3.625 0 3.625 -0.234375 Z M 3.625 -0.234375 "/>
</g>
<g id="glyph-1-7">
<path d="M 3.65625 -0.234375 C 3.65625 -0.453125 3.453125 -0.453125 3.359375 -0.453125 C 3.09375 -0.453125 3.03125 -0.484375 2.96875 -0.5 L 2.96875 -1.953125 C 2.96875 -2.53125 2.515625 -3.046875 1.5625 -3.046875 C 1.234375 -3.046875 0.515625 -3.046875 0.515625 -2.515625 C 0.515625 -2.328125 0.640625 -2.171875 0.859375 -2.171875 C 0.984375 -2.171875 1.171875 -2.265625 1.1875 -2.515625 C 1.1875 -2.5625 1.203125 -2.578125 1.28125 -2.59375 C 1.359375 -2.59375 1.484375 -2.59375 1.5625 -2.59375 C 2.140625 -2.59375 2.4375 -2.34375 2.4375 -1.953125 C 1.6875 -1.953125 0.328125 -1.78125 0.328125 -0.921875 C 0.328125 -0.40625 0.8125 0.03125 1.515625 0.03125 C 2.078125 0.03125 2.421875 -0.171875 2.515625 -0.234375 C 2.65625 -0.015625 2.953125 0 3.28125 0 C 3.46875 0 3.65625 0 3.65625 -0.234375 Z M 2.4375 -1 C 2.4375 -0.84375 2.4375 -0.6875 2.15625 -0.5625 C 1.921875 -0.4375 1.640625 -0.421875 1.5625 -0.421875 C 1.140625 -0.421875 0.859375 -0.671875 0.859375 -0.921875 C 0.859375 -1.296875 1.625 -1.5 2.4375 -1.515625 Z M 2.4375 -1 "/>
</g>
<g id="glyph-1-8">
<path d="M 3.578125 -2.65625 C 3.578125 -2.875 3.40625 -3.0625 3.046875 -3.0625 C 2.859375 -3.0625 2.5625 -3.015625 2.328125 -2.828125 C 2.265625 -2.875 2 -3.03125 1.640625 -3.03125 C 0.96875 -3.03125 0.453125 -2.515625 0.453125 -1.90625 C 0.453125 -1.6875 0.53125 -1.453125 0.671875 -1.265625 C 0.625 -1.171875 0.53125 -0.984375 0.53125 -0.796875 C 0.53125 -0.59375 0.625 -0.390625 0.703125 -0.296875 C 0.40625 -0.125 0.203125 0.21875 0.203125 0.5625 C 0.203125 1.171875 0.953125 1.578125 1.84375 1.578125 C 2.71875 1.578125 3.484375 1.171875 3.484375 0.5625 C 3.484375 -0.046875 2.953125 -0.40625 2.203125 -0.4375 C 2 -0.4375 1.484375 -0.4375 1.28125 -0.453125 C 0.96875 -0.453125 0.96875 -0.796875 0.96875 -0.796875 C 0.96875 -0.875 1 -0.921875 1.015625 -0.953125 C 1.125 -0.890625 1.359375 -0.796875 1.640625 -0.796875 C 2.3125 -0.796875 2.828125 -1.3125 2.828125 -1.90625 C 2.828125 -2.15625 2.734375 -2.375 2.65625 -2.5 C 2.78125 -2.578125 2.859375 -2.59375 2.984375 -2.59375 C 3.03125 -2.4375 3.15625 -2.359375 3.28125 -2.359375 C 3.453125 -2.359375 3.578125 -2.484375 3.578125 -2.65625 Z M 2.296875 -1.90625 C 2.296875 -1.546875 2 -1.25 1.640625 -1.25 C 1.28125 -1.25 0.984375 -1.53125 0.984375 -1.90625 C 0.984375 -2.28125 1.28125 -2.578125 1.640625 -2.578125 C 2 -2.578125 2.296875 -2.28125 2.296875 -1.90625 Z M 3.03125 0.5625 C 3.03125 0.84375 2.53125 1.140625 1.84375 1.140625 C 1.140625 1.140625 0.640625 0.828125 0.640625 0.5625 C 0.640625 0.28125 0.890625 0 1.265625 0 L 1.640625 0 C 2.265625 0 3.03125 0 3.03125 0.5625 Z M 3.03125 0.5625 "/>
</g>
<g id="glyph-1-9">
<path d="M 3.265625 -0.75 C 3.265625 -0.90625 3.15625 -0.96875 3 -0.96875 C 2.890625 -0.96875 2.8125 -0.953125 2.75 -0.8125 C 2.609375 -0.5 2.265625 -0.421875 2.046875 -0.421875 C 1.53125 -0.421875 1.03125 -0.765625 0.921875 -1.3125 L 2.96875 -1.3125 C 3.09375 -1.3125 3.265625 -1.3125 3.265625 -1.578125 C 3.265625 -2.40625 2.796875 -3.046875 1.890625 -3.046875 C 1.046875 -3.046875 0.375 -2.359375 0.375 -1.515625 C 0.375 -0.6875 1.0625 0.03125 2.015625 0.03125 C 2.96875 0.03125 3.265625 -0.578125 3.265625 -0.75 Z M 2.71875 -1.765625 L 0.921875 -1.765625 C 1.03125 -2.25 1.4375 -2.59375 1.890625 -2.59375 C 2.53125 -2.59375 2.6875 -2.109375 2.71875 -1.765625 Z M 2.71875 -1.765625 "/>
</g>
</g>
<clipPath id="clip-0">
<path clip-rule="nonzero" d="M 0.3125 0 L 82 0 L 82 23 L 0.3125 23 Z M 0.3125 0 "/>
</clipPath>
<clipPath id="clip-1">
<path clip-rule="nonzero" d="M 21 26 L 59 26 L 59 47.71875 L 21 47.71875 Z M 21 26 "/>
</clipPath>
<clipPath id="clip-2">
<path clip-rule="nonzero" d="M 200 11 L 255.433594 11 L 255.433594 37 L 200 37 Z M 200 11 "/>
</clipPath>
</defs>
<path fill-rule="nonzero" fill="rgb(83.428955%, 92.64679%, 97.843933%)" fill-opacity="1" d="M 71.695312 3.179688 L 7.464844 3.179688 C 5.269531 3.179688 3.492188 4.957031 3.492188 7.152344 L 3.492188 13.074219 C 3.492188 15.269531 5.269531 17.050781 7.464844 17.050781 L 71.695312 17.050781 C 73.886719 17.050781 75.667969 15.269531 75.667969 13.074219 L 75.667969 7.152344 C 75.667969 4.957031 73.886719 3.179688 71.695312 3.179688 Z M 71.695312 3.179688 "/>
<g clip-path="url(#clip-0)">
<path fill="none" stroke-width="0.3985" stroke-linecap="butt" stroke-linejoin="miter" stroke="rgb(0%, 0%, 0%)" stroke-opacity="1" stroke-miterlimit="10" d="M 32.211117 23.962945 L -32.208584 23.962945 C -34.410365 23.962945 -36.192945 22.180365 -36.192945 19.978584 L -36.192945 14.039263 C -36.192945 11.837482 -34.410365 10.050985 -32.208584 10.050985 L 32.211117 10.050985 C 34.40898 10.050985 36.195478 11.837482 36.195478 14.039263 L 36.195478 19.978584 C 36.195478 22.180365 34.40898 23.962945 32.211117 23.962945 Z M 32.211117 23.962945 " transform="matrix(0.997062, 0, 0, -0.997062, 39.578815, 27.072241)"/>
</g>
<g fill="rgb(0%, 0%, 0%)" fill-opacity="1">
<use xlink:href="#glyph-0-0" x="7.464429" y="11.531028"/>
<use xlink:href="#glyph-0-1" x="9.713131" y="11.531028"/>
<use xlink:href="#glyph-0-2" x="16.238817" y="11.531028"/>
<use xlink:href="#glyph-0-3" x="20.198034" y="11.531028"/>
<use xlink:href="#glyph-0-4" x="24.157251" y="11.531028"/>
<use xlink:href="#glyph-0-5" x="27.68884" y="11.531028"/>
</g>
<g fill="rgb(0%, 0%, 0%)" fill-opacity="1">
<use xlink:href="#glyph-1-0" x="34.75403" y="11.531028"/>
<use xlink:href="#glyph-1-1" x="38.448326" y="11.531028"/>
<use xlink:href="#glyph-1-2" x="42.142622" y="11.531028"/>
<use xlink:href="#glyph-1-3" x="45.836918" y="11.531028"/>
<use xlink:href="#glyph-1-4" x="49.531214" y="11.531028"/>
<use xlink:href="#glyph-1-5" x="53.22551" y="11.531028"/>
<use xlink:href="#glyph-1-6" x="56.919806" y="11.531028"/>
<use xlink:href="#glyph-1-7" x="60.614102" y="11.531028"/>
<use xlink:href="#glyph-1-8" x="64.308398" y="11.531028"/>
<use xlink:href="#glyph-1-9" x="68.002694" y="11.531028"/>
</g>
<path fill-rule="nonzero" fill="rgb(87.998962%, 93.363953%, 96.374512%)" fill-opacity="1" d="M 48.515625 32.214844 L 30.640625 32.214844 C 28.449219 32.214844 26.667969 33.992188 26.667969 36.1875 L 26.667969 40.566406 C 26.667969 42.761719 28.449219 44.539062 30.640625 44.539062 L 48.515625 44.539062 C 50.710938 44.539062 52.488281 42.761719 52.488281 40.566406 L 52.488281 36.1875 C 52.488281 33.992188 50.710938 32.214844 48.515625 32.214844 Z M 48.515625 32.214844 "/>
<g clip-path="url(#clip-1)">
<path fill="none" stroke-width="0.3985" stroke-linecap="butt" stroke-linejoin="miter" stroke="rgb(0%, 0%, 0%)" stroke-opacity="1" stroke-miterlimit="10" d="M 8.963139 -5.157754 L -8.964524 -5.157754 C -11.162386 -5.157754 -12.948884 -6.940334 -12.948884 -9.142114 L -12.948884 -13.533921 C -12.948884 -15.735701 -11.162386 -17.518281 -8.964524 -17.518281 L 8.963139 -17.518281 C 11.164919 -17.518281 12.947499 -15.735701 12.947499 -13.533921 L 12.947499 -9.142114 C 12.947499 -6.940334 11.164919 -5.157754 8.963139 -5.157754 Z M 8.963139 -5.157754 " transform="matrix(0.997062, 0, 0, -0.997062, 39.578815, 27.072241)"/>
</g>
<g fill="rgb(0%, 0%, 0%)" fill-opacity="1">
<use xlink:href="#glyph-0-6" x="30.642144" y="40.566485"/>
<use xlink:href="#glyph-0-4" x="33.746104" y="40.566485"/>
<use xlink:href="#glyph-0-7" x="37.277692" y="40.566485"/>
<use xlink:href="#glyph-0-6" x="41.451072" y="40.566485"/>
<use xlink:href="#glyph-0-8" x="44.555031" y="40.566485"/>
</g>
<path fill-rule="nonzero" fill="rgb(85.998535%, 94.674683%, 92.312622%)" fill-opacity="1" stroke-width="0.3985" stroke-linecap="butt" stroke-linejoin="miter" stroke="rgb(0%, 0%, 0%)" stroke-opacity="1" stroke-miterlimit="10" d="M 129.700618 9.22042 L 80.066536 9.22042 C 77.864756 9.22042 76.082176 7.43784 76.082176 5.236059 L 76.082176 0.432888 C 76.082176 -1.768893 77.864756 -3.551473 80.066536 -3.551473 L 129.700618 -3.551473 C 131.902398 -3.551473 133.684978 -1.768893 133.684978 0.432888 L 133.684978 5.236059 C 133.684978 7.43784 131.902398 9.22042 129.700618 9.22042 Z M 129.700618 9.22042 " transform="matrix(0.997062, 0, 0, -0.997062, 39.578815, 27.072241)"/>
<g fill="rgb(0%, 0%, 0%)" fill-opacity="1">
<use xlink:href="#glyph-0-9" x="119.408624" y="26.640513"/>
<use xlink:href="#glyph-0-5" x="123.796166" y="26.640513"/>
<use xlink:href="#glyph-0-2" x="128.183707" y="26.640513"/>
</g>
<g fill="rgb(0%, 0%, 0%)" fill-opacity="1">
<use xlink:href="#glyph-0-10" x="134.819951" y="26.640513"/>
<use xlink:href="#glyph-0-8" x="137.967021" y="26.640513"/>
<use xlink:href="#glyph-0-11" x="141.926238" y="26.640513"/>
<use xlink:href="#glyph-0-2" x="144.17494" y="26.640513"/>
</g>
<g fill="rgb(0%, 0%, 0%)" fill-opacity="1">
<use xlink:href="#glyph-0-12" x="150.811183" y="26.640513"/>
<use xlink:href="#glyph-0-13" x="155.309282" y="26.640513"/>
<use xlink:href="#glyph-0-1" x="158.413242" y="26.640513"/>
<use xlink:href="#glyph-0-2" x="164.938928" y="26.640513"/>
</g>
<path fill-rule="nonzero" fill="rgb(83.999634%, 93.911743%, 91.215515%)" fill-opacity="1" d="M 248.285156 17.203125 L 209.605469 17.203125 C 207.410156 17.203125 205.632812 18.980469 205.632812 21.175781 L 205.632812 27.316406 C 205.632812 29.511719 207.410156 31.289062 209.605469 31.289062 L 248.285156 31.289062 C 250.480469 31.289062 252.257812 29.511719 252.257812 27.316406 L 252.257812 21.175781 C 252.257812 18.980469 250.480469 17.203125 248.285156 17.203125 Z M 248.285156 17.203125 "/>
<g clip-path="url(#clip-2)">
<path fill="none" stroke-width="0.3985" stroke-linecap="butt" stroke-linejoin="miter" stroke="rgb(0%, 0%, 0%)" stroke-opacity="1" stroke-miterlimit="10" d="M 209.321222 9.898192 L 170.527578 9.898192 C 168.325798 9.898192 166.543218 8.115612 166.543218 5.913832 L 166.543218 -0.244885 C 166.543218 -2.446665 168.325798 -4.229245 170.527578 -4.229245 L 209.321222 -4.229245 C 211.523002 -4.229245 213.305582 -2.446665 213.305582 -0.244885 L 213.305582 5.913832 C 213.305582 8.115612 211.523002 9.898192 209.321222 9.898192 Z M 209.321222 9.898192 " transform="matrix(0.997062, 0, 0, -0.997062, 39.578815, 27.072241)"/>
</g>
<g fill="rgb(0%, 0%, 0%)" fill-opacity="1">
<use xlink:href="#glyph-0-14" x="209.602898" y="25.964505"/>
<use xlink:href="#glyph-0-4" x="213.99044" y="25.964505"/>
<use xlink:href="#glyph-0-10" x="217.522028" y="25.964505"/>
<use xlink:href="#glyph-0-15" x="220.669098" y="25.964505"/>
<use xlink:href="#glyph-0-13" x="224.200687" y="25.964505"/>
<use xlink:href="#glyph-0-0" x="227.304646" y="25.964505"/>
<use xlink:href="#glyph-0-16" x="229.553348" y="25.964505"/>
</g>
<g fill="rgb(0%, 0%, 0%)" fill-opacity="1">
<use xlink:href="#glyph-0-15" x="234.156442" y="25.964505"/>
<use xlink:href="#glyph-0-0" x="237.688031" y="25.964505"/>
<use xlink:href="#glyph-0-17" x="239.936733" y="25.964505"/>
<use xlink:href="#glyph-0-5" x="243.89595" y="25.964505"/>
</g>
<path fill="none" stroke-width="0.3985" stroke-linecap="butt" stroke-linejoin="miter" stroke="rgb(0%, 0%, 0%)" stroke-opacity="1" stroke-miterlimit="10" d="M 36.395283 12.092137 L 70.460193 7.484853 " transform="matrix(0.997062, 0, 0, -0.997062, 39.578815, 27.072241)"/>
<path fill-rule="nonzero" fill="rgb(0%, 0%, 0%)" fill-opacity="1" stroke-width="0.3985" stroke-linecap="butt" stroke-linejoin="miter" stroke="rgb(0%, 0%, 0%)" stroke-opacity="1" stroke-miterlimit="10" d="M 4.648766 0.00150045 C 4.076841 0.137646 1.566539 0.924925 -0.000170655 1.780518 L -0.00124519 -1.777919 C 1.567689 -0.925231 4.078655 -0.138864 4.648766 0.00150045 Z M 4.648766 0.00150045 " transform="matrix(0.988009, 0.133626, 0.133626, -0.988009, 109.832557, 19.610754)"/>
<path fill="none" stroke-width="0.3985" stroke-linecap="butt" stroke-linejoin="miter" stroke="rgb(0%, 0%, 0%)" stroke-opacity="1" stroke-miterlimit="10" d="M 13.147305 -9.561314 L 70.460193 -1.811988 " transform="matrix(0.997062, 0, 0, -0.997062, 39.578815, 27.072241)"/>
<path fill-rule="nonzero" fill="rgb(0%, 0%, 0%)" fill-opacity="1" stroke-width="0.3985" stroke-linecap="butt" stroke-linejoin="miter" stroke="rgb(0%, 0%, 0%)" stroke-opacity="1" stroke-miterlimit="10" d="M 4.649164 0.00160877 C 4.078532 0.13807 1.56758 0.924343 -0.000832112 1.780849 L 0.000357734 -1.777532 C 1.56649 -0.925784 4.076727 -0.138436 4.649164 0.00160877 Z M 4.649164 0.00160877 " transform="matrix(0.988029, -0.133596, -0.133596, -0.988029, 109.832487, 28.880514)"/>
<path fill="none" stroke-width="0.3985" stroke-linecap="butt" stroke-linejoin="miter" stroke="rgb(0%, 0%, 0%)" stroke-opacity="1" stroke-miterlimit="10" d="M 133.884784 2.834474 L 160.870304 2.834474 " transform="matrix(0.997062, 0, 0, -0.997062, 39.578815, 27.072241)"/>
<path fill-rule="nonzero" fill="rgb(0%, 0%, 0%)" fill-opacity="1" stroke-width="0.3985" stroke-linecap="butt" stroke-linejoin="miter" stroke="rgb(0%, 0%, 0%)" stroke-opacity="1" stroke-miterlimit="10" d="M 4.648463 -0.000366484 C 4.07647 0.136755 1.569105 0.924225 -0.00191636 1.778296 L -0.00191636 -1.779029 C 1.569105 -0.924957 4.07647 -0.137488 4.648463 -0.000366484 Z M 4.648463 -0.000366484 " transform="matrix(0.997062, 0, 0, -0.997062, 199.978473, 24.245728)"/>
</svg>
