<?xml version="1.0" encoding="UTF-8"?>
<svg xmlns="http://www.w3.org/2000/svg" xmlns:xlink="http://www.w3.org/1999/xlink" width="623.407" height="62.647" viewBox="0 0 283.367 28.476">
<defs>
<g>
<g id="glyph-0-0">
<path d="M 4.078125 -1.484375 C 4.078125 -2.3125 3.359375 -3.015625 2.484375 -3.015625 C 2.078125 -3.015625 1.671875 -2.875 1.390625 -2.59375 L 1.390625 -3.015625 L 0.34375 -2.9375 L 0.34375 -2.703125 C 0.828125 -2.703125 0.859375 -2.65625 0.859375 -2.375 L 0.859375 0.78125 C 0.859375 1.078125 0.796875 1.078125 0.34375 1.078125 L 0.34375 1.328125 C 0.34375 1.328125 0.84375 1.296875 1.140625 1.296875 C 1.390625 1.296875 1.875 1.328125 1.9375 1.328125 L 1.9375 1.078125 C 1.484375 1.078125 1.421875 1.078125 1.421875 0.78125 L 1.421875 -0.328125 C 1.453125 -0.296875 1.78125 0.0625 2.375 0.0625 C 3.296875 0.0625 4.078125 -0.609375 4.078125 -1.484375 Z M 3.4375 -1.484375 C 3.4375 -0.703125 2.921875 -0.125 2.328125 -0.125 C 1.71875 -0.125 1.4375 -0.65625 1.421875 -0.6875 L 1.421875 -2.28125 C 1.625 -2.625 2.03125 -2.796875 2.40625 -2.796875 C 2.984375 -2.796875 3.4375 -2.203125 3.4375 -1.484375 Z M 3.4375 -1.484375 "/>
</g>
<g id="glyph-0-1">
<path d="M 3.796875 -0.609375 L 3.796875 -1 L 3.5625 -1 L 3.5625 -0.625 C 3.5625 -0.546875 3.5625 -0.21875 3.296875 -0.21875 C 3.046875 -0.21875 3.046875 -0.546875 3.046875 -0.640625 L 3.046875 -1.828125 C 3.046875 -2.203125 3.046875 -2.453125 2.71875 -2.703125 C 2.4375 -2.9375 2.109375 -3.046875 1.6875 -3.046875 C 1.03125 -3.046875 0.5625 -2.8125 0.5625 -2.390625 C 0.5625 -2.171875 0.71875 -2.046875 0.890625 -2.046875 C 1.078125 -2.046875 1.21875 -2.1875 1.21875 -2.375 C 1.21875 -2.484375 1.171875 -2.640625 0.984375 -2.6875 C 1.234375 -2.859375 1.640625 -2.859375 1.671875 -2.859375 C 2.0625 -2.859375 2.5 -2.609375 2.5 -2.03125 L 2.5 -1.828125 C 2.109375 -1.8125 1.640625 -1.78125 1.140625 -1.59375 C 0.515625 -1.375 0.3125 -1 0.3125 -0.6875 C 0.3125 -0.109375 1.046875 0.0625 1.53125 0.0625 C 2.09375 0.0625 2.421875 -0.234375 2.5625 -0.5 C 2.59375 -0.21875 2.78125 0.03125 3.109375 0.03125 C 3.109375 0.03125 3.796875 0.03125 3.796875 -0.609375 Z M 2.5 -0.96875 C 2.5 -0.3125 1.90625 -0.125 1.59375 -0.125 C 1.234375 -0.125 0.90625 -0.359375 0.90625 -0.6875 C 0.90625 -1.0625 1.234375 -1.59375 2.5 -1.640625 Z M 2.5 -0.96875 "/>
</g>
<g id="glyph-0-2">
<path d="M 2.84375 -0.890625 C 2.84375 -1.15625 2.71875 -1.359375 2.546875 -1.53125 C 2.28125 -1.765625 1.953125 -1.828125 1.71875 -1.859375 C 1.15625 -1.953125 0.703125 -2.046875 0.703125 -2.40625 C 0.703125 -2.625 0.890625 -2.890625 1.546875 -2.890625 C 2.359375 -2.890625 2.390625 -2.328125 2.40625 -2.140625 C 2.421875 -2.0625 2.5 -2.0625 2.53125 -2.0625 C 2.640625 -2.0625 2.640625 -2.109375 2.640625 -2.234375 L 2.640625 -2.875 C 2.640625 -2.984375 2.640625 -3.046875 2.546875 -3.046875 C 2.515625 -3.046875 2.5 -3.046875 2.40625 -2.96875 C 2.390625 -2.96875 2.328125 -2.90625 2.28125 -2.875 C 2.078125 -3.015625 1.8125 -3.046875 1.546875 -3.046875 C 0.546875 -3.046875 0.3125 -2.53125 0.3125 -2.203125 C 0.3125 -1.984375 0.40625 -1.796875 0.578125 -1.65625 C 0.84375 -1.4375 1.109375 -1.390625 1.546875 -1.328125 C 1.890625 -1.265625 2.453125 -1.15625 2.453125 -0.703125 C 2.453125 -0.4375 2.265625 -0.125 1.59375 -0.125 C 0.921875 -0.125 0.6875 -0.546875 0.5625 -1.015625 C 0.53125 -1.109375 0.53125 -1.140625 0.4375 -1.140625 C 0.3125 -1.140625 0.3125 -1.09375 0.3125 -0.953125 L 0.3125 -0.109375 C 0.3125 0 0.3125 0.0625 0.40625 0.0625 C 0.46875 0.0625 0.609375 -0.078125 0.75 -0.21875 C 1.046875 0.0625 1.4375 0.0625 1.59375 0.0625 C 2.5 0.0625 2.84375 -0.40625 2.84375 -0.890625 Z M 2.84375 -0.890625 "/>
</g>
<g id="glyph-0-3">
<path d="M 1.703125 0.3125 L 1.703125 -3.015625 L 0.59375 -2.9375 L 0.59375 -2.703125 C 1.109375 -2.703125 1.171875 -2.65625 1.171875 -2.3125 L 1.171875 0.328125 C 1.171875 0.59375 1.125 1.203125 0.65625 1.203125 C 0.625 1.203125 0.46875 1.203125 0.296875 1.140625 C 0.3125 1.125 0.46875 1.046875 0.46875 0.84375 C 0.46875 0.65625 0.328125 0.515625 0.140625 0.515625 C -0.0625 0.515625 -0.1875 0.65625 -0.1875 0.84375 C -0.1875 1.21875 0.234375 1.390625 0.65625 1.390625 C 1.21875 1.390625 1.703125 0.96875 1.703125 0.3125 Z M 1.703125 -4.125 C 1.703125 -4.34375 1.515625 -4.515625 1.296875 -4.515625 C 1.0625 -4.515625 0.90625 -4.328125 0.90625 -4.125 C 0.90625 -3.90625 1.078125 -3.734375 1.296875 -3.734375 C 1.53125 -3.734375 1.703125 -3.921875 1.703125 -4.125 Z M 1.703125 -4.125 "/>
</g>
<g id="glyph-0-4">
<path d="M 3.265625 -0.828125 C 3.265625 -0.84375 3.25 -0.921875 3.15625 -0.921875 C 3.0625 -0.921875 3.046875 -0.875 3.03125 -0.8125 C 2.8125 -0.25 2.28125 -0.15625 2.03125 -0.15625 C 1.703125 -0.15625 1.390625 -0.296875 1.171875 -0.546875 C 0.921875 -0.875 0.90625 -1.296875 0.90625 -1.5625 L 3.078125 -1.5625 C 3.21875 -1.5625 3.265625 -1.5625 3.265625 -1.71875 C 3.265625 -2.3125 2.921875 -3.046875 1.890625 -3.046875 C 0.96875 -3.046875 0.265625 -2.34375 0.265625 -1.5 C 0.265625 -0.625 1.046875 0.0625 1.984375 0.0625 C 2.921875 0.0625 3.265625 -0.671875 3.265625 -0.828125 Z M 2.78125 -1.734375 L 0.921875 -1.734375 C 0.984375 -2.703125 1.625 -2.859375 1.890625 -2.859375 C 2.75 -2.859375 2.765625 -1.90625 2.78125 -1.734375 Z M 2.78125 -1.734375 "/>
</g>
<g id="glyph-0-5">
<path d="M 2.84375 -2.578125 C 2.84375 -2.8125 2.625 -3.015625 2.296875 -3.015625 C 1.9375 -3.015625 1.5625 -2.8125 1.34375 -2.28125 L 1.34375 -3.015625 L 0.34375 -2.9375 L 0.34375 -2.703125 C 0.8125 -2.703125 0.859375 -2.65625 0.859375 -2.3125 L 0.859375 -0.546875 C 0.859375 -0.25 0.796875 -0.25 0.34375 -0.25 L 0.34375 0 C 0.375 0 0.859375 -0.03125 1.140625 -0.03125 L 2.046875 0 L 2.046875 -0.25 L 1.90625 -0.25 C 1.390625 -0.25 1.390625 -0.328125 1.390625 -0.546875 L 1.390625 -1.5625 C 1.390625 -2.140625 1.65625 -2.828125 2.328125 -2.828125 C 2.265625 -2.78125 2.203125 -2.6875 2.203125 -2.578125 C 2.203125 -2.359375 2.390625 -2.265625 2.515625 -2.265625 C 2.6875 -2.265625 2.84375 -2.375 2.84375 -2.578125 Z M 2.84375 -2.578125 "/>
</g>
<g id="glyph-0-6">
<path d="M 3.265625 -0.828125 C 3.265625 -0.90625 3.171875 -0.90625 3.15625 -0.90625 C 3.0625 -0.90625 3.046875 -0.890625 3.015625 -0.78125 C 2.859375 -0.359375 2.5 -0.15625 2.0625 -0.15625 C 1.578125 -0.15625 0.953125 -0.5 0.953125 -1.484375 C 0.953125 -2.359375 1.390625 -2.828125 2.046875 -2.828125 C 2.125 -2.828125 2.46875 -2.828125 2.71875 -2.734375 C 2.59375 -2.671875 2.515625 -2.5625 2.515625 -2.421875 C 2.515625 -2.25 2.65625 -2.109375 2.84375 -2.109375 C 3.03125 -2.109375 3.1875 -2.21875 3.1875 -2.4375 C 3.1875 -3.046875 2.21875 -3.046875 2.015625 -3.046875 C 0.96875 -3.046875 0.328125 -2.265625 0.328125 -1.484375 C 0.328125 -0.609375 1.0625 0.0625 1.984375 0.0625 C 3.03125 0.0625 3.265625 -0.734375 3.265625 -0.828125 Z M 3.265625 -0.828125 "/>
</g>
<g id="glyph-0-7">
<path d="M 4.125 0 L 4.125 -0.25 C 3.65625 -0.25 3.59375 -0.296875 3.59375 -0.625 L 3.59375 -3.015625 L 2.515625 -2.9375 L 2.515625 -2.703125 C 2.984375 -2.703125 3.046875 -2.65625 3.046875 -2.3125 L 3.046875 -1.140625 C 3.046875 -0.546875 2.640625 -0.125 2.109375 -0.125 C 1.484375 -0.125 1.453125 -0.421875 1.453125 -0.765625 L 1.453125 -3.015625 L 0.375 -2.9375 L 0.375 -2.703125 C 0.90625 -2.703125 0.90625 -2.671875 0.90625 -2.0625 L 0.90625 -1.046875 C 0.90625 -0.5625 0.90625 0.0625 2.0625 0.0625 C 2.21875 0.0625 2.734375 0.0625 3.0625 -0.5 L 3.078125 -0.5 L 3.078125 0.0625 Z M 4.125 0 "/>
</g>
<g id="glyph-0-8">
<path d="M 2.1875 -1.234375 L 2.1875 -1.703125 L 0.140625 -1.703125 L 0.140625 -1.234375 Z M 2.1875 -1.234375 "/>
</g>
<g id="glyph-0-9">
<path d="M 4.0625 0 L 4.0625 -0.25 C 3.59375 -0.25 3.53125 -0.296875 3.53125 -0.625 L 3.53125 -4.75 L 2.484375 -4.671875 L 2.484375 -4.421875 C 2.953125 -4.421875 3.015625 -4.375 3.015625 -4.046875 L 3.015625 -2.625 C 2.75 -2.875 2.421875 -3.015625 2.03125 -3.015625 C 1.109375 -3.015625 0.328125 -2.328125 0.328125 -1.46875 C 0.328125 -0.609375 1.0625 0.0625 1.953125 0.0625 C 2.515625 0.0625 2.859375 -0.234375 2.984375 -0.359375 L 2.984375 0.0625 Z M 2.984375 -0.71875 C 2.796875 -0.390625 2.4375 -0.125 1.984375 -0.125 C 1.59375 -0.125 1.3125 -0.34375 1.1875 -0.546875 C 1.046875 -0.75 0.953125 -1.03125 0.953125 -1.46875 C 0.953125 -1.625 0.953125 -2.140625 1.25 -2.453125 C 1.515625 -2.765625 1.859375 -2.828125 2.0625 -2.828125 C 2.40625 -2.828125 2.703125 -2.671875 2.90625 -2.421875 C 2.984375 -2.3125 2.984375 -2.3125 2.984375 -2.1875 Z M 2.984375 -0.71875 "/>
</g>
<g id="glyph-0-10">
<path d="M 3.6875 -1.453125 C 3.6875 -2.3125 2.953125 -3.046875 1.984375 -3.046875 C 1.015625 -3.046875 0.265625 -2.3125 0.265625 -1.453125 C 0.265625 -0.609375 1.046875 0.0625 1.984375 0.0625 C 2.921875 0.0625 3.6875 -0.609375 3.6875 -1.453125 Z M 3.0625 -1.515625 C 3.0625 -1.1875 3.03125 -0.828125 2.828125 -0.546875 C 2.640625 -0.28125 2.328125 -0.15625 1.984375 -0.15625 C 1.71875 -0.15625 1.34375 -0.234375 1.125 -0.5625 C 0.921875 -0.84375 0.90625 -1.203125 0.90625 -1.515625 C 0.90625 -1.8125 0.921875 -2.21875 1.15625 -2.515625 C 1.328125 -2.703125 1.625 -2.859375 1.984375 -2.859375 C 2.390625 -2.859375 2.6875 -2.671875 2.84375 -2.453125 C 3.03125 -2.1875 3.0625 -1.84375 3.0625 -1.515625 Z M 3.0625 -1.515625 "/>
</g>
<g id="glyph-0-11">
<path d="M 4.125 0 L 4.125 -0.25 C 3.671875 -0.25 3.59375 -0.25 3.59375 -0.546875 L 3.59375 -2.078125 C 3.59375 -2.671875 3.296875 -3.015625 2.546875 -3.015625 C 1.984375 -3.015625 1.609375 -2.703125 1.40625 -2.359375 L 1.40625 -3.015625 L 0.375 -2.9375 L 0.375 -2.703125 C 0.84375 -2.703125 0.90625 -2.65625 0.90625 -2.3125 L 0.90625 -0.546875 C 0.90625 -0.25 0.828125 -0.25 0.375 -0.25 L 0.375 0 C 0.375 0 0.875 -0.03125 1.171875 -0.03125 C 1.4375 -0.03125 1.90625 0 1.984375 0 L 1.984375 -0.25 C 1.515625 -0.25 1.453125 -0.25 1.453125 -0.546875 L 1.453125 -1.765625 C 1.453125 -2.484375 2.03125 -2.828125 2.5 -2.828125 C 2.984375 -2.828125 3.046875 -2.453125 3.046875 -2.09375 L 3.046875 -0.546875 C 3.046875 -0.25 2.96875 -0.25 2.515625 -0.25 L 2.515625 0 C 2.515625 0 3.03125 -0.03125 3.3125 -0.03125 C 3.578125 -0.03125 4.0625 0 4.125 0 Z M 4.125 0 "/>
</g>
<g id="glyph-0-12">
<path d="M 4.875 -3.390625 C 4.875 -4.0625 4.078125 -4.671875 3.0625 -4.671875 L 0.40625 -4.671875 L 0.40625 -4.421875 L 0.578125 -4.421875 C 1.109375 -4.421875 1.125 -4.359375 1.125 -4.125 L 1.125 -0.546875 C 1.125 -0.328125 1.109375 -0.25 0.578125 -0.25 L 0.40625 -0.25 L 0.40625 0 L 1.453125 -0.03125 L 2.5 0 L 2.5 -0.25 L 2.34375 -0.25 C 1.796875 -0.25 1.78125 -0.3125 1.78125 -0.546875 L 1.78125 -2.125 L 3.0625 -2.125 C 4.078125 -2.125 4.875 -2.703125 4.875 -3.390625 Z M 4.125 -3.390625 C 4.125 -3.09375 4.125 -2.34375 2.890625 -2.34375 L 1.765625 -2.34375 L 1.765625 -4.15625 C 1.765625 -4.375 1.765625 -4.421875 2.09375 -4.421875 L 2.890625 -4.421875 C 4.046875 -4.421875 4.125 -3.78125 4.125 -3.390625 Z M 4.125 -3.390625 "/>
</g>
<g id="glyph-0-13">
<path d="M 2.53125 0 L 2.53125 -0.25 L 2.34375 -0.25 C 1.78125 -0.25 1.78125 -0.328125 1.78125 -0.5625 L 1.78125 -4.109375 C 1.78125 -4.34375 1.78125 -4.421875 2.34375 -4.421875 L 2.53125 -4.421875 L 2.53125 -4.671875 L 1.453125 -4.640625 L 0.359375 -4.671875 L 0.359375 -4.421875 L 0.53125 -4.421875 C 1.109375 -4.421875 1.109375 -4.34375 1.109375 -4.109375 L 1.109375 -0.5625 C 1.109375 -0.328125 1.109375 -0.25 0.53125 -0.25 L 0.359375 -0.25 L 0.359375 0 L 1.4375 -0.03125 Z M 2.53125 0 "/>
</g>
<g id="glyph-0-14">
<path d="M 2.625 -0.859375 L 2.625 -1.234375 L 2.375 -1.234375 L 2.375 -0.875 C 2.375 -0.40625 2.15625 -0.15625 1.890625 -0.15625 C 1.40625 -0.15625 1.40625 -0.71875 1.40625 -0.84375 L 1.40625 -2.703125 L 2.5 -2.703125 L 2.5 -2.953125 L 1.40625 -2.953125 L 1.40625 -4.203125 L 1.171875 -4.203125 C 1.15625 -3.59375 0.875 -2.921875 0.203125 -2.890625 L 0.203125 -2.703125 L 0.859375 -2.703125 L 0.859375 -0.859375 C 0.859375 -0.09375 1.4375 0.0625 1.828125 0.0625 C 2.296875 0.0625 2.625 -0.328125 2.625 -0.859375 Z M 2.625 -0.859375 "/>
</g>
<g id="glyph-0-15">
<path d="M 1.96875 0 L 1.96875 -0.25 C 1.515625 -0.25 1.4375 -0.25 1.4375 -0.546875 L 1.4375 -4.75 L 0.390625 -4.671875 L 0.390625 -4.421875 C 0.859375 -4.421875 0.921875 -4.375 0.921875 -4.046875 L 0.921875 -0.546875 C 0.921875 -0.25 0.84375 -0.25 0.390625 -0.25 L 0.390625 0 C 0.390625 0 0.890625 -0.03125 1.171875 -0.03125 C 1.4375 -0.03125 1.703125 -0.015625 1.96875 0 Z M 1.96875 0 "/>
</g>
<g id="glyph-0-16">
<path d="M 3.15625 -1.328125 L 2.921875 -1.328125 C 2.859375 -0.53125 2.703125 -0.21875 1.84375 -0.21875 L 0.984375 -0.21875 L 3.078125 -2.703125 C 3.125 -2.765625 3.140625 -2.796875 3.140625 -2.84375 C 3.140625 -2.953125 3.0625 -2.953125 2.953125 -2.953125 L 0.46875 -2.953125 L 0.375 -1.8125 L 0.609375 -1.8125 C 0.65625 -2.53125 0.828125 -2.765625 1.625 -2.765625 L 2.4375 -2.765625 L 0.328125 -0.265625 C 0.265625 -0.1875 0.265625 -0.15625 0.265625 -0.125 C 0.265625 0 0.34375 0 0.46875 0 L 3.03125 0 Z M 3.15625 -1.328125 "/>
</g>
<g id="glyph-0-17">
<path d="M 1.90625 0 L 1.90625 -0.25 C 1.515625 -0.25 1.4375 -0.25 1.4375 -0.53125 L 1.4375 -3.015625 L 0.40625 -2.9375 L 0.40625 -2.703125 C 0.859375 -2.703125 0.921875 -2.65625 0.921875 -2.3125 L 0.921875 -0.546875 C 0.921875 -0.25 0.84375 -0.25 0.390625 -0.25 L 0.390625 0 C 0.390625 0 0.890625 -0.03125 1.171875 -0.03125 C 1.421875 -0.03125 1.671875 -0.015625 1.90625 0 Z M 1.53125 -4.125 C 1.53125 -4.34375 1.359375 -4.515625 1.125 -4.515625 C 0.890625 -4.515625 0.734375 -4.328125 0.734375 -4.125 C 0.734375 -3.90625 0.90625 -3.734375 1.125 -3.734375 C 1.375 -3.734375 1.53125 -3.921875 1.53125 -4.125 Z M 1.53125 -4.125 "/>
</g>
</g>
<clipPath id="clip-0">
<path clip-rule="nonzero" d="M 2.25 0 L 83 0 L 83 27.960938 L 2.25 27.960938 Z M 2.25 0 "/>
</clipPath>
<clipPath id="clip-1">
<path clip-rule="nonzero" d="M 99 0 L 183 0 L 183 27.960938 L 99 27.960938 Z M 99 0 "/>
</clipPath>
<clipPath id="clip-2">
<path clip-rule="nonzero" d="M 199 0 L 280.496094 0 L 280.496094 27.960938 L 199 27.960938 Z M 199 0 "/>
</clipPath>
</defs>
<path fill-rule="nonzero" fill="rgb(97.692871%, 91.159058%, 85.998535%)" fill-opacity="1" d="M 73.3125 4 L 9.292969 4 C 7.132812 4 5.378906 5.75 5.378906 7.910156 L 5.378906 20.050781 C 5.378906 22.210938 7.132812 23.964844 9.292969 23.964844 L 73.3125 23.964844 C 75.472656 23.964844 77.226562 22.210938 77.226562 20.050781 L 77.226562 7.910156 C 77.226562 5.75 75.472656 4 73.3125 4 Z M 73.3125 4 "/>
<g clip-path="url(#clip-0)">
<path fill="none" stroke-width="0.3985" stroke-linecap="butt" stroke-linejoin="miter" stroke="rgb(0%, 0%, 0%)" stroke-opacity="1" stroke-miterlimit="10" d="M 32.598874 10.164394 L -32.59871 10.164394 C -34.798617 10.164394 -36.584797 8.382192 -36.584797 6.182285 L -36.584797 -6.181745 C -36.584797 -8.381651 -34.798617 -10.167832 -32.59871 -10.167832 L 32.598874 -10.167832 C 34.79878 -10.167832 36.584961 -8.381651 36.584961 -6.181745 L 36.584961 6.182285 C 36.584961 8.382192 34.79878 10.164394 32.598874 10.164394 Z M 32.598874 10.164394 " transform="matrix(0.981931, 0, 0, -0.981931, 41.302654, 13.980734)"/>
</g>
<g fill="rgb(0%, 0%, 0%)" fill-opacity="1">
<use xlink:href="#glyph-0-0" x="17.046994" y="12.223078"/>
<use xlink:href="#glyph-0-1" x="21.454369" y="12.223078"/>
<use xlink:href="#glyph-0-2" x="25.431483" y="12.223078"/>
<use xlink:href="#glyph-0-1" x="28.59278" y="12.223078"/>
</g>
<g fill="rgb(0%, 0%, 0%)" fill-opacity="1">
<use xlink:href="#glyph-0-3" x="32.779437" y="12.223078"/>
<use xlink:href="#glyph-0-4" x="35.253434" y="12.223078"/>
</g>
<g fill="rgb(0%, 0%, 0%)" fill-opacity="1">
<use xlink:href="#glyph-0-5" x="41.399312" y="12.223078"/>
<use xlink:href="#glyph-0-4" x="44.517303" y="12.223078"/>
<use xlink:href="#glyph-0-6" x="48.064856" y="12.223078"/>
<use xlink:href="#glyph-0-7" x="51.612409" y="12.223078"/>
<use xlink:href="#glyph-0-0" x="56.019784" y="12.223078"/>
</g>
<g fill="rgb(0%, 0%, 0%)" fill-opacity="1">
<use xlink:href="#glyph-0-4" x="60.636701" y="12.223078"/>
<use xlink:href="#glyph-0-8" x="64.184254" y="12.223078"/>
</g>
<g fill="rgb(0%, 0%, 0%)" fill-opacity="1">
<use xlink:href="#glyph-0-5" x="19.327038" y="20.05005"/>
<use xlink:href="#glyph-0-1" x="22.445028" y="20.05005"/>
<use xlink:href="#glyph-0-9" x="26.422143" y="20.05005"/>
<use xlink:href="#glyph-0-10" x="30.829518" y="20.05005"/>
</g>
<g fill="rgb(0%, 0%, 0%)" fill-opacity="1">
<use xlink:href="#glyph-0-6" x="37.404958" y="20.05005"/>
<use xlink:href="#glyph-0-10" x="40.952511" y="20.05005"/>
<use xlink:href="#glyph-0-11" x="44.929626" y="20.05005"/>
</g>
<g fill="rgb(0%, 0%, 0%)" fill-opacity="1">
<use xlink:href="#glyph-0-12" x="51.935327" y="20.05005"/>
<use xlink:href="#glyph-0-13" x="57.298913" y="20.05005"/>
</g>
<g fill="rgb(0%, 0%, 0%)" fill-opacity="1">
<use xlink:href="#glyph-0-13" x="60.391061" y="20.05005"/>
</g>
<path fill-rule="nonzero" fill="rgb(98.704529%, 97.669983%, 83.692932%)" fill-opacity="1" d="M 173.382812 3.128906 L 109.363281 3.128906 C 107.203125 3.128906 105.453125 4.882812 105.453125 7.042969 L 105.453125 20.917969 C 105.453125 23.078125 107.203125 24.832031 109.363281 24.832031 L 173.382812 24.832031 C 175.546875 24.832031 177.296875 23.078125 177.296875 20.917969 L 177.296875 7.042969 C 177.296875 4.882812 175.546875 3.128906 173.382812 3.128906 Z M 173.382812 3.128906 "/>
<g clip-path="url(#clip-1)">
<path fill="none" stroke-width="0.3985" stroke-linecap="butt" stroke-linejoin="miter" stroke="rgb(0%, 0%, 0%)" stroke-opacity="1" stroke-miterlimit="10" d="M 134.510626 11.051517 L 69.313042 11.051517 C 67.113136 11.051517 65.330933 9.265337 65.330933 7.06543 L 65.330933 -7.06489 C 65.330933 -9.264796 67.113136 -11.050977 69.313042 -11.050977 L 134.510626 -11.050977 C 136.714511 -11.050977 138.496713 -9.264796 138.496713 -7.06489 L 138.496713 7.06543 C 138.496713 9.265337 136.714511 11.051517 134.510626 11.051517 Z M 134.510626 11.051517 " transform="matrix(0.981931, 0, 0, -0.981931, 41.302654, 13.980734)"/>
</g>
<g fill="rgb(0%, 0%, 0%)" fill-opacity="1">
<use xlink:href="#glyph-0-5" x="122.54861" y="11.760588"/>
<use xlink:href="#glyph-0-4" x="125.666601" y="11.760588"/>
<use xlink:href="#glyph-0-9" x="129.214153" y="11.760588"/>
<use xlink:href="#glyph-0-1" x="133.621528" y="11.760588"/>
<use xlink:href="#glyph-0-6" x="137.598643" y="11.760588"/>
<use xlink:href="#glyph-0-14" x="141.146196" y="11.760588"/>
<use xlink:href="#glyph-0-1" x="144.264187" y="11.760588"/>
<use xlink:href="#glyph-0-5" x="148.241301" y="11.760588"/>
</g>
<g fill="rgb(0%, 0%, 0%)" fill-opacity="1">
<use xlink:href="#glyph-0-15" x="153.957618" y="11.760588"/>
<use xlink:href="#glyph-0-1" x="156.216485" y="11.760588"/>
</g>
<g fill="rgb(0%, 0%, 0%)" fill-opacity="1">
<use xlink:href="#glyph-0-12" x="117.119513" y="19.586578"/>
<use xlink:href="#glyph-0-13" x="122.4831" y="19.586578"/>
</g>
<g fill="rgb(0%, 0%, 0%)" fill-opacity="1">
<use xlink:href="#glyph-0-13" x="125.575247" y="19.586578"/>
</g>
<g fill="rgb(0%, 0%, 0%)" fill-opacity="1">
<use xlink:href="#glyph-0-9" x="131.056178" y="19.586578"/>
<use xlink:href="#glyph-0-4" x="135.463553" y="19.586578"/>
<use xlink:href="#glyph-0-15" x="139.011106" y="19.586578"/>
</g>
<g fill="rgb(0%, 0%, 0%)" fill-opacity="1">
<use xlink:href="#glyph-0-0" x="143.868298" y="19.586578"/>
<use xlink:href="#glyph-0-1" x="148.275673" y="19.586578"/>
<use xlink:href="#glyph-0-2" x="152.252788" y="19.586578"/>
<use xlink:href="#glyph-0-1" x="155.414084" y="19.586578"/>
</g>
<g fill="rgb(0%, 0%, 0%)" fill-opacity="1">
<use xlink:href="#glyph-0-3" x="159.607726" y="19.586578"/>
<use xlink:href="#glyph-0-4" x="162.081723" y="19.586578"/>
</g>
<path fill-rule="nonzero" fill="rgb(83.999634%, 93.911743%, 91.215515%)" fill-opacity="1" d="M 273.457031 3.796875 L 209.4375 3.796875 C 207.273438 3.796875 205.523438 5.546875 205.523438 7.707031 L 205.523438 20.253906 C 205.523438 22.414062 207.273438 24.164062 209.4375 24.164062 L 273.457031 24.164062 C 275.617188 24.164062 277.371094 22.414062 277.371094 20.253906 L 277.371094 7.707031 C 277.371094 5.546875 275.617188 3.796875 273.457031 3.796875 Z M 273.457031 3.796875 "/>
<g clip-path="url(#clip-2)">
<path fill="none" stroke-width="0.3985" stroke-linecap="butt" stroke-linejoin="miter" stroke="rgb(0%, 0%, 0%)" stroke-opacity="1" stroke-miterlimit="10" d="M 236.426357 10.371257 L 171.228773 10.371257 C 169.024888 10.371257 167.242686 8.589054 167.242686 6.389148 L 167.242686 -6.388608 C 167.242686 -8.588514 169.024888 -10.370717 171.228773 -10.370717 L 236.426357 -10.370717 C 238.626263 -10.370717 240.412444 -8.588514 240.412444 -6.388608 L 240.412444 6.389148 C 240.412444 8.589054 238.626263 10.371257 236.426357 10.371257 Z M 236.426357 10.371257 " transform="matrix(0.981931, 0, 0, -0.981931, 41.302654, 13.980734)"/>
</g>
<g fill="rgb(0%, 0%, 0%)" fill-opacity="1">
<use xlink:href="#glyph-0-4" x="221.922976" y="12.426337"/>
<use xlink:href="#glyph-0-15" x="225.470529" y="12.426337"/>
</g>
<g fill="rgb(0%, 0%, 0%)" fill-opacity="1">
<use xlink:href="#glyph-0-15" x="230.327722" y="12.426337"/>
<use xlink:href="#glyph-0-4" x="232.586589" y="12.426337"/>
<use xlink:href="#glyph-0-6" x="236.134142" y="12.426337"/>
<use xlink:href="#glyph-0-14" x="239.681694" y="12.426337"/>
<use xlink:href="#glyph-0-10" x="242.799685" y="12.426337"/>
<use xlink:href="#glyph-0-5" x="246.7768" y="12.426337"/>
</g>
<g fill="rgb(0%, 0%, 0%)" fill-opacity="1">
<use xlink:href="#glyph-0-5" x="252.500101" y="12.426337"/>
<use xlink:href="#glyph-0-1" x="255.618092" y="12.426337"/>
<use xlink:href="#glyph-0-8" x="259.595206" y="12.426337"/>
</g>
<g fill="rgb(0%, 0%, 0%)" fill-opacity="1">
<use xlink:href="#glyph-0-16" x="220.305736" y="20.252328"/>
<use xlink:href="#glyph-0-10" x="223.853289" y="20.252328"/>
<use xlink:href="#glyph-0-11" x="227.830403" y="20.252328"/>
<use xlink:href="#glyph-0-1" x="232.237778" y="20.252328"/>
</g>
<g fill="rgb(0%, 0%, 0%)" fill-opacity="1">
<use xlink:href="#glyph-0-2" x="238.813219" y="20.252328"/>
<use xlink:href="#glyph-0-17" x="241.974515" y="20.252328"/>
<use xlink:href="#glyph-0-11" x="244.233382" y="20.252328"/>
</g>
<g fill="rgb(0%, 0%, 0%)" fill-opacity="1">
<use xlink:href="#glyph-0-12" x="251.239083" y="20.252328"/>
<use xlink:href="#glyph-0-13" x="256.602669" y="20.252328"/>
</g>
<g fill="rgb(0%, 0%, 0%)" fill-opacity="1">
<use xlink:href="#glyph-0-13" x="259.694817" y="20.252328"/>
</g>
<path fill="none" stroke-width="0.3985" stroke-linecap="butt" stroke-linejoin="miter" stroke="rgb(0%, 0%, 0%)" stroke-opacity="1" stroke-miterlimit="10" d="M 36.783867 0.000270201 L 59.658119 0.000270201 " transform="matrix(0.981931, 0, 0, -0.981931, 41.302654, 13.980734)"/>
<path fill-rule="nonzero" fill="rgb(0%, 0%, 0%)" fill-opacity="1" stroke-width="0.3985" stroke-linecap="butt" stroke-linejoin="miter" stroke="rgb(0%, 0%, 0%)" stroke-opacity="1" stroke-miterlimit="10" d="M 4.648614 0.000270201 C 4.075763 0.139505 1.56954 0.923197 -0.00182122 1.778495 L -0.00182122 -1.777954 C 1.56954 -0.922656 4.075763 -0.138964 4.648614 0.000270201 Z M 4.648614 0.000270201 " transform="matrix(0.981931, 0, 0, -0.981931, 99.884601, 13.980734)"/>
<path fill="none" stroke-width="0.3985" stroke-linecap="butt" stroke-linejoin="miter" stroke="rgb(0%, 0%, 0%)" stroke-opacity="1" stroke-miterlimit="10" d="M 138.69562 0.000270201 L 161.573849 0.000270201 " transform="matrix(0.981931, 0, 0, -0.981931, 41.302654, 13.980734)"/>
<path fill-rule="nonzero" fill="rgb(0%, 0%, 0%)" fill-opacity="1" stroke-width="0.3985" stroke-linecap="butt" stroke-linejoin="miter" stroke="rgb(0%, 0%, 0%)" stroke-opacity="1" stroke-miterlimit="10" d="M 4.647076 0.000270201 C 4.078203 0.139505 1.568003 0.923197 0.000619356 1.778495 L 0.000619356 -1.777954 C 1.568003 -0.922656 4.078203 -0.138964 4.647076 0.000270201 Z M 4.647076 0.000270201 " transform="matrix(0.981931, 0, 0, -0.981931, 199.956423, 13.980734)"/>
</svg>
