<?xml version="1.0" encoding="UTF-8"?>
<svg xmlns="http://www.w3.org/2000/svg" xmlns:xlink="http://www.w3.org/1999/xlink" width="835.186" height="122.753" viewBox="0 0 379.63 55.797">
<defs>
<g>
<g id="glyph-0-0">
<path d="M 3.3125 -0.828125 C 3.3125 -0.921875 3.234375 -0.921875 3.203125 -0.921875 C 3.109375 -0.921875 3.09375 -0.890625 3.0625 -0.796875 C 2.90625 -0.375 2.53125 -0.15625 2.09375 -0.15625 C 1.609375 -0.15625 0.96875 -0.5 0.96875 -1.515625 C 0.96875 -2.390625 1.40625 -2.875 2.078125 -2.875 C 2.15625 -2.875 2.5 -2.875 2.765625 -2.78125 C 2.625 -2.71875 2.5625 -2.609375 2.5625 -2.46875 C 2.5625 -2.28125 2.703125 -2.140625 2.890625 -2.140625 C 3.078125 -2.140625 3.234375 -2.265625 3.234375 -2.484375 C 3.234375 -3.09375 2.25 -3.09375 2.046875 -3.09375 C 0.984375 -3.09375 0.328125 -2.296875 0.328125 -1.5 C 0.328125 -0.625 1.078125 0.0625 2.015625 0.0625 C 3.078125 0.0625 3.3125 -0.75 3.3125 -0.828125 Z M 3.3125 -0.828125 "/>
</g>
<g id="glyph-0-1">
<path d="M 3.75 -1.484375 C 3.75 -2.34375 3 -3.09375 2.015625 -3.09375 C 1.03125 -3.09375 0.28125 -2.34375 0.28125 -1.484375 C 0.28125 -0.625 1.0625 0.0625 2.015625 0.0625 C 2.96875 0.0625 3.75 -0.625 3.75 -1.484375 Z M 3.109375 -1.546875 C 3.109375 -1.203125 3.078125 -0.84375 2.875 -0.5625 C 2.6875 -0.296875 2.359375 -0.15625 2.015625 -0.15625 C 1.75 -0.15625 1.375 -0.234375 1.140625 -0.578125 C 0.9375 -0.859375 0.921875 -1.21875 0.921875 -1.546875 C 0.921875 -1.84375 0.921875 -2.25 1.171875 -2.546875 C 1.359375 -2.75 1.65625 -2.90625 2.015625 -2.90625 C 2.4375 -2.90625 2.734375 -2.71875 2.890625 -2.5 C 3.078125 -2.21875 3.109375 -1.875 3.109375 -1.546875 Z M 3.109375 -1.546875 "/>
</g>
<g id="glyph-0-2">
<path d="M 4.1875 0 L 4.1875 -0.25 C 3.71875 -0.25 3.65625 -0.25 3.65625 -0.546875 L 3.65625 -2.109375 C 3.65625 -2.71875 3.34375 -3.0625 2.59375 -3.0625 C 2 -3.0625 1.625 -2.75 1.4375 -2.390625 L 1.421875 -2.390625 L 1.421875 -3.0625 L 0.390625 -2.984375 L 0.390625 -2.734375 C 0.859375 -2.734375 0.921875 -2.6875 0.921875 -2.34375 L 0.921875 -0.546875 C 0.921875 -0.25 0.84375 -0.25 0.390625 -0.25 L 0.390625 0 C 0.390625 0 0.890625 -0.03125 1.1875 -0.03125 C 1.453125 -0.03125 1.9375 0 2 0 L 2 -0.25 C 1.546875 -0.25 1.46875 -0.25 1.46875 -0.546875 L 1.46875 -1.796875 C 1.46875 -2.53125 2.0625 -2.875 2.53125 -2.875 C 3.03125 -2.875 3.09375 -2.484375 3.09375 -2.140625 L 3.09375 -0.546875 C 3.09375 -0.25 3.015625 -0.25 2.5625 -0.25 L 2.5625 0 C 2.5625 0 3.078125 -0.03125 3.375 -0.03125 C 3.625 -0.03125 4.125 0 4.1875 0 Z M 4.1875 0 "/>
</g>
<g id="glyph-0-3">
<path d="M 2.65625 -0.875 L 2.65625 -1.265625 L 2.421875 -1.265625 L 2.421875 -0.890625 C 2.421875 -0.40625 2.1875 -0.15625 1.921875 -0.15625 C 1.421875 -0.15625 1.421875 -0.734375 1.421875 -0.859375 L 1.421875 -2.75 L 2.53125 -2.75 L 2.53125 -3 L 1.421875 -3 L 1.421875 -4.28125 L 1.1875 -4.28125 C 1.171875 -3.65625 0.890625 -2.96875 0.203125 -2.9375 L 0.203125 -2.75 L 0.859375 -2.75 L 0.859375 -0.875 C 0.859375 -0.09375 1.46875 0.0625 1.859375 0.0625 C 2.328125 0.0625 2.65625 -0.328125 2.65625 -0.875 Z M 2.65625 -0.875 "/>
</g>
<g id="glyph-0-4">
<path d="M 3.3125 -0.828125 C 3.3125 -0.859375 3.3125 -0.9375 3.203125 -0.9375 C 3.109375 -0.9375 3.09375 -0.890625 3.078125 -0.828125 C 2.859375 -0.25 2.3125 -0.15625 2.0625 -0.15625 C 1.71875 -0.15625 1.40625 -0.296875 1.1875 -0.5625 C 0.921875 -0.890625 0.921875 -1.3125 0.921875 -1.578125 L 3.125 -1.578125 C 3.265625 -1.578125 3.3125 -1.578125 3.3125 -1.734375 C 3.3125 -2.34375 2.96875 -3.09375 1.921875 -3.09375 C 0.984375 -3.09375 0.28125 -2.375 0.28125 -1.515625 C 0.28125 -0.640625 1.0625 0.0625 2 0.0625 C 2.96875 0.0625 3.3125 -0.6875 3.3125 -0.828125 Z M 2.828125 -1.765625 L 0.921875 -1.765625 C 1 -2.75 1.640625 -2.90625 1.921875 -2.90625 C 2.78125 -2.90625 2.8125 -1.9375 2.828125 -1.765625 Z M 2.828125 -1.765625 "/>
</g>
<g id="glyph-0-5">
<path d="M 4.078125 0 L 4.078125 -0.25 C 3.59375 -0.25 3.546875 -0.296875 3.375 -0.46875 L 2.40625 -1.5625 L 2.34375 -1.625 C 2.34375 -1.640625 2.8125 -2.140625 2.875 -2.203125 C 3.125 -2.46875 3.375 -2.734375 3.9375 -2.75 L 3.9375 -3 C 3.734375 -2.984375 3.53125 -2.96875 3.34375 -2.96875 C 3.125 -2.96875 2.859375 -2.96875 2.640625 -3 L 2.640625 -2.75 C 2.765625 -2.71875 2.78125 -2.65625 2.78125 -2.59375 C 2.78125 -2.59375 2.78125 -2.46875 2.671875 -2.34375 L 2.171875 -1.796875 L 1.59375 -2.46875 C 1.515625 -2.53125 1.515625 -2.578125 1.515625 -2.59375 C 1.515625 -2.703125 1.609375 -2.75 1.703125 -2.75 L 1.703125 -3 C 1.4375 -2.96875 1.171875 -2.96875 0.90625 -2.96875 C 0.6875 -2.96875 0.421875 -2.96875 0.21875 -3 L 0.21875 -2.75 C 0.546875 -2.75 0.734375 -2.75 0.921875 -2.53125 L 1.796875 -1.53125 L 1.859375 -1.46875 C 1.859375 -1.453125 1.328125 -0.875 1.25 -0.796875 C 1 -0.515625 0.75 -0.265625 0.1875 -0.25 L 0.1875 0 C 0.390625 -0.015625 0.546875 -0.03125 0.765625 -0.03125 C 0.984375 -0.03125 1.265625 -0.015625 1.484375 0 L 1.484375 -0.25 C 1.390625 -0.265625 1.34375 -0.3125 1.34375 -0.40625 C 1.34375 -0.546875 1.421875 -0.625 1.53125 -0.75 L 2.03125 -1.28125 L 2.640625 -0.59375 C 2.78125 -0.453125 2.78125 -0.4375 2.78125 -0.390625 C 2.78125 -0.25 2.625 -0.25 2.59375 -0.25 L 2.59375 0 C 2.65625 0 3.15625 -0.03125 3.390625 -0.03125 C 3.625 -0.03125 3.84375 -0.015625 4.078125 0 Z M 4.078125 0 "/>
</g>
<g id="glyph-0-6">
<path d="M 2.65625 1.640625 C 2.65625 1.609375 2.640625 1.59375 2.59375 1.546875 C 1.640625 0.703125 1.296875 -0.46875 1.296875 -1.734375 C 1.296875 -3.609375 2.03125 -4.53125 2.609375 -5.046875 C 2.640625 -5.078125 2.65625 -5.09375 2.65625 -5.125 C 2.65625 -5.21875 2.578125 -5.21875 2.515625 -5.21875 C 1.171875 -4.28125 0.8125 -2.8125 0.8125 -1.75 C 0.8125 -0.765625 1.109375 0.765625 2.515625 1.734375 C 2.578125 1.734375 2.65625 1.734375 2.65625 1.640625 Z M 2.65625 1.640625 "/>
</g>
<g id="glyph-0-7">
<path d="M 2 0 L 2 -0.25 C 1.53125 -0.25 1.46875 -0.25 1.46875 -0.546875 L 1.46875 -4.828125 L 0.390625 -4.75 L 0.390625 -4.5 C 0.875 -4.5 0.921875 -4.453125 0.921875 -4.109375 L 0.921875 -0.546875 C 0.921875 -0.25 0.859375 -0.25 0.390625 -0.25 L 0.390625 0 C 0.390625 0 0.90625 -0.03125 1.1875 -0.03125 C 1.46875 -0.03125 1.71875 -0.015625 2 0 Z M 2 0 "/>
</g>
<g id="glyph-0-8">
<path d="M 2.34375 -1.734375 C 2.34375 -2.71875 2.046875 -4.234375 0.640625 -5.21875 C 0.59375 -5.21875 0.5 -5.21875 0.5 -5.125 C 0.5 -5.09375 0.53125 -5.078125 0.5625 -5.03125 C 1.171875 -4.484375 1.859375 -3.546875 1.859375 -1.75 C 1.859375 -0.296875 1.390625 0.8125 0.625 1.484375 C 0.515625 1.609375 0.5 1.609375 0.5 1.640625 C 0.5 1.6875 0.53125 1.734375 0.59375 1.734375 C 0.6875 1.734375 1.359375 1.265625 1.828125 0.40625 C 2.140625 -0.171875 2.34375 -0.921875 2.34375 -1.734375 Z M 2.34375 -1.734375 "/>
</g>
<g id="glyph-0-9">
<path d="M 2.890625 -2.625 C 2.890625 -2.859375 2.65625 -3.0625 2.328125 -3.0625 C 1.96875 -3.0625 1.578125 -2.84375 1.375 -2.328125 L 1.359375 -2.328125 L 1.359375 -3.0625 L 0.34375 -2.984375 L 0.34375 -2.734375 C 0.828125 -2.734375 0.875 -2.6875 0.875 -2.34375 L 0.875 -0.546875 C 0.875 -0.25 0.8125 -0.25 0.34375 -0.25 L 0.34375 0 C 0.390625 0 0.859375 -0.03125 1.15625 -0.03125 L 2.078125 0 L 2.078125 -0.25 L 1.9375 -0.25 C 1.40625 -0.25 1.40625 -0.328125 1.40625 -0.5625 L 1.40625 -1.578125 C 1.40625 -2.171875 1.6875 -2.875 2.359375 -2.875 C 2.296875 -2.828125 2.234375 -2.734375 2.234375 -2.625 C 2.234375 -2.390625 2.421875 -2.296875 2.5625 -2.296875 C 2.734375 -2.296875 2.890625 -2.40625 2.890625 -2.625 Z M 2.890625 -2.625 "/>
</g>
<g id="glyph-0-10">
<path d="M 3.859375 -0.625 L 3.859375 -1.015625 L 3.625 -1.015625 L 3.625 -0.625 C 3.625 -0.5625 3.625 -0.234375 3.359375 -0.234375 C 3.09375 -0.234375 3.09375 -0.5625 3.09375 -0.640625 L 3.09375 -1.859375 C 3.09375 -2.234375 3.09375 -2.5 2.765625 -2.75 C 2.46875 -2.984375 2.140625 -3.09375 1.71875 -3.09375 C 1.046875 -3.09375 0.5625 -2.84375 0.5625 -2.421875 C 0.5625 -2.203125 0.71875 -2.09375 0.90625 -2.09375 C 1.09375 -2.09375 1.234375 -2.21875 1.234375 -2.40625 C 1.234375 -2.53125 1.1875 -2.671875 1 -2.734375 C 1.25 -2.90625 1.65625 -2.90625 1.703125 -2.90625 C 2.09375 -2.90625 2.53125 -2.65625 2.53125 -2.0625 L 2.53125 -1.84375 C 2.140625 -1.828125 1.671875 -1.8125 1.15625 -1.625 C 0.515625 -1.390625 0.3125 -1.015625 0.3125 -0.703125 C 0.3125 -0.109375 1.0625 0.0625 1.5625 0.0625 C 2.125 0.0625 2.46875 -0.25 2.609375 -0.515625 C 2.640625 -0.234375 2.828125 0.03125 3.15625 0.03125 C 3.15625 0.03125 3.859375 0.03125 3.859375 -0.625 Z M 2.53125 -0.984375 C 2.53125 -0.3125 1.9375 -0.125 1.625 -0.125 C 1.25 -0.125 0.921875 -0.359375 0.921875 -0.703125 C 0.921875 -1.078125 1.25 -1.625 2.53125 -1.671875 Z M 2.53125 -0.984375 "/>
</g>
<g id="glyph-0-11">
<path d="M 4.125 0 L 4.125 -0.25 C 3.640625 -0.25 3.59375 -0.296875 3.59375 -0.640625 L 3.59375 -4.828125 L 2.53125 -4.75 L 2.53125 -4.5 C 3 -4.5 3.0625 -4.453125 3.0625 -4.109375 L 3.0625 -2.671875 C 2.796875 -2.921875 2.453125 -3.0625 2.0625 -3.0625 C 1.125 -3.0625 0.328125 -2.375 0.328125 -1.5 C 0.328125 -0.625 1.078125 0.0625 1.984375 0.0625 C 2.5625 0.0625 2.90625 -0.234375 3.03125 -0.359375 L 3.03125 0.0625 Z M 3.03125 -0.734375 C 2.84375 -0.40625 2.484375 -0.125 2.015625 -0.125 C 1.625 -0.125 1.34375 -0.359375 1.203125 -0.5625 C 1.0625 -0.765625 0.96875 -1.046875 0.96875 -1.484375 C 0.96875 -1.640625 0.96875 -2.171875 1.265625 -2.5 C 1.546875 -2.8125 1.890625 -2.875 2.09375 -2.875 C 2.4375 -2.875 2.75 -2.71875 2.9375 -2.46875 C 3.03125 -2.359375 3.03125 -2.34375 3.03125 -2.21875 Z M 3.03125 -0.734375 "/>
</g>
<g id="glyph-0-12">
<path d="M 4.625 -1.828125 L 4.375 -1.828125 C 4.296875 -1.140625 4.1875 -0.25 2.859375 -0.25 L 2.140625 -0.25 C 1.8125 -0.25 1.796875 -0.3125 1.796875 -0.515625 L 1.796875 -4.171875 C 1.796875 -4.40625 1.796875 -4.5 2.46875 -4.5 L 2.71875 -4.5 L 2.71875 -4.75 L 1.46875 -4.71875 L 0.390625 -4.75 L 0.390625 -4.5 L 0.5625 -4.5 C 1.109375 -4.5 1.125 -4.421875 1.125 -4.1875 L 1.125 -0.5625 C 1.125 -0.328125 1.109375 -0.25 0.5625 -0.25 L 0.390625 -0.25 L 0.390625 0 L 4.40625 0 Z M 4.625 -1.828125 "/>
</g>
<g id="glyph-0-13">
<path d="M 6.84375 0 L 6.84375 -0.25 L 6.671875 -0.25 C 6.125 -0.25 6.109375 -0.3125 6.109375 -0.5625 L 6.109375 -4.1875 C 6.109375 -4.421875 6.125 -4.5 6.671875 -4.5 L 6.84375 -4.5 L 6.84375 -4.75 L 5.609375 -4.75 C 5.46875 -4.75 5.40625 -4.75 5.34375 -4.609375 L 3.640625 -0.671875 L 1.953125 -4.59375 C 1.890625 -4.75 1.828125 -4.75 1.6875 -4.75 L 0.4375 -4.75 L 0.4375 -4.5 L 0.609375 -4.5 C 1.15625 -4.5 1.171875 -4.421875 1.171875 -4.1875 L 1.171875 -0.75 C 1.171875 -0.5625 1.171875 -0.25 0.4375 -0.25 L 0.4375 0 C 0.734375 -0.015625 1.015625 -0.03125 1.3125 -0.03125 C 1.59375 -0.03125 1.875 -0.015625 2.171875 0 L 2.171875 -0.25 C 1.4375 -0.25 1.4375 -0.5625 1.4375 -0.75 L 1.4375 -4.421875 L 1.453125 -4.421875 L 3.296875 -0.15625 C 3.328125 -0.078125 3.359375 0 3.46875 0 C 3.515625 0 3.578125 -0.015625 3.640625 -0.140625 L 5.515625 -4.484375 L 5.515625 -0.5625 C 5.515625 -0.328125 5.5 -0.25 4.953125 -0.25 L 4.78125 -0.25 L 4.78125 0 L 5.8125 -0.03125 Z M 6.84375 0 "/>
</g>
<g id="glyph-0-14">
<path d="M 4.234375 0 L 4.234375 -0.25 C 3.78125 -0.25 3.703125 -0.25 3.703125 -0.546875 L 3.703125 -3.078125 L 2.765625 -3.015625 C 2.6875 -3.015625 2.65625 -3.015625 2.640625 -3 C 2.625 -3 2.609375 -3 2.515625 -3 L 1.390625 -3 L 1.390625 -3.75 C 1.390625 -4.4375 2.109375 -4.703125 2.609375 -4.703125 C 2.84375 -4.703125 3.078125 -4.65625 3.265625 -4.5 C 3.015625 -4.453125 3 -4.25 3 -4.171875 C 3 -3.953125 3.171875 -3.828125 3.34375 -3.828125 C 3.46875 -3.828125 3.6875 -3.921875 3.6875 -4.1875 C 3.6875 -4.5625 3.296875 -4.890625 2.625 -4.890625 C 1.890625 -4.890625 0.875 -4.5625 0.875 -3.765625 L 0.875 -3 L 0.265625 -3 L 0.265625 -2.75 L 0.875 -2.75 L 0.875 -0.546875 C 0.875 -0.25 0.8125 -0.25 0.34375 -0.25 L 0.34375 0 C 0.34375 0 0.859375 -0.03125 1.140625 -0.03125 C 1.40625 -0.03125 1.671875 -0.015625 1.9375 0 L 1.9375 -0.25 C 1.484375 -0.25 1.40625 -0.25 1.40625 -0.546875 L 1.40625 -2.75 L 2.828125 -2.75 C 3.109375 -2.75 3.171875 -2.671875 3.171875 -2.375 L 3.171875 -0.546875 C 3.171875 -0.25 3.09375 -0.25 2.640625 -0.25 L 2.640625 0 C 2.640625 0 3.15625 -0.03125 3.4375 -0.03125 C 3.703125 -0.03125 3.96875 -0.015625 4.234375 0 Z M 4.234375 0 "/>
</g>
<g id="glyph-0-15">
<path d="M 1.71875 0.3125 L 1.71875 -3.0625 L 0.609375 -2.984375 L 0.609375 -2.734375 C 1.125 -2.734375 1.1875 -2.6875 1.1875 -2.34375 L 1.1875 0.328125 C 1.1875 0.59375 1.140625 1.21875 0.65625 1.21875 C 0.640625 1.21875 0.46875 1.21875 0.3125 1.15625 C 0.3125 1.140625 0.484375 1.0625 0.484375 0.859375 C 0.484375 0.671875 0.34375 0.53125 0.15625 0.53125 C -0.0625 0.53125 -0.1875 0.671875 -0.1875 0.859375 C -0.1875 1.234375 0.234375 1.421875 0.671875 1.421875 C 1.234375 1.421875 1.71875 0.984375 1.71875 0.3125 Z M 1.71875 -4.1875 C 1.71875 -4.40625 1.546875 -4.59375 1.3125 -4.59375 C 1.078125 -4.59375 0.921875 -4.390625 0.921875 -4.1875 C 0.921875 -3.96875 1.09375 -3.796875 1.3125 -3.796875 C 1.5625 -3.796875 1.71875 -3.984375 1.71875 -4.1875 Z M 1.71875 -4.1875 "/>
</g>
<g id="glyph-0-16">
<path d="M 2.890625 -0.90625 C 2.890625 -1.171875 2.765625 -1.390625 2.578125 -1.546875 C 2.3125 -1.796875 1.984375 -1.84375 1.734375 -1.890625 C 1.171875 -1.984375 0.703125 -2.078125 0.703125 -2.4375 C 0.703125 -2.65625 0.90625 -2.9375 1.578125 -2.9375 C 2.390625 -2.9375 2.4375 -2.375 2.453125 -2.171875 C 2.453125 -2.09375 2.546875 -2.09375 2.5625 -2.09375 C 2.6875 -2.09375 2.6875 -2.140625 2.6875 -2.28125 L 2.6875 -2.921875 C 2.6875 -3.03125 2.6875 -3.09375 2.59375 -3.09375 C 2.546875 -3.09375 2.546875 -3.09375 2.453125 -3.015625 C 2.4375 -3.015625 2.359375 -2.953125 2.3125 -2.90625 C 2.109375 -3.0625 1.84375 -3.09375 1.578125 -3.09375 C 0.5625 -3.09375 0.3125 -2.578125 0.3125 -2.234375 C 0.3125 -2.015625 0.421875 -1.828125 0.59375 -1.6875 C 0.859375 -1.453125 1.125 -1.40625 1.5625 -1.34375 C 1.921875 -1.28125 2.5 -1.1875 2.5 -0.71875 C 2.5 -0.4375 2.3125 -0.125 1.625 -0.125 C 0.9375 -0.125 0.6875 -0.5625 0.5625 -1.03125 C 0.546875 -1.125 0.546875 -1.15625 0.4375 -1.15625 C 0.3125 -1.15625 0.3125 -1.109375 0.3125 -0.96875 L 0.3125 -0.109375 C 0.3125 0 0.3125 0.0625 0.421875 0.0625 C 0.484375 0.0625 0.609375 -0.078125 0.765625 -0.234375 C 1.078125 0.0625 1.453125 0.0625 1.625 0.0625 C 2.546875 0.0625 2.890625 -0.421875 2.890625 -0.90625 Z M 2.890625 -0.90625 "/>
</g>
<g id="glyph-0-17">
<path d="M 1.9375 0 L 1.9375 -0.25 C 1.53125 -0.25 1.46875 -0.25 1.46875 -0.546875 L 1.46875 -3.0625 L 0.421875 -2.984375 L 0.421875 -2.734375 C 0.859375 -2.734375 0.921875 -2.703125 0.921875 -2.359375 L 0.921875 -0.546875 C 0.921875 -0.25 0.859375 -0.25 0.390625 -0.25 L 0.390625 0 C 0.390625 0 0.90625 -0.03125 1.1875 -0.03125 C 1.4375 -0.03125 1.703125 -0.015625 1.9375 0 Z M 1.546875 -4.1875 C 1.546875 -4.40625 1.375 -4.59375 1.15625 -4.59375 C 0.90625 -4.59375 0.75 -4.390625 0.75 -4.1875 C 0.75 -3.96875 0.921875 -3.796875 1.15625 -3.796875 C 1.390625 -3.796875 1.546875 -3.984375 1.546875 -4.1875 Z M 1.546875 -4.1875 "/>
</g>
<g id="glyph-0-18">
<path d="M 6.359375 0 L 6.359375 -0.25 C 5.90625 -0.25 5.828125 -0.25 5.828125 -0.546875 L 5.828125 -2.109375 C 5.828125 -2.71875 5.53125 -3.0625 4.765625 -3.0625 C 4.203125 -3.0625 3.828125 -2.765625 3.625 -2.421875 C 3.484375 -2.90625 3.109375 -3.0625 2.59375 -3.0625 C 2 -3.0625 1.625 -2.75 1.4375 -2.390625 L 1.421875 -2.390625 L 1.421875 -3.0625 L 0.390625 -2.984375 L 0.390625 -2.734375 C 0.859375 -2.734375 0.921875 -2.6875 0.921875 -2.34375 L 0.921875 -0.546875 C 0.921875 -0.25 0.84375 -0.25 0.390625 -0.25 L 0.390625 0 C 0.390625 0 0.890625 -0.03125 1.1875 -0.03125 C 1.453125 -0.03125 1.9375 0 2 0 L 2 -0.25 C 1.546875 -0.25 1.46875 -0.25 1.46875 -0.546875 L 1.46875 -1.796875 C 1.46875 -2.53125 2.0625 -2.875 2.53125 -2.875 C 3.03125 -2.875 3.09375 -2.484375 3.09375 -2.140625 L 3.09375 -0.546875 C 3.09375 -0.25 3.015625 -0.25 2.5625 -0.25 L 2.5625 0 C 2.5625 0 3.078125 -0.03125 3.375 -0.03125 C 3.625 -0.03125 4.125 0 4.1875 0 L 4.1875 -0.25 C 3.71875 -0.25 3.65625 -0.25 3.65625 -0.546875 L 3.65625 -1.796875 C 3.65625 -2.53125 4.234375 -2.875 4.703125 -2.875 C 5.203125 -2.875 5.265625 -2.484375 5.265625 -2.140625 L 5.265625 -0.546875 C 5.265625 -0.25 5.203125 -0.25 4.734375 -0.25 L 4.734375 0 C 4.734375 0 5.25 -0.03125 5.546875 -0.03125 C 5.8125 -0.03125 6.296875 0 6.359375 0 Z M 6.359375 0 "/>
</g>
<g id="glyph-0-19">
<path d="M 4.1875 0 L 4.1875 -0.25 C 3.703125 -0.25 3.65625 -0.296875 3.65625 -0.640625 L 3.65625 -3.0625 L 2.5625 -2.984375 L 2.5625 -2.734375 C 3.03125 -2.734375 3.09375 -2.6875 3.09375 -2.34375 L 3.09375 -1.15625 C 3.09375 -0.546875 2.6875 -0.125 2.15625 -0.125 C 1.5 -0.125 1.46875 -0.421875 1.46875 -0.78125 L 1.46875 -3.0625 L 0.390625 -2.984375 L 0.390625 -2.734375 C 0.921875 -2.734375 0.921875 -2.71875 0.921875 -2.09375 L 0.921875 -1.0625 C 0.921875 -0.578125 0.921875 0.0625 2.09375 0.0625 C 2.25 0.0625 2.78125 0.0625 3.109375 -0.515625 L 3.125 -0.515625 L 3.125 0.0625 Z M 4.1875 0 "/>
</g>
<g id="glyph-1-0">
<path d="M 3.796875 -0.796875 C 3.796875 -0.921875 3.671875 -0.921875 3.5625 -0.921875 C 3.40625 -0.921875 3.390625 -0.90625 3.34375 -0.8125 C 3.234375 -0.578125 3 -0.3125 2.46875 -0.3125 C 1.3125 -0.3125 1.3125 -1.28125 1.3125 -1.578125 C 1.3125 -2.09375 1.40625 -2.796875 2.359375 -2.796875 C 2.390625 -2.796875 2.796875 -2.78125 2.796875 -2.765625 L 2.78125 -2.734375 C 2.78125 -2.71875 2.703125 -2.609375 2.703125 -2.453125 C 2.703125 -2.171875 2.921875 -1.96875 3.203125 -1.96875 C 3.484375 -1.96875 3.703125 -2.171875 3.703125 -2.46875 C 3.703125 -3.125 2.75 -3.15625 2.328125 -3.15625 C 0.75 -3.15625 0.328125 -2.1875 0.328125 -1.546875 C 0.328125 -0.734375 0.953125 0.046875 2.296875 0.046875 C 2.640625 0.046875 3 -0.015625 3.28125 -0.171875 C 3.6875 -0.40625 3.796875 -0.75 3.796875 -0.796875 Z M 3.796875 -0.796875 "/>
</g>
<g id="glyph-1-1">
<path d="M 4.59375 0 L 4.59375 -0.390625 L 4.078125 -0.390625 L 2.796875 -1.6875 L 3.78125 -2.65625 C 3.953125 -2.703125 4.140625 -2.703125 4.4375 -2.703125 L 4.4375 -3.09375 C 4.21875 -3.0625 3.984375 -3.0625 3.75 -3.0625 C 3.515625 -3.0625 3.015625 -3.078125 2.96875 -3.09375 L 2.96875 -2.703125 C 3.0625 -2.703125 3.109375 -2.6875 3.15625 -2.65625 L 2.484375 -2 L 1.796875 -2.703125 L 2 -2.703125 L 2 -3.09375 C 1.953125 -3.09375 1.390625 -3.0625 1.09375 -3.0625 C 0.828125 -3.0625 0.5625 -3.0625 0.296875 -3.09375 L 0.296875 -2.703125 L 0.828125 -2.703125 L 1.984375 -1.515625 L 0.96875 -0.5 C 0.875 -0.421875 0.859375 -0.40625 0.640625 -0.390625 C 0.53125 -0.390625 0.28125 -0.390625 0.25 -0.390625 L 0.25 0 C 0.46875 -0.015625 0.703125 -0.03125 0.9375 -0.03125 C 1.125 -0.03125 1.625 0 1.71875 0 L 1.71875 -0.390625 C 1.609375 -0.390625 1.578125 -0.40625 1.53125 -0.4375 L 2.296875 -1.1875 L 3.078125 -0.390625 L 2.90625 -0.390625 L 2.90625 0 C 2.90625 0 3.46875 -0.03125 3.796875 -0.03125 C 4.0625 -0.03125 4.328125 -0.015625 4.59375 0 Z M 4.59375 0 "/>
</g>
<g id="glyph-1-2">
<path d="M 4.578125 -2.703125 L 4.578125 -3.09375 C 4.390625 -3.078125 4.1875 -3.0625 3.984375 -3.0625 C 3.78125 -3.0625 3.5 -3.0625 3.28125 -3.09375 L 3.28125 -2.703125 C 3.453125 -2.703125 3.484375 -2.6875 3.59375 -2.65625 L 2.671875 -0.90625 L 1.703125 -2.703125 L 2.015625 -2.703125 L 2.015625 -3.09375 C 2 -3.09375 1.421875 -3.0625 1.09375 -3.0625 C 0.765625 -3.0625 0.28125 -3.09375 0.25 -3.09375 L 0.25 -2.703125 L 0.71875 -2.703125 L 2.1875 0 C 2.15625 0.09375 1.9375 0.5 1.921875 0.53125 C 1.6875 0.953125 1.296875 1.078125 1.046875 1.078125 C 0.984375 1.078125 0.96875 1.078125 0.9375 1.0625 C 1.0625 0.984375 1.125 0.84375 1.125 0.703125 C 1.125 0.390625 0.90625 0.25 0.671875 0.25 C 0.4375 0.25 0.203125 0.390625 0.203125 0.703125 C 0.203125 1.078125 0.578125 1.390625 1.046875 1.390625 C 1.5625 1.390625 2.125 1.09375 2.4375 0.5 L 4.046875 -2.5625 C 4.109375 -2.65625 4.109375 -2.671875 4.265625 -2.6875 C 4.34375 -2.703125 4.546875 -2.703125 4.578125 -2.703125 Z M 4.578125 -2.703125 "/>
</g>
<g id="glyph-2-0">
<path d="M 4.109375 -1.921875 C 4.109375 -2.625 3.65625 -3.0625 3.109375 -3.0625 C 2.640625 -3.0625 2.265625 -2.734375 2.140625 -2.59375 C 2.015625 -2.96875 1.65625 -3.0625 1.453125 -3.0625 C 1.15625 -3.0625 1 -2.875 0.890625 -2.703125 C 0.734375 -2.46875 0.625 -2.046875 0.625 -2 C 0.625 -1.90625 0.71875 -1.90625 0.765625 -1.90625 C 0.90625 -1.90625 0.90625 -1.921875 0.953125 -2.109375 C 1.078125 -2.59375 1.21875 -2.875 1.4375 -2.875 C 1.65625 -2.875 1.65625 -2.625 1.65625 -2.53125 C 1.65625 -2.46875 1.65625 -2.40625 1.625 -2.296875 L 0.828125 0.859375 C 0.765625 1.0625 0.734375 1.09375 0.46875 1.09375 C 0.375 1.09375 0.28125 1.09375 0.28125 1.25 C 0.28125 1.3125 0.328125 1.34375 0.390625 1.34375 C 0.5625 1.34375 0.78125 1.328125 0.984375 1.328125 C 1.21875 1.328125 1.46875 1.34375 1.703125 1.34375 C 1.734375 1.34375 1.84375 1.34375 1.84375 1.203125 C 1.84375 1.09375 1.765625 1.09375 1.640625 1.09375 C 1.515625 1.09375 1.3125 1.09375 1.3125 1.015625 C 1.3125 0.96875 1.359375 0.8125 1.390625 0.703125 L 1.640625 -0.3125 C 1.75 -0.171875 1.96875 0.0625 2.34375 0.0625 C 3.21875 0.0625 4.109375 -0.921875 4.109375 -1.921875 Z M 3.578125 -2.21875 C 3.578125 -1.875 3.375 -1.109375 3.203125 -0.796875 C 2.90625 -0.25 2.546875 -0.125 2.34375 -0.125 C 1.875 -0.125 1.765625 -0.703125 1.765625 -0.796875 C 1.765625 -0.828125 1.78125 -0.84375 1.796875 -0.90625 L 2.078125 -2.046875 C 2.15625 -2.3125 2.640625 -2.875 3.078125 -2.875 C 3.40625 -2.875 3.578125 -2.578125 3.578125 -2.21875 Z M 3.578125 -2.21875 "/>
</g>
<g id="glyph-2-1">
<path d="M 3.96875 -2.59375 C 3.96875 -2.9375 3.53125 -3.0625 3.109375 -3.0625 C 2.921875 -3.0625 2.546875 -3.046875 2.140625 -2.59375 C 2.015625 -2.96875 1.65625 -3.0625 1.453125 -3.0625 C 1.15625 -3.0625 1 -2.875 0.890625 -2.703125 C 0.734375 -2.46875 0.625 -2.046875 0.625 -2 C 0.625 -1.90625 0.71875 -1.90625 0.765625 -1.90625 C 0.90625 -1.90625 0.90625 -1.921875 0.953125 -2.109375 C 1.078125 -2.59375 1.21875 -2.875 1.4375 -2.875 C 1.65625 -2.875 1.65625 -2.625 1.65625 -2.53125 C 1.65625 -2.40625 1.5625 -2.046875 1.5 -1.8125 L 1.3125 -1.0625 C 1.28125 -0.953125 1.21875 -0.6875 1.1875 -0.578125 C 1.15625 -0.4375 1.078125 -0.1875 1.078125 -0.140625 C 1.078125 0.015625 1.203125 0.0625 1.3125 0.0625 C 1.46875 0.0625 1.546875 -0.046875 1.578125 -0.09375 C 1.609375 -0.140625 1.671875 -0.390625 1.703125 -0.546875 L 1.890625 -1.296875 C 1.921875 -1.453125 1.96875 -1.59375 2 -1.75 C 2.046875 -1.90625 2.125 -2.21875 2.4375 -2.5625 C 2.578125 -2.71875 2.78125 -2.875 3.09375 -2.875 C 3.171875 -2.875 3.421875 -2.859375 3.578125 -2.75 C 3.4375 -2.6875 3.375 -2.5625 3.375 -2.4375 C 3.375 -2.25 3.53125 -2.203125 3.625 -2.203125 C 3.75 -2.203125 3.96875 -2.296875 3.96875 -2.59375 Z M 3.96875 -2.59375 "/>
</g>
<g id="glyph-2-2">
<path d="M 4.109375 -1.875 C 4.109375 -2.546875 3.625 -3.0625 2.890625 -3.0625 C 1.875 -3.0625 0.921875 -2.09375 0.921875 -1.125 C 0.921875 -0.421875 1.4375 0.0625 2.140625 0.0625 C 3.15625 0.0625 4.109375 -0.90625 4.109375 -1.875 Z M 3.546875 -2.109375 C 3.546875 -1.875 3.4375 -1.203125 3.140625 -0.734375 C 2.921875 -0.390625 2.515625 -0.125 2.140625 -0.125 C 1.9375 -0.125 1.484375 -0.21875 1.484375 -0.890625 C 1.484375 -1.203125 1.625 -1.921875 1.96875 -2.359375 C 2.21875 -2.6875 2.578125 -2.875 2.890625 -2.875 C 3.140625 -2.875 3.546875 -2.71875 3.546875 -2.109375 Z M 3.546875 -2.109375 "/>
</g>
<g id="glyph-2-3">
<path d="M 6.90625 -1 C 6.90625 -1.078125 6.8125 -1.078125 6.765625 -1.078125 C 6.625 -1.078125 6.625 -1.0625 6.59375 -0.9375 C 6.46875 -0.5 6.21875 -0.125 5.90625 -0.125 C 5.796875 -0.125 5.71875 -0.171875 5.71875 -0.359375 C 5.71875 -0.515625 5.78125 -0.671875 5.84375 -0.828125 C 5.96875 -1.15625 6.265625 -1.90625 6.265625 -2.296875 C 6.265625 -2.84375 5.890625 -3.0625 5.390625 -3.0625 C 4.859375 -3.0625 4.46875 -2.765625 4.1875 -2.40625 C 4.125 -2.96875 3.640625 -3.0625 3.3125 -3.0625 C 2.6875 -3.0625 2.3125 -2.65625 2.15625 -2.46875 C 2.109375 -2.90625 1.734375 -3.0625 1.453125 -3.0625 C 1.15625 -3.0625 1 -2.875 0.890625 -2.703125 C 0.734375 -2.46875 0.625 -2.046875 0.625 -2 C 0.625 -1.90625 0.71875 -1.90625 0.765625 -1.90625 C 0.90625 -1.90625 0.90625 -1.921875 0.953125 -2.109375 C 1.078125 -2.59375 1.21875 -2.875 1.4375 -2.875 C 1.65625 -2.875 1.65625 -2.625 1.65625 -2.53125 C 1.65625 -2.40625 1.5625 -2.046875 1.5 -1.8125 L 1.3125 -1.0625 C 1.28125 -0.953125 1.21875 -0.6875 1.1875 -0.578125 C 1.15625 -0.4375 1.078125 -0.1875 1.078125 -0.140625 C 1.078125 0.015625 1.203125 0.0625 1.3125 0.0625 C 1.546875 0.0625 1.59375 -0.140625 1.625 -0.25 L 1.78125 -0.859375 L 2.015625 -1.796875 C 2.015625 -1.796875 2.25 -2.34375 2.578125 -2.59375 C 2.671875 -2.671875 2.921875 -2.875 3.296875 -2.875 C 3.625 -2.875 3.703125 -2.609375 3.703125 -2.390625 C 3.703125 -2.234375 3.640625 -2.046875 3.609375 -1.859375 L 3.4375 -1.203125 L 3.28125 -0.609375 C 3.234375 -0.453125 3.171875 -0.1875 3.171875 -0.140625 C 3.171875 0.015625 3.28125 0.0625 3.390625 0.0625 C 3.625 0.0625 3.6875 -0.140625 3.703125 -0.25 L 3.875 -0.859375 C 3.890625 -0.96875 3.96875 -1.234375 3.984375 -1.328125 C 4.015625 -1.40625 4.09375 -1.75 4.109375 -1.796875 C 4.125 -1.84375 4.328125 -2.296875 4.625 -2.5625 C 4.84375 -2.75 5.09375 -2.875 5.375 -2.875 C 5.703125 -2.875 5.78125 -2.625 5.78125 -2.40625 C 5.78125 -1.984375 5.4375 -1.140625 5.3125 -0.828125 C 5.25 -0.65625 5.25 -0.609375 5.25 -0.515625 C 5.25 -0.140625 5.546875 0.0625 5.875 0.0625 C 6.59375 0.0625 6.90625 -0.890625 6.90625 -1 Z M 6.90625 -1 "/>
</g>
<g id="glyph-2-4">
<path d="M 2.9375 -1 C 2.9375 -1.078125 2.859375 -1.078125 2.796875 -1.078125 C 2.6875 -1.078125 2.6875 -1.078125 2.640625 -0.96875 C 2.3125 -0.234375 1.9375 -0.125 1.75 -0.125 C 1.5 -0.125 1.5 -0.375 1.5 -0.453125 C 1.5 -0.5625 1.546875 -0.71875 1.546875 -0.734375 L 2.0625 -2.75 L 2.765625 -2.75 C 2.890625 -2.75 2.96875 -2.75 2.96875 -2.90625 C 2.96875 -3 2.890625 -3 2.78125 -3 L 2.125 -3 L 2.375 -4 C 2.40625 -4.09375 2.40625 -4.109375 2.40625 -4.140625 C 2.40625 -4.265625 2.3125 -4.34375 2.171875 -4.34375 C 1.9375 -4.34375 1.875 -4.109375 1.859375 -4.046875 L 1.59375 -3 L 0.890625 -3 C 0.765625 -3 0.6875 -3 0.6875 -2.84375 C 0.6875 -2.75 0.765625 -2.75 0.875 -2.75 L 1.53125 -2.75 L 1.046875 -0.828125 C 1 -0.6875 1 -0.625 1 -0.578125 C 1 -0.15625 1.359375 0.0625 1.71875 0.0625 C 2.484375 0.0625 2.9375 -0.890625 2.9375 -1 Z M 2.9375 -1 "/>
</g>
<g id="glyph-3-0">
<path d="M 5.65625 -1.734375 C 5.65625 -3.171875 4.5 -4.296875 3.09375 -4.296875 C 1.6875 -4.296875 0.546875 -3.15625 0.546875 -1.75 C 0.546875 -0.3125 1.703125 0.828125 3.09375 0.828125 C 4.515625 0.828125 5.65625 -0.328125 5.65625 -1.734375 Z M 2.984375 -1.859375 L 0.78125 -1.859375 C 0.859375 -3.15625 1.890625 -4.015625 2.984375 -4.0625 Z M 5.421875 -1.859375 L 3.21875 -1.859375 L 3.21875 -4.0625 C 4.3125 -4.015625 5.34375 -3.15625 5.421875 -1.859375 Z M 2.984375 0.578125 C 1.859375 0.53125 0.84375 -0.375 0.78125 -1.625 L 2.984375 -1.625 Z M 5.421875 -1.625 C 5.359375 -0.375 4.34375 0.53125 3.21875 0.578125 L 3.21875 -1.625 Z M 5.421875 -1.625 "/>
</g>
<g id="glyph-3-1">
<path d="M 1.578125 -1.734375 C 1.578125 -1.984375 1.390625 -2.140625 1.1875 -2.140625 C 0.9375 -2.140625 0.78125 -1.953125 0.78125 -1.75 C 0.78125 -1.5 0.96875 -1.34375 1.171875 -1.34375 C 1.421875 -1.34375 1.578125 -1.53125 1.578125 -1.734375 Z M 1.578125 -1.734375 "/>
</g>
<g id="glyph-3-2">
<path d="M 1.34375 1.484375 L 1.34375 -4.953125 C 1.34375 -5.046875 1.34375 -5.21875 1.1875 -5.21875 C 1.015625 -5.21875 1.015625 -5.0625 1.015625 -4.953125 L 1.015625 1.484375 C 1.015625 1.578125 1.015625 1.734375 1.171875 1.734375 C 1.34375 1.734375 1.34375 1.578125 1.34375 1.484375 Z M 1.34375 1.484375 "/>
</g>
<g id="glyph-4-0">
<path d="M 3.546875 -3.390625 C 3.546875 -4.109375 3.28125 -4.890625 2.59375 -4.890625 C 1.546875 -4.890625 0.4375 -3.03125 0.4375 -1.4375 C 0.4375 -0.609375 0.765625 0.0625 1.390625 0.0625 C 2.453125 0.0625 3.546875 -1.828125 3.546875 -3.390625 Z M 2.828125 -2.53125 L 1.21875 -2.53125 C 1.578125 -4.046875 2.171875 -4.703125 2.59375 -4.703125 C 3.03125 -4.703125 3.03125 -3.921875 3.03125 -3.796875 C 3.03125 -3.53125 2.96875 -3.125 2.828125 -2.53125 Z M 2.765625 -2.28125 C 2.578125 -1.53125 2.40625 -1.15625 2.203125 -0.8125 C 1.984375 -0.453125 1.703125 -0.125 1.40625 -0.125 C 1.015625 -0.125 0.953125 -0.65625 0.953125 -1.03125 C 0.953125 -1.484375 1.09375 -2.03125 1.15625 -2.28125 Z M 2.765625 -2.28125 "/>
</g>
<g id="glyph-5-0">
<path d="M 1.828125 -2.140625 C 1.84375 -2.140625 2 -2.140625 2.015625 -2.140625 L 2.25 -2.140625 C 3.65625 -2.140625 4.171875 -2.796875 4.171875 -3.453125 C 4.171875 -4.4375 3.28125 -4.765625 2.375 -4.765625 L 0.34375 -4.765625 C 0.21875 -4.765625 0.109375 -4.765625 0.109375 -4.640625 C 0.109375 -4.515625 0.25 -4.515625 0.296875 -4.515625 C 0.65625 -4.515625 0.6875 -4.46875 0.6875 -4.125 L 0.6875 -0.640625 C 0.6875 -0.296875 0.65625 -0.25 0.3125 -0.25 C 0.234375 -0.25 0.109375 -0.25 0.109375 -0.125 C 0.109375 0 0.21875 0 0.34375 0 L 2.21875 0 C 2.34375 0 2.4375 0 2.4375 -0.125 C 2.4375 -0.25 2.328125 -0.25 2.25 -0.25 C 1.84375 -0.25 1.828125 -0.296875 1.828125 -0.640625 Z M 2.96875 -2.453125 C 3.1875 -2.75 3.21875 -3.1875 3.21875 -3.46875 C 3.21875 -3.828125 3.171875 -4.203125 3 -4.453125 C 3.375 -4.359375 3.921875 -4.15625 3.921875 -3.453125 C 3.921875 -2.96875 3.609375 -2.609375 2.96875 -2.453125 Z M 1.828125 -4.140625 C 1.828125 -4.28125 1.828125 -4.515625 2.234375 -4.515625 C 2.734375 -4.515625 2.96875 -4.328125 2.96875 -3.46875 C 2.96875 -2.46875 2.59375 -2.390625 2.171875 -2.390625 L 1.828125 -2.390625 Z M 0.875 -0.25 C 0.9375 -0.375 0.9375 -0.53125 0.9375 -0.625 L 0.9375 -4.140625 C 0.9375 -4.234375 0.9375 -4.390625 0.875 -4.515625 L 1.671875 -4.515625 C 1.578125 -4.40625 1.578125 -4.265625 1.578125 -4.171875 L 1.578125 -0.625 C 1.578125 -0.5625 1.578125 -0.375 1.640625 -0.25 Z M 0.875 -0.25 "/>
</g>
<g id="glyph-6-0">
<path d="M 3 -2.359375 C 3 -2.953125 2.734375 -3.5 2.1875 -3.5 C 1.390625 -3.5 0.53125 -2.25 0.53125 -1.09375 C 0.53125 -0.421875 0.859375 0.046875 1.34375 0.046875 C 2.15625 0.046875 3 -1.234375 3 -2.359375 Z M 2.453125 -1.84375 L 1.140625 -1.84375 C 1.453125 -3.078125 1.953125 -3.328125 2.1875 -3.328125 C 2.46875 -3.328125 2.578125 -3.015625 2.578125 -2.625 C 2.578125 -2.484375 2.5625 -2.28125 2.453125 -1.84375 Z M 2.40625 -1.609375 C 2.109375 -0.421875 1.59375 -0.109375 1.34375 -0.109375 C 0.984375 -0.109375 0.953125 -0.671875 0.953125 -0.8125 C 0.953125 -1.015625 0.984375 -1.234375 1.078125 -1.609375 Z M 2.40625 -1.609375 "/>
</g>
<g id="glyph-7-0">
<path d="M 2.65625 1.640625 C 2.65625 1.609375 2.640625 1.59375 2.59375 1.546875 C 1.640625 0.703125 1.296875 -0.46875 1.296875 -1.734375 C 1.296875 -3.609375 2.03125 -4.53125 2.609375 -5.046875 C 2.640625 -5.078125 2.65625 -5.09375 2.65625 -5.125 C 2.65625 -5.21875 2.578125 -5.21875 2.515625 -5.21875 C 1.171875 -4.28125 0.8125 -2.8125 0.8125 -1.75 C 0.8125 -0.765625 1.109375 0.765625 2.515625 1.734375 C 2.578125 1.734375 2.65625 1.734375 2.65625 1.640625 Z M 2.65625 1.640625 "/>
</g>
<g id="glyph-7-1">
<path d="M 2.34375 -1.734375 C 2.34375 -2.71875 2.046875 -4.234375 0.640625 -5.21875 C 0.59375 -5.21875 0.5 -5.21875 0.5 -5.125 C 0.5 -5.09375 0.53125 -5.078125 0.5625 -5.03125 C 1.171875 -4.484375 1.859375 -3.546875 1.859375 -1.75 C 1.859375 -0.296875 1.390625 0.8125 0.625 1.484375 C 0.515625 1.609375 0.5 1.609375 0.5 1.640625 C 0.5 1.6875 0.53125 1.734375 0.59375 1.734375 C 0.6875 1.734375 1.359375 1.265625 1.828125 0.40625 C 2.140625 -0.171875 2.34375 -0.921875 2.34375 -1.734375 Z M 2.34375 -1.734375 "/>
</g>
</g>
<clipPath id="clip-0">
<path clip-rule="nonzero" d="M 0.503906 0 L 77 0 L 77 31 L 0.503906 31 Z M 0.503906 0 "/>
</clipPath>
<clipPath id="clip-1">
<path clip-rule="nonzero" d="M 0.503906 34 L 77 34 L 77 55.59375 L 0.503906 55.59375 Z M 0.503906 34 "/>
</clipPath>
<clipPath id="clip-2">
<path clip-rule="nonzero" d="M 302 13 L 378.757812 13 L 378.757812 47 L 302 47 Z M 302 13 "/>
</clipPath>
</defs>
<path fill-rule="nonzero" fill="rgb(88.069153%, 94.706726%, 98.446655%)" fill-opacity="1" d="M 66.964844 3.175781 L 7.652344 3.175781 C 5.457031 3.175781 3.679688 4.953125 3.679688 7.144531 L 3.679688 21.199219 C 3.679688 23.394531 5.457031 25.171875 7.652344 25.171875 L 66.964844 25.171875 C 69.15625 25.171875 70.933594 23.394531 70.933594 21.199219 L 70.933594 7.144531 C 70.933594 4.953125 69.15625 3.175781 66.964844 3.175781 Z M 66.964844 3.175781 "/>
<g clip-path="url(#clip-0)">
<path fill="none" stroke-width="0.3985" stroke-linecap="butt" stroke-linejoin="miter" stroke="rgb(0%, 0%, 0%)" stroke-opacity="1" stroke-miterlimit="10" d="M 29.765892 11.037665 L -29.762398 11.037665 C -31.965698 11.037665 -33.749508 9.253855 -33.749508 7.054476 L -33.749508 -7.051346 C -33.749508 -9.254645 -31.965698 -11.038455 -29.762398 -11.038455 L 29.765892 -11.038455 C 31.965271 -11.038455 33.749081 -9.254645 33.749081 -7.051346 L 33.749081 7.054476 C 33.749081 9.253855 31.965271 11.037665 29.765892 11.037665 Z M 29.765892 11.037665 " transform="matrix(0.996375, 0, 0, -0.996375, 37.306853, 14.173434)"/>
</g>
<g fill="rgb(0%, 0%, 0%)" fill-opacity="1">
<use xlink:href="#glyph-0-0" x="18.889858" y="11.522081"/>
<use xlink:href="#glyph-0-1" x="22.489594" y="11.522081"/>
<use xlink:href="#glyph-0-2" x="26.525211" y="11.522081"/>
</g>
<g fill="rgb(0%, 0%, 0%)" fill-opacity="1">
<use xlink:href="#glyph-0-3" x="30.784793" y="11.522081"/>
<use xlink:href="#glyph-0-4" x="33.948649" y="11.522081"/>
<use xlink:href="#glyph-0-5" x="37.548385" y="11.522081"/>
<use xlink:href="#glyph-0-3" x="41.802297" y="11.522081"/>
<use xlink:href="#glyph-0-1" x="44.966152" y="11.522081"/>
</g>
<g fill="rgb(0%, 0%, 0%)" fill-opacity="1">
<use xlink:href="#glyph-1-0" x="51.639708" y="11.522081"/>
</g>
<g fill="rgb(0%, 0%, 0%)" fill-opacity="1">
<use xlink:href="#glyph-0-6" x="16.930985" y="19.463189"/>
<use xlink:href="#glyph-0-4" x="20.09484" y="19.463189"/>
<use xlink:href="#glyph-0-7" x="23.694577" y="19.463189"/>
</g>
<g fill="rgb(0%, 0%, 0%)" fill-opacity="1">
<use xlink:href="#glyph-2-0" x="28.625438" y="19.463189"/>
<use xlink:href="#glyph-2-1" x="32.900612" y="19.463189"/>
</g>
<g fill="rgb(0%, 0%, 0%)" fill-opacity="1">
<use xlink:href="#glyph-2-2" x="36.036118" y="19.463189"/>
<use xlink:href="#glyph-2-3" x="40.311292" y="19.463189"/>
<use xlink:href="#glyph-2-0" x="47.084098" y="19.463189"/>
<use xlink:href="#glyph-2-4" x="51.359272" y="19.463189"/>
</g>
<g fill="rgb(0%, 0%, 0%)" fill-opacity="1">
<use xlink:href="#glyph-0-8" x="54.518235" y="19.463189"/>
</g>
<path fill-rule="nonzero" fill="rgb(88.069153%, 94.706726%, 98.446655%)" fill-opacity="1" d="M 66.964844 39.691406 L 7.652344 39.691406 C 5.457031 39.691406 3.679688 41.46875 3.679688 43.660156 L 3.679688 48.449219 C 3.679688 50.640625 5.457031 52.417969 7.652344 52.417969 L 66.964844 52.417969 C 69.15625 52.417969 70.933594 50.640625 70.933594 48.449219 L 70.933594 43.660156 C 70.933594 41.46875 69.15625 39.691406 66.964844 39.691406 Z M 66.964844 39.691406 "/>
<g clip-path="url(#clip-1)">
<path fill="none" stroke-width="0.3985" stroke-linecap="butt" stroke-linejoin="miter" stroke="rgb(0%, 0%, 0%)" stroke-opacity="1" stroke-miterlimit="10" d="M 29.765892 -25.610811 L -29.762398 -25.610811 C -31.965698 -25.610811 -33.749508 -27.394621 -33.749508 -29.594 L -33.749508 -34.400486 C -33.749508 -36.599865 -31.965698 -38.383675 -29.762398 -38.383675 L 29.765892 -38.383675 C 31.965271 -38.383675 33.749081 -36.599865 33.749081 -34.400486 L 33.749081 -29.594 C 33.749081 -27.394621 31.965271 -25.610811 29.765892 -25.610811 Z M 29.765892 -25.610811 " transform="matrix(0.996375, 0, 0, -0.996375, 37.306853, 14.173434)"/>
</g>
<g fill="rgb(0%, 0%, 0%)" fill-opacity="1">
<use xlink:href="#glyph-0-4" x="20.320652" y="48.447738"/>
<use xlink:href="#glyph-0-2" x="23.920389" y="48.447738"/>
</g>
<g fill="rgb(0%, 0%, 0%)" fill-opacity="1">
<use xlink:href="#glyph-0-3" x="28.17997" y="48.447738"/>
<use xlink:href="#glyph-0-9" x="31.343826" y="48.447738"/>
<use xlink:href="#glyph-0-10" x="34.507682" y="48.447738"/>
<use xlink:href="#glyph-0-11" x="38.543299" y="48.447738"/>
<use xlink:href="#glyph-0-10" x="43.015505" y="48.447738"/>
</g>
<g fill="rgb(0%, 0%, 0%)" fill-opacity="1">
<use xlink:href="#glyph-1-1" x="49.687809" y="48.447738"/>
</g>
<path fill-rule="nonzero" fill="rgb(97.941589%, 96.29364%, 74.058533%)" fill-opacity="1" stroke-width="0.3985" stroke-linecap="butt" stroke-linejoin="miter" stroke="rgb(0%, 0%, 0%)" stroke-opacity="1" stroke-miterlimit="10" d="M 47.941152 -15.997839 C 47.941152 -13.002606 45.514386 -10.575841 42.519154 -10.575841 C 39.523921 -10.575841 37.097155 -13.002606 37.097155 -15.997839 C 37.097155 -18.993072 39.523921 -21.419838 42.519154 -21.419838 C 45.514386 -21.419838 47.941152 -18.993072 47.941152 -15.997839 Z M 47.941152 -15.997839 " transform="matrix(0.996375, 0, 0, -0.996375, 37.306853, 14.173434)"/>
<g fill="rgb(0%, 0%, 0%)" fill-opacity="1">
<use xlink:href="#glyph-3-0" x="76.570007" y="31.85112"/>
</g>
<path fill-rule="nonzero" fill="rgb(88.069153%, 94.706726%, 98.446655%)" fill-opacity="1" stroke-width="0.3985" stroke-linecap="butt" stroke-linejoin="miter" stroke="rgb(0%, 0%, 0%)" stroke-opacity="1" stroke-miterlimit="10" d="M 137.366883 -4.753955 L 77.838593 -4.753955 C 75.639214 -4.753955 73.855404 -6.537765 73.855404 -8.741064 L 73.855404 -23.258534 C 73.855404 -25.457913 75.639214 -27.241723 77.838593 -27.241723 L 137.366883 -27.241723 C 139.570182 -27.241723 141.353992 -25.457913 141.353992 -23.258534 L 141.353992 -8.741064 C 141.353992 -6.537765 139.570182 -4.753955 137.366883 -4.753955 Z M 137.366883 -4.753955 " transform="matrix(0.996375, 0, 0, -0.996375, 37.306853, 14.173434)"/>
<g fill="rgb(0%, 0%, 0%)" fill-opacity="1">
<use xlink:href="#glyph-0-12" x="138.373155" y="27.668337"/>
<use xlink:href="#glyph-0-13" x="143.379758" y="27.668337"/>
</g>
<g fill="rgb(0%, 0%, 0%)" fill-opacity="1">
<use xlink:href="#glyph-0-6" x="132.472622" y="35.609446"/>
</g>
<g fill="rgb(0%, 0%, 0%)" fill-opacity="1">
<use xlink:href="#glyph-4-0" x="135.637109" y="35.609446"/>
</g>
<g fill="rgb(0%, 0%, 0%)" fill-opacity="1">
<use xlink:href="#glyph-0-14" x="142.268981" y="35.609446"/>
<use xlink:href="#glyph-0-15" x="146.853879" y="35.609446"/>
<use xlink:href="#glyph-0-1" x="149.364268" y="35.609446"/>
<use xlink:href="#glyph-0-8" x="153.399885" y="35.609446"/>
</g>
<path fill-rule="nonzero" fill="rgb(88.069153%, 94.706726%, 98.446655%)" fill-opacity="1" stroke-width="0.3985" stroke-linecap="butt" stroke-linejoin="miter" stroke="rgb(0%, 0%, 0%)" stroke-opacity="1" stroke-miterlimit="10" d="M 242.113778 -8.525439 L 171.247513 -8.525439 C 169.048134 -8.525439 167.264324 -10.309249 167.264324 -12.512549 L 167.264324 -19.48705 C 167.264324 -21.686429 169.048134 -23.470239 171.247513 -23.470239 L 242.113778 -23.470239 C 244.317077 -23.470239 246.100887 -21.686429 246.100887 -19.48705 L 246.100887 -12.512549 C 246.100887 -10.309249 244.317077 -8.525439 242.113778 -8.525439 Z M 242.113778 -8.525439 " transform="matrix(0.996375, 0, 0, -0.996375, 37.306853, 14.173434)"/>
<g fill="rgb(0%, 0%, 0%)" fill-opacity="1">
<use xlink:href="#glyph-5-0" x="220.001177" y="31.85112"/>
</g>
<g fill="rgb(0%, 0%, 0%)" fill-opacity="1">
<use xlink:href="#glyph-6-0" x="224.247727" y="32.904288"/>
</g>
<g fill="rgb(0%, 0%, 0%)" fill-opacity="1">
<use xlink:href="#glyph-7-0" x="228.277068" y="31.85112"/>
</g>
<g fill="rgb(0%, 0%, 0%)" fill-opacity="1">
<use xlink:href="#glyph-3-1" x="231.440558" y="31.85112"/>
</g>
<g fill="rgb(0%, 0%, 0%)" fill-opacity="1">
<use xlink:href="#glyph-3-2" x="237.779693" y="31.85112"/>
</g>
<g fill="rgb(0%, 0%, 0%)" fill-opacity="1">
<use xlink:href="#glyph-1-0" x="244.121423" y="31.85112"/>
</g>
<g fill="rgb(0%, 0%, 0%)" fill-opacity="1">
<use xlink:href="#glyph-3-0" x="250.701483" y="31.85112"/>
</g>
<g fill="rgb(0%, 0%, 0%)" fill-opacity="1">
<use xlink:href="#glyph-1-1" x="259.402826" y="31.85112"/>
</g>
<g fill="rgb(0%, 0%, 0%)" fill-opacity="1">
<use xlink:href="#glyph-7-1" x="264.241223" y="31.85112"/>
</g>
<path fill-rule="nonzero" fill="rgb(81.999207%, 93.151855%, 90.116882%)" fill-opacity="1" d="M 371.613281 18.910156 L 312.300781 18.910156 C 310.109375 18.910156 308.332031 20.6875 308.332031 22.882812 L 308.332031 37.347656 C 308.332031 39.539062 310.109375 41.316406 312.300781 41.316406 L 371.613281 41.316406 C 373.808594 41.316406 375.585938 39.539062 375.585938 37.347656 L 375.585938 22.882812 C 375.585938 20.6875 373.808594 18.910156 371.613281 18.910156 Z M 371.613281 18.910156 "/>
<g clip-path="url(#clip-2)">
<path fill="none" stroke-width="0.3985" stroke-linecap="butt" stroke-linejoin="miter" stroke="rgb(0%, 0%, 0%)" stroke-opacity="1" stroke-miterlimit="10" d="M 335.522698 -4.753955 L 275.994408 -4.753955 C 273.795029 -4.753955 272.011219 -6.537765 272.011219 -8.741064 L 272.011219 -23.258534 C 272.011219 -25.457913 273.795029 -27.241723 275.994408 -27.241723 L 335.522698 -27.241723 C 337.725997 -27.241723 339.509807 -25.457913 339.509807 -23.258534 L 339.509807 -8.741064 C 339.509807 -6.537765 337.725997 -4.753955 335.522698 -4.753955 Z M 335.522698 -4.753955 " transform="matrix(0.996375, 0, 0, -0.996375, 37.306853, 14.173434)"/>
</g>
<g fill="rgb(0%, 0%, 0%)" fill-opacity="1">
<use xlink:href="#glyph-0-16" x="328.215473" y="27.668337"/>
<use xlink:href="#glyph-0-10" x="331.423271" y="27.668337"/>
<use xlink:href="#glyph-0-7" x="335.458888" y="27.668337"/>
<use xlink:href="#glyph-0-17" x="337.750983" y="27.668337"/>
<use xlink:href="#glyph-0-11" x="340.043077" y="27.668337"/>
<use xlink:href="#glyph-0-10" x="344.515283" y="27.668337"/>
</g>
<g fill="rgb(0%, 0%, 0%)" fill-opacity="1">
<use xlink:href="#glyph-1-2" x="351.188891" y="27.668337"/>
</g>
<g fill="rgb(0%, 0%, 0%)" fill-opacity="1">
<use xlink:href="#glyph-0-6" x="322.949631" y="35.609446"/>
<use xlink:href="#glyph-0-18" x="326.113487" y="35.609446"/>
</g>
<g fill="rgb(0%, 0%, 0%)" fill-opacity="1">
<use xlink:href="#glyph-0-19" x="332.552472" y="35.609446"/>
<use xlink:href="#glyph-0-4" x="337.024678" y="35.609446"/>
<use xlink:href="#glyph-0-16" x="340.624415" y="35.609446"/>
<use xlink:href="#glyph-0-3" x="343.832213" y="35.609446"/>
<use xlink:href="#glyph-0-9" x="346.996068" y="35.609446"/>
<use xlink:href="#glyph-0-4" x="350.159924" y="35.609446"/>
<use xlink:href="#glyph-0-1" x="353.759661" y="35.609446"/>
<use xlink:href="#glyph-0-8" x="357.795278" y="35.609446"/>
</g>
<path fill="none" stroke-width="0.79701" stroke-linecap="butt" stroke-linejoin="miter" stroke="rgb(0%, 0%, 0%)" stroke-opacity="1" stroke-miterlimit="10" d="M 29.863903 -11.238399 L 32.325953 -12.163628 " transform="matrix(0.996375, 0, 0, -0.996375, 37.306853, 14.173434)"/>
<path fill-rule="nonzero" fill="rgb(0%, 0%, 0%)" fill-opacity="1" stroke-width="0.79701" stroke-linecap="butt" stroke-linejoin="miter" stroke="rgb(0%, 0%, 0%)" stroke-opacity="1" stroke-miterlimit="10" d="M 3.628625 -0.00111348 C 3.18386 0.112263 1.22429 0.74502 -0.00158062 1.431709 L -0.000673248 -1.433086 C 1.222502 -0.742675 3.183614 -0.109836 3.628625 -0.00111348 Z M 3.628625 -0.00111348 " transform="matrix(0.932547, 0.350724, 0.350724, -0.932547, 69.514964, 26.292722)"/>
<path fill="none" stroke-width="0.79701" stroke-linecap="butt" stroke-linejoin="miter" stroke="rgb(0%, 0%, 0%)" stroke-opacity="1" stroke-miterlimit="10" d="M 17.502688 -25.410868 L 32.325953 -19.832051 " transform="matrix(0.996375, 0, 0, -0.996375, 37.306853, 14.173434)"/>
<path fill-rule="nonzero" fill="rgb(0%, 0%, 0%)" fill-opacity="1" stroke-width="0.79701" stroke-linecap="butt" stroke-linejoin="miter" stroke="rgb(0%, 0%, 0%)" stroke-opacity="1" stroke-miterlimit="10" d="M 3.627632 -0.0013221 C 3.184012 0.111108 1.222954 0.744115 -0.00154273 1.43096 L -0.00131441 -1.430165 C 1.224615 -0.74358 3.184239 -0.110991 3.627632 -0.0013221 Z M 3.627632 -0.0013221 " transform="matrix(0.932517, -0.350804, -0.350804, -0.932517, 69.515144, 33.935417)"/>
<path fill="none" stroke-width="0.79701" stroke-linecap="butt" stroke-linejoin="miter" stroke="rgb(0%, 0%, 0%)" stroke-opacity="1" stroke-miterlimit="10" d="M 48.141096 -15.997839 L 68.382439 -15.997839 " transform="matrix(0.996375, 0, 0, -0.996375, 37.306853, 14.173434)"/>
<path fill-rule="nonzero" fill="rgb(0%, 0%, 0%)" fill-opacity="1" stroke-width="0.79701" stroke-linecap="butt" stroke-linejoin="miter" stroke="rgb(0%, 0%, 0%)" stroke-opacity="1" stroke-miterlimit="10" d="M 3.629187 0.000570958 C 3.182254 0.110344 1.222023 0.745459 -0.00116078 1.431539 L -0.00116078 -1.430398 C 1.222023 -0.744317 3.182254 -0.113122 3.629187 0.000570958 Z M 3.629187 0.000570958 " transform="matrix(0.996375, 0, 0, -0.996375, 105.442563, 30.11385)"/>
<path fill="none" stroke-width="0.79701" stroke-linecap="butt" stroke-linejoin="miter" stroke="rgb(0%, 0%, 0%)" stroke-opacity="1" stroke-miterlimit="10" d="M 141.550015 -15.997839 L 161.791359 -15.997839 " transform="matrix(0.996375, 0, 0, -0.996375, 37.306853, 14.173434)"/>
<path fill-rule="nonzero" fill="rgb(0%, 0%, 0%)" fill-opacity="1" stroke-width="0.79701" stroke-linecap="butt" stroke-linejoin="miter" stroke="rgb(0%, 0%, 0%)" stroke-opacity="1" stroke-miterlimit="10" d="M 3.628787 0.000570958 C 3.181854 0.110344 1.225544 0.745459 -0.00156095 1.431539 L -0.00156095 -1.430398 C 1.225544 -0.744317 3.181854 -0.113122 3.628787 0.000570958 Z M 3.628787 0.000570958 " transform="matrix(0.996375, 0, 0, -0.996375, 198.513274, 30.11385)"/>
<path fill="none" stroke-width="0.79701" stroke-linecap="butt" stroke-linejoin="miter" stroke="rgb(0%, 0%, 0%)" stroke-opacity="1" stroke-miterlimit="10" d="M 246.300831 -15.997839 L 266.542175 -15.997839 " transform="matrix(0.996375, 0, 0, -0.996375, 37.306853, 14.173434)"/>
<path fill-rule="nonzero" fill="rgb(0%, 0%, 0%)" fill-opacity="1" stroke-width="0.79701" stroke-linecap="butt" stroke-linejoin="miter" stroke="rgb(0%, 0%, 0%)" stroke-opacity="1" stroke-miterlimit="10" d="M 3.627802 0.000570958 C 3.180869 0.110344 1.224559 0.745459 0.00137451 1.431539 L 0.00137451 -1.430398 C 1.224559 -0.744317 3.180869 -0.113122 3.627802 0.000570958 Z M 3.627802 0.000570958 " transform="matrix(0.996375, 0, 0, -0.996375, 302.881443, 30.11385)"/>
</svg>
