<?xml version="1.0" encoding="UTF-8"?>
<svg xmlns="http://www.w3.org/2000/svg" xmlns:xlink="http://www.w3.org/1999/xlink" width="803.959" height="131.875" viewBox="0 0 365.436 59.943">
<defs>
<g>
<g id="glyph-0-0">
<path d="M 3.328125 -0.84375 C 3.328125 -0.921875 3.234375 -0.921875 3.203125 -0.921875 C 3.109375 -0.921875 3.109375 -0.90625 3.078125 -0.796875 C 2.921875 -0.375 2.53125 -0.15625 2.109375 -0.15625 C 1.609375 -0.15625 0.96875 -0.515625 0.96875 -1.515625 C 0.96875 -2.390625 1.421875 -2.890625 2.078125 -2.890625 C 2.171875 -2.890625 2.515625 -2.890625 2.765625 -2.78125 C 2.640625 -2.71875 2.5625 -2.609375 2.5625 -2.46875 C 2.5625 -2.28125 2.703125 -2.140625 2.90625 -2.140625 C 3.09375 -2.140625 3.234375 -2.265625 3.234375 -2.484375 C 3.234375 -3.109375 2.25 -3.109375 2.046875 -3.109375 C 0.984375 -3.109375 0.328125 -2.3125 0.328125 -1.5 C 0.328125 -0.625 1.09375 0.0625 2.015625 0.0625 C 3.078125 0.0625 3.328125 -0.75 3.328125 -0.84375 Z M 3.328125 -0.84375 "/>
</g>
<g id="glyph-0-1">
<path d="M 3.765625 -1.484375 C 3.765625 -2.359375 3 -3.109375 2.015625 -3.109375 C 1.03125 -3.109375 0.28125 -2.359375 0.28125 -1.484375 C 0.28125 -0.625 1.0625 0.0625 2.015625 0.0625 C 2.984375 0.0625 3.765625 -0.625 3.765625 -1.484375 Z M 3.109375 -1.546875 C 3.109375 -1.21875 3.09375 -0.84375 2.890625 -0.5625 C 2.6875 -0.296875 2.375 -0.15625 2.015625 -0.15625 C 1.75 -0.15625 1.375 -0.234375 1.140625 -0.578125 C 0.953125 -0.859375 0.921875 -1.21875 0.921875 -1.546875 C 0.921875 -1.84375 0.9375 -2.265625 1.1875 -2.5625 C 1.359375 -2.765625 1.65625 -2.90625 2.015625 -2.90625 C 2.4375 -2.90625 2.734375 -2.71875 2.890625 -2.5 C 3.09375 -2.234375 3.109375 -1.875 3.109375 -1.546875 Z M 3.109375 -1.546875 "/>
</g>
<g id="glyph-0-2">
<path d="M 4.1875 0 L 4.1875 -0.25 C 3.734375 -0.25 3.65625 -0.25 3.65625 -0.546875 L 3.65625 -2.109375 C 3.65625 -2.71875 3.359375 -3.078125 2.59375 -3.078125 C 2.015625 -3.078125 1.640625 -2.765625 1.4375 -2.390625 L 1.421875 -2.390625 L 1.421875 -3.078125 L 0.390625 -3 L 0.390625 -2.75 C 0.859375 -2.75 0.921875 -2.703125 0.921875 -2.359375 L 0.921875 -0.546875 C 0.921875 -0.25 0.84375 -0.25 0.390625 -0.25 L 0.390625 0 C 0.390625 0 0.890625 -0.03125 1.1875 -0.03125 C 1.453125 -0.03125 1.953125 0 2.015625 0 L 2.015625 -0.25 C 1.546875 -0.25 1.484375 -0.25 1.484375 -0.546875 L 1.484375 -1.8125 C 1.484375 -2.53125 2.0625 -2.875 2.53125 -2.875 C 3.03125 -2.875 3.09375 -2.5 3.09375 -2.140625 L 3.09375 -0.546875 C 3.09375 -0.25 3.03125 -0.25 2.5625 -0.25 L 2.5625 0 C 2.5625 0 3.078125 -0.03125 3.375 -0.03125 C 3.640625 -0.03125 4.125 0 4.1875 0 Z M 4.1875 0 "/>
</g>
<g id="glyph-0-3">
<path d="M 2.890625 -0.90625 C 2.890625 -1.171875 2.765625 -1.390625 2.59375 -1.546875 C 2.3125 -1.796875 1.984375 -1.859375 1.734375 -1.890625 C 1.171875 -2 0.71875 -2.078125 0.71875 -2.453125 C 0.71875 -2.671875 0.90625 -2.9375 1.578125 -2.9375 C 2.40625 -2.9375 2.4375 -2.375 2.453125 -2.171875 C 2.453125 -2.09375 2.546875 -2.09375 2.578125 -2.09375 C 2.6875 -2.09375 2.6875 -2.140625 2.6875 -2.28125 L 2.6875 -2.921875 C 2.6875 -3.046875 2.6875 -3.109375 2.59375 -3.109375 C 2.5625 -3.109375 2.546875 -3.109375 2.453125 -3.03125 C 2.4375 -3.015625 2.375 -2.953125 2.328125 -2.921875 C 2.109375 -3.0625 1.84375 -3.109375 1.578125 -3.109375 C 0.5625 -3.109375 0.3125 -2.578125 0.3125 -2.234375 C 0.3125 -2.015625 0.421875 -1.828125 0.59375 -1.6875 C 0.859375 -1.46875 1.125 -1.421875 1.578125 -1.34375 C 1.921875 -1.28125 2.5 -1.1875 2.5 -0.71875 C 2.5 -0.453125 2.3125 -0.125 1.625 -0.125 C 0.953125 -0.125 0.703125 -0.5625 0.5625 -1.03125 C 0.546875 -1.125 0.546875 -1.15625 0.4375 -1.15625 C 0.3125 -1.15625 0.3125 -1.109375 0.3125 -0.96875 L 0.3125 -0.109375 C 0.3125 0 0.3125 0.0625 0.421875 0.0625 C 0.484375 0.0625 0.625 -0.078125 0.765625 -0.234375 C 1.078125 0.0625 1.453125 0.0625 1.625 0.0625 C 2.546875 0.0625 2.890625 -0.421875 2.890625 -0.90625 Z M 2.890625 -0.90625 "/>
</g>
<g id="glyph-0-4">
<path d="M 4.1875 0 L 4.1875 -0.25 C 3.71875 -0.25 3.65625 -0.296875 3.65625 -0.640625 L 3.65625 -3.078125 L 2.5625 -3 L 2.5625 -2.75 C 3.046875 -2.75 3.09375 -2.703125 3.09375 -2.359375 L 3.09375 -1.15625 C 3.09375 -0.546875 2.6875 -0.125 2.15625 -0.125 C 1.5 -0.125 1.484375 -0.421875 1.484375 -0.78125 L 1.484375 -3.078125 L 0.390625 -3 L 0.390625 -2.75 C 0.921875 -2.75 0.921875 -2.71875 0.921875 -2.109375 L 0.921875 -1.0625 C 0.921875 -0.578125 0.921875 0.0625 2.109375 0.0625 C 2.265625 0.0625 2.78125 0.0625 3.125 -0.515625 L 3.125 0.0625 Z M 4.1875 0 "/>
</g>
<g id="glyph-0-5">
<path d="M 2 0 L 2 -0.25 C 1.53125 -0.25 1.46875 -0.25 1.46875 -0.546875 L 1.46875 -4.84375 L 0.390625 -4.765625 L 0.390625 -4.515625 C 0.875 -4.515625 0.9375 -4.453125 0.9375 -4.125 L 0.9375 -0.546875 C 0.9375 -0.25 0.859375 -0.25 0.390625 -0.25 L 0.390625 0 C 0.390625 0 0.90625 -0.03125 1.1875 -0.03125 C 1.46875 -0.03125 1.734375 -0.015625 2 0 Z M 2 0 "/>
</g>
<g id="glyph-0-6">
<path d="M 2.671875 -0.875 L 2.671875 -1.265625 L 2.421875 -1.265625 L 2.421875 -0.890625 C 2.421875 -0.40625 2.203125 -0.15625 1.921875 -0.15625 C 1.421875 -0.15625 1.421875 -0.734375 1.421875 -0.859375 L 1.421875 -2.75 L 2.53125 -2.75 L 2.53125 -3 L 1.421875 -3 L 1.421875 -4.28125 L 1.1875 -4.28125 C 1.1875 -3.65625 0.890625 -2.96875 0.203125 -2.953125 L 0.203125 -2.75 L 0.875 -2.75 L 0.875 -0.875 C 0.875 -0.09375 1.46875 0.0625 1.859375 0.0625 C 2.34375 0.0625 2.671875 -0.328125 2.671875 -0.875 Z M 2.671875 -0.875 "/>
</g>
<g id="glyph-0-7">
<path d="M 3.875 -0.625 L 3.875 -1.015625 L 3.625 -1.015625 L 3.625 -0.640625 C 3.625 -0.5625 3.625 -0.234375 3.359375 -0.234375 C 3.09375 -0.234375 3.09375 -0.5625 3.09375 -0.640625 L 3.09375 -1.875 C 3.09375 -2.234375 3.09375 -2.5 2.765625 -2.765625 C 2.484375 -3 2.140625 -3.109375 1.71875 -3.109375 C 1.046875 -3.109375 0.5625 -2.859375 0.5625 -2.4375 C 0.5625 -2.203125 0.71875 -2.09375 0.90625 -2.09375 C 1.109375 -2.09375 1.25 -2.234375 1.25 -2.421875 C 1.25 -2.53125 1.1875 -2.6875 1 -2.734375 C 1.25 -2.90625 1.65625 -2.90625 1.703125 -2.90625 C 2.109375 -2.90625 2.53125 -2.65625 2.53125 -2.0625 L 2.53125 -1.859375 C 2.140625 -1.84375 1.671875 -1.8125 1.15625 -1.625 C 0.515625 -1.40625 0.3125 -1.015625 0.3125 -0.703125 C 0.3125 -0.109375 1.0625 0.0625 1.5625 0.0625 C 2.140625 0.0625 2.46875 -0.25 2.609375 -0.515625 C 2.640625 -0.234375 2.84375 0.03125 3.15625 0.03125 C 3.15625 0.03125 3.875 0.03125 3.875 -0.625 Z M 2.53125 -0.984375 C 2.53125 -0.3125 1.9375 -0.125 1.625 -0.125 C 1.265625 -0.125 0.921875 -0.359375 0.921875 -0.703125 C 0.921875 -1.09375 1.265625 -1.625 2.53125 -1.671875 Z M 2.53125 -0.984375 "/>
</g>
<g id="glyph-0-8">
<path d="M 2.890625 -2.625 C 2.890625 -2.859375 2.671875 -3.078125 2.328125 -3.078125 C 1.96875 -3.078125 1.578125 -2.859375 1.375 -2.328125 L 1.359375 -2.328125 L 1.359375 -3.078125 L 0.34375 -3 L 0.34375 -2.75 C 0.828125 -2.75 0.875 -2.703125 0.875 -2.359375 L 0.875 -0.546875 C 0.875 -0.25 0.8125 -0.25 0.34375 -0.25 L 0.34375 0 C 0.390625 0 0.875 -0.03125 1.15625 -0.03125 L 2.078125 0 L 2.078125 -0.25 L 1.9375 -0.25 C 1.421875 -0.25 1.421875 -0.328125 1.421875 -0.5625 L 1.421875 -1.59375 C 1.421875 -2.171875 1.6875 -2.875 2.375 -2.875 C 2.296875 -2.828125 2.25 -2.734375 2.25 -2.625 C 2.25 -2.390625 2.4375 -2.3125 2.5625 -2.3125 C 2.734375 -2.3125 2.890625 -2.421875 2.890625 -2.625 Z M 2.890625 -2.625 "/>
</g>
<g id="glyph-0-9">
<path d="M 3.328125 -0.84375 C 3.328125 -0.859375 3.3125 -0.9375 3.203125 -0.9375 C 3.109375 -0.9375 3.09375 -0.890625 3.078125 -0.828125 C 2.859375 -0.265625 2.3125 -0.15625 2.0625 -0.15625 C 1.734375 -0.15625 1.40625 -0.296875 1.1875 -0.5625 C 0.9375 -0.890625 0.921875 -1.3125 0.921875 -1.59375 L 3.125 -1.59375 C 3.28125 -1.59375 3.328125 -1.59375 3.328125 -1.734375 C 3.328125 -2.359375 2.984375 -3.109375 1.921875 -3.109375 C 0.984375 -3.109375 0.28125 -2.390625 0.28125 -1.53125 C 0.28125 -0.640625 1.0625 0.0625 2.015625 0.0625 C 2.96875 0.0625 3.328125 -0.6875 3.328125 -0.84375 Z M 2.828125 -1.765625 L 0.9375 -1.765625 C 1.015625 -2.75 1.65625 -2.90625 1.921875 -2.90625 C 2.796875 -2.90625 2.828125 -1.9375 2.828125 -1.765625 Z M 2.828125 -1.765625 "/>
</g>
<g id="glyph-0-10">
<path d="M 4.15625 -1.5 C 4.15625 -2.359375 3.421875 -3.078125 2.53125 -3.078125 C 2.125 -3.078125 1.703125 -2.921875 1.421875 -2.640625 L 1.421875 -3.078125 L 0.34375 -3 L 0.34375 -2.75 C 0.84375 -2.75 0.875 -2.703125 0.875 -2.421875 L 0.875 0.796875 C 0.875 1.09375 0.8125 1.09375 0.34375 1.09375 L 0.34375 1.359375 C 0.34375 1.359375 0.859375 1.328125 1.15625 1.328125 C 1.421875 1.328125 1.90625 1.34375 1.96875 1.359375 L 1.96875 1.09375 C 1.515625 1.09375 1.4375 1.09375 1.4375 0.796875 L 1.4375 -0.328125 C 1.484375 -0.296875 1.8125 0.0625 2.40625 0.0625 C 3.34375 0.0625 4.15625 -0.625 4.15625 -1.5 Z M 3.5 -1.5 C 3.5 -0.703125 2.96875 -0.125 2.375 -0.125 C 1.734375 -0.125 1.46875 -0.65625 1.4375 -0.703125 L 1.4375 -2.328125 C 1.65625 -2.671875 2.0625 -2.84375 2.453125 -2.84375 C 3.046875 -2.84375 3.5 -2.234375 3.5 -1.5 Z M 3.5 -1.5 "/>
</g>
<g id="glyph-0-11">
<path d="M 4.125 0 L 4.125 -0.25 C 3.65625 -0.25 3.59375 -0.296875 3.59375 -0.640625 L 3.59375 -4.84375 L 2.53125 -4.765625 L 2.53125 -4.515625 C 3 -4.515625 3.0625 -4.453125 3.0625 -4.125 L 3.0625 -2.671875 C 2.796875 -2.921875 2.453125 -3.078125 2.0625 -3.078125 C 1.125 -3.078125 0.328125 -2.375 0.328125 -1.5 C 0.328125 -0.625 1.078125 0.0625 1.984375 0.0625 C 2.5625 0.0625 2.921875 -0.234375 3.03125 -0.359375 L 3.03125 0.0625 Z M 3.03125 -0.734375 C 2.84375 -0.40625 2.484375 -0.125 2.03125 -0.125 C 1.625 -0.125 1.34375 -0.359375 1.203125 -0.5625 C 1.0625 -0.765625 0.96875 -1.046875 0.96875 -1.484375 C 0.96875 -1.65625 0.96875 -2.171875 1.265625 -2.5 C 1.546875 -2.8125 1.890625 -2.875 2.109375 -2.875 C 2.453125 -2.875 2.75 -2.71875 2.953125 -2.46875 C 3.03125 -2.359375 3.03125 -2.359375 3.03125 -2.21875 Z M 3.03125 -0.734375 "/>
</g>
<g id="glyph-0-12">
<path d="M 2.671875 1.65625 C 2.671875 1.609375 2.640625 1.59375 2.59375 1.546875 C 1.65625 0.703125 1.296875 -0.46875 1.296875 -1.734375 C 1.296875 -3.625 2.03125 -4.546875 2.609375 -5.0625 C 2.640625 -5.09375 2.671875 -5.109375 2.671875 -5.140625 C 2.671875 -5.21875 2.578125 -5.21875 2.53125 -5.21875 C 1.171875 -4.296875 0.8125 -2.8125 0.8125 -1.75 C 0.8125 -0.765625 1.109375 0.765625 2.53125 1.734375 C 2.578125 1.734375 2.671875 1.734375 2.671875 1.65625 Z M 2.671875 1.65625 "/>
</g>
<g id="glyph-0-13">
<path d="M 1.953125 0 L 1.953125 -0.25 C 1.53125 -0.25 1.46875 -0.25 1.46875 -0.546875 L 1.46875 -3.078125 L 0.421875 -3 L 0.421875 -2.75 C 0.875 -2.75 0.9375 -2.703125 0.9375 -2.359375 L 0.9375 -0.546875 C 0.9375 -0.25 0.859375 -0.25 0.390625 -0.25 L 0.390625 0 C 0.390625 0 0.90625 -0.03125 1.1875 -0.03125 C 1.4375 -0.03125 1.703125 -0.015625 1.953125 0 Z M 2.125 -4.578125 C 2.125 -4.703125 2 -4.859375 1.828125 -4.859375 C 1.71875 -4.859375 1.65625 -4.796875 1.59375 -4.71875 L 0.65625 -3.703125 L 0.828125 -3.53125 L 1.953125 -4.328125 C 2.0625 -4.390625 2.125 -4.453125 2.125 -4.578125 Z M 2.125 -4.578125 "/>
</g>
<g id="glyph-0-14">
<path d="M 1.953125 0 L 1.953125 -0.25 C 1.53125 -0.25 1.46875 -0.25 1.46875 -0.546875 L 1.46875 -3.078125 L 0.421875 -3 L 0.421875 -2.75 C 0.875 -2.75 0.9375 -2.703125 0.9375 -2.359375 L 0.9375 -0.546875 C 0.9375 -0.25 0.859375 -0.25 0.390625 -0.25 L 0.390625 0 C 0.390625 0 0.90625 -0.03125 1.1875 -0.03125 C 1.4375 -0.03125 1.703125 -0.015625 1.953125 0 Z M 1.5625 -4.1875 C 1.5625 -4.421875 1.375 -4.59375 1.15625 -4.59375 C 0.90625 -4.59375 0.75 -4.40625 0.75 -4.203125 C 0.75 -3.984375 0.921875 -3.796875 1.15625 -3.796875 C 1.390625 -3.796875 1.5625 -4 1.5625 -4.1875 Z M 1.5625 -4.1875 "/>
</g>
<g id="glyph-0-15">
<path d="M 2.34375 -1.734375 C 2.34375 -2.71875 2.046875 -4.25 0.640625 -5.21875 C 0.59375 -5.21875 0.5 -5.21875 0.5 -5.140625 C 0.5 -5.109375 0.53125 -5.09375 0.5625 -5.03125 C 1.1875 -4.484375 1.859375 -3.546875 1.859375 -1.75 C 1.859375 -0.296875 1.40625 0.8125 0.625 1.484375 C 0.515625 1.609375 0.5 1.609375 0.5 1.65625 C 0.5 1.6875 0.53125 1.734375 0.59375 1.734375 C 0.6875 1.734375 1.359375 1.28125 1.828125 0.40625 C 2.140625 -0.171875 2.34375 -0.921875 2.34375 -1.734375 Z M 2.34375 -1.734375 "/>
</g>
<g id="glyph-0-16">
<path d="M 3.21875 -1.359375 L 2.984375 -1.359375 C 2.90625 -0.53125 2.765625 -0.21875 1.875 -0.21875 L 1 -0.21875 L 3.140625 -2.765625 C 3.1875 -2.828125 3.203125 -2.84375 3.203125 -2.890625 C 3.203125 -3 3.109375 -3 3 -3 L 0.46875 -3 L 0.390625 -1.84375 L 0.625 -1.84375 C 0.671875 -2.578125 0.84375 -2.8125 1.65625 -2.8125 L 2.484375 -2.8125 L 0.34375 -0.265625 C 0.28125 -0.1875 0.28125 -0.15625 0.28125 -0.125 C 0.28125 0 0.34375 0 0.46875 0 L 3.09375 0 Z M 3.21875 -1.359375 "/>
</g>
<g id="glyph-0-17">
<path d="M 6.375 0 L 6.375 -0.25 C 5.921875 -0.25 5.84375 -0.25 5.84375 -0.546875 L 5.84375 -2.109375 C 5.84375 -2.71875 5.53125 -3.078125 4.78125 -3.078125 C 4.21875 -3.078125 3.828125 -2.78125 3.640625 -2.421875 C 3.5 -2.921875 3.109375 -3.078125 2.59375 -3.078125 C 2.015625 -3.078125 1.640625 -2.765625 1.4375 -2.390625 L 1.421875 -2.390625 L 1.421875 -3.078125 L 0.390625 -3 L 0.390625 -2.75 C 0.859375 -2.75 0.921875 -2.703125 0.921875 -2.359375 L 0.921875 -0.546875 C 0.921875 -0.25 0.84375 -0.25 0.390625 -0.25 L 0.390625 0 C 0.390625 0 0.890625 -0.03125 1.1875 -0.03125 C 1.453125 -0.03125 1.953125 0 2.015625 0 L 2.015625 -0.25 C 1.546875 -0.25 1.484375 -0.25 1.484375 -0.546875 L 1.484375 -1.8125 C 1.484375 -2.53125 2.0625 -2.875 2.53125 -2.875 C 3.03125 -2.875 3.09375 -2.5 3.09375 -2.140625 L 3.09375 -0.546875 C 3.09375 -0.25 3.03125 -0.25 2.5625 -0.25 L 2.5625 0 C 2.5625 0 3.078125 -0.03125 3.375 -0.03125 C 3.640625 -0.03125 4.125 0 4.1875 0 L 4.1875 -0.25 C 3.734375 -0.25 3.65625 -0.25 3.65625 -0.546875 L 3.65625 -1.8125 C 3.65625 -2.53125 4.25 -2.875 4.71875 -2.875 C 5.21875 -2.875 5.28125 -2.5 5.28125 -2.140625 L 5.28125 -0.546875 C 5.28125 -0.25 5.21875 -0.25 4.75 -0.25 L 4.75 0 C 4.75 0 5.265625 -0.03125 5.5625 -0.03125 C 5.828125 -0.03125 6.3125 0 6.375 0 Z M 6.375 0 "/>
</g>
<g id="glyph-0-18">
<path d="M 5.734375 -1.734375 C 5.734375 -1.921875 5.5625 -1.921875 5.46875 -1.921875 L 3.296875 -1.921875 L 3.296875 -4.0625 C 3.296875 -4.140625 3.296875 -4.3125 3.125 -4.3125 C 2.9375 -4.3125 2.9375 -4.15625 2.9375 -4.0625 L 2.9375 -1.921875 L 0.765625 -1.921875 C 0.671875 -1.921875 0.5 -1.921875 0.5 -1.75 C 0.5 -1.578125 0.65625 -1.578125 0.765625 -1.578125 L 2.9375 -1.578125 L 2.9375 0.5625 C 2.9375 0.65625 2.9375 0.828125 3.109375 0.828125 C 3.296875 0.828125 3.296875 0.65625 3.296875 0.5625 L 3.296875 -1.578125 L 5.46875 -1.578125 C 5.5625 -1.578125 5.734375 -1.578125 5.734375 -1.734375 Z M 5.734375 -1.734375 "/>
</g>
<g id="glyph-1-0">
<path d="M 4.0625 -1.5 C 4.0625 -2.359375 3.359375 -3.078125 2.46875 -3.078125 C 2.078125 -3.078125 1.671875 -2.921875 1.390625 -2.640625 L 1.390625 -3.078125 L 0.34375 -3 L 0.34375 -2.75 C 0.828125 -2.75 0.859375 -2.703125 0.859375 -2.421875 L 0.859375 0.796875 C 0.859375 1.09375 0.796875 1.09375 0.34375 1.09375 L 0.34375 1.359375 C 0.34375 1.359375 0.84375 1.328125 1.140625 1.328125 C 1.390625 1.328125 1.875 1.34375 1.9375 1.359375 L 1.9375 1.09375 C 1.484375 1.09375 1.421875 1.09375 1.421875 0.796875 L 1.421875 -0.328125 C 1.453125 -0.296875 1.78125 0.0625 2.359375 0.0625 C 3.28125 0.0625 4.0625 -0.625 4.0625 -1.5 Z M 3.4375 -1.5 C 3.4375 -0.703125 2.90625 -0.125 2.328125 -0.125 C 1.703125 -0.125 1.4375 -0.65625 1.421875 -0.703125 L 1.421875 -2.328125 C 1.625 -2.671875 2.03125 -2.84375 2.390625 -2.84375 C 2.984375 -2.84375 3.4375 -2.234375 3.4375 -1.5 Z M 3.4375 -1.5 "/>
</g>
<g id="glyph-1-1">
<path d="M 3.796875 -0.625 L 3.796875 -1.015625 L 3.546875 -1.015625 L 3.546875 -0.640625 C 3.546875 -0.5625 3.546875 -0.234375 3.296875 -0.234375 C 3.03125 -0.234375 3.03125 -0.5625 3.03125 -0.640625 L 3.03125 -1.875 C 3.03125 -2.234375 3.03125 -2.5 2.71875 -2.765625 C 2.4375 -3 2.09375 -3.109375 1.6875 -3.109375 C 1.03125 -3.109375 0.5625 -2.859375 0.5625 -2.4375 C 0.5625 -2.203125 0.703125 -2.09375 0.890625 -2.09375 C 1.078125 -2.09375 1.21875 -2.234375 1.21875 -2.421875 C 1.21875 -2.53125 1.15625 -2.6875 0.96875 -2.734375 C 1.21875 -2.90625 1.625 -2.90625 1.671875 -2.90625 C 2.0625 -2.90625 2.484375 -2.65625 2.484375 -2.0625 L 2.484375 -1.859375 C 2.109375 -1.84375 1.640625 -1.8125 1.140625 -1.625 C 0.515625 -1.40625 0.3125 -1.015625 0.3125 -0.703125 C 0.3125 -0.109375 1.03125 0.0625 1.53125 0.0625 C 2.09375 0.0625 2.421875 -0.25 2.5625 -0.515625 C 2.59375 -0.234375 2.78125 0.03125 3.09375 0.03125 C 3.09375 0.03125 3.796875 0.03125 3.796875 -0.625 Z M 2.484375 -0.984375 C 2.484375 -0.3125 1.90625 -0.125 1.59375 -0.125 C 1.234375 -0.125 0.90625 -0.359375 0.90625 -0.703125 C 0.90625 -1.09375 1.234375 -1.625 2.484375 -1.671875 Z M 2.484375 -0.984375 "/>
</g>
<g id="glyph-1-2">
<path d="M 2.84375 -0.90625 C 2.84375 -1.171875 2.71875 -1.390625 2.53125 -1.546875 C 2.265625 -1.796875 1.953125 -1.859375 1.703125 -1.890625 C 1.15625 -2 0.703125 -2.078125 0.703125 -2.453125 C 0.703125 -2.671875 0.890625 -2.9375 1.546875 -2.9375 C 2.359375 -2.9375 2.390625 -2.375 2.40625 -2.171875 C 2.40625 -2.09375 2.5 -2.09375 2.515625 -2.09375 C 2.640625 -2.09375 2.640625 -2.140625 2.640625 -2.28125 L 2.640625 -2.921875 C 2.640625 -3.046875 2.640625 -3.109375 2.546875 -3.109375 C 2.515625 -3.109375 2.5 -3.109375 2.40625 -3.03125 C 2.390625 -3.015625 2.328125 -2.953125 2.28125 -2.921875 C 2.0625 -3.0625 1.8125 -3.109375 1.546875 -3.109375 C 0.546875 -3.109375 0.3125 -2.578125 0.3125 -2.234375 C 0.3125 -2.015625 0.40625 -1.828125 0.578125 -1.6875 C 0.84375 -1.46875 1.109375 -1.421875 1.546875 -1.34375 C 1.890625 -1.28125 2.453125 -1.1875 2.453125 -0.71875 C 2.453125 -0.453125 2.265625 -0.125 1.59375 -0.125 C 0.921875 -0.125 0.6875 -0.5625 0.5625 -1.03125 C 0.53125 -1.125 0.53125 -1.15625 0.4375 -1.15625 C 0.3125 -1.15625 0.3125 -1.109375 0.3125 -0.96875 L 0.3125 -0.109375 C 0.3125 0 0.3125 0.0625 0.40625 0.0625 C 0.46875 0.0625 0.609375 -0.078125 0.75 -0.234375 C 1.046875 0.0625 1.421875 0.0625 1.59375 0.0625 C 2.5 0.0625 2.84375 -0.421875 2.84375 -0.90625 Z M 2.84375 -0.90625 "/>
</g>
<g id="glyph-1-3">
<path d="M 1.6875 0.328125 L 1.6875 -3.078125 L 0.59375 -3 L 0.59375 -2.75 C 1.109375 -2.75 1.171875 -2.703125 1.171875 -2.359375 L 1.171875 0.328125 C 1.171875 0.59375 1.109375 1.21875 0.640625 1.21875 C 0.625 1.21875 0.453125 1.21875 0.296875 1.15625 C 0.3125 1.15625 0.46875 1.0625 0.46875 0.859375 C 0.46875 0.671875 0.328125 0.53125 0.140625 0.53125 C -0.0625 0.53125 -0.1875 0.671875 -0.1875 0.859375 C -0.1875 1.234375 0.234375 1.421875 0.65625 1.421875 C 1.21875 1.421875 1.6875 0.984375 1.6875 0.328125 Z M 1.6875 -4.1875 C 1.6875 -4.421875 1.515625 -4.59375 1.296875 -4.59375 C 1.0625 -4.59375 0.90625 -4.40625 0.90625 -4.203125 C 0.90625 -3.984375 1.078125 -3.796875 1.296875 -3.796875 C 1.53125 -3.796875 1.6875 -4 1.6875 -4.1875 Z M 1.6875 -4.1875 "/>
</g>
<g id="glyph-1-4">
<path d="M 3.265625 -0.84375 C 3.265625 -0.859375 3.25 -0.9375 3.140625 -0.9375 C 3.046875 -0.9375 3.03125 -0.890625 3.015625 -0.828125 C 2.796875 -0.265625 2.265625 -0.15625 2.015625 -0.15625 C 1.6875 -0.15625 1.375 -0.296875 1.171875 -0.5625 C 0.90625 -0.890625 0.90625 -1.3125 0.90625 -1.59375 L 3.0625 -1.59375 C 3.21875 -1.59375 3.265625 -1.59375 3.265625 -1.734375 C 3.265625 -2.359375 2.921875 -3.109375 1.875 -3.109375 C 0.96875 -3.109375 0.265625 -2.390625 0.265625 -1.53125 C 0.265625 -0.640625 1.046875 0.0625 1.96875 0.0625 C 2.90625 0.0625 3.265625 -0.6875 3.265625 -0.84375 Z M 2.78125 -1.765625 L 0.90625 -1.765625 C 0.984375 -2.75 1.609375 -2.90625 1.875 -2.90625 C 2.734375 -2.90625 2.765625 -1.9375 2.78125 -1.765625 Z M 2.78125 -1.765625 "/>
</g>
</g>
<clipPath id="clip-0">
<path clip-rule="nonzero" d="M 189 28 L 272 28 L 272 59.867188 L 189 59.867188 Z M 189 28 "/>
</clipPath>
<clipPath id="clip-1">
<path clip-rule="nonzero" d="M 285 29 L 364.871094 29 L 364.871094 59.867188 L 285 59.867188 Z M 285 29 "/>
</clipPath>
</defs>
<path fill-rule="nonzero" fill="rgb(88.069153%, 94.706726%, 98.446655%)" fill-opacity="1" stroke-width="0.3985" stroke-linecap="butt" stroke-linejoin="miter" stroke="rgb(0%, 0%, 0%)" stroke-opacity="1" stroke-miterlimit="10" d="M 31.182843 6.386408 L -31.182793 6.386408 C -33.381494 6.386408 -35.165493 4.602409 -35.165493 2.403708 L -35.165493 -2.40057 C -35.165493 -4.603183 -33.381494 -6.387182 -31.182793 -6.387182 L 31.182843 -6.387182 C 33.381543 -6.387182 35.165542 -4.603183 35.165542 -2.40057 L 35.165542 2.403708 C 35.165542 4.602409 33.381543 6.386408 31.182843 6.386408 Z M 31.182843 6.386408 " transform="matrix(0.998459, 0, 0, -0.998459, 38.294897, 45.458598)"/>
<g fill="rgb(0%, 0%, 0%)" fill-opacity="1">
<use xlink:href="#glyph-0-0" x="23.624539" y="47.856896"/>
<use xlink:href="#glyph-0-1" x="27.231804" y="47.856896"/>
<use xlink:href="#glyph-0-2" x="31.275862" y="47.856896"/>
<use xlink:href="#glyph-0-3" x="35.757423" y="47.856896"/>
<use xlink:href="#glyph-0-4" x="38.97193" y="47.856896"/>
<use xlink:href="#glyph-0-5" x="43.453491" y="47.856896"/>
<use xlink:href="#glyph-0-6" x="45.750379" y="47.856896"/>
<use xlink:href="#glyph-0-7" x="48.920853" y="47.856896"/>
</g>
<path fill-rule="nonzero" fill="rgb(88.069153%, 94.706726%, 98.446655%)" fill-opacity="1" stroke-width="0.3985" stroke-linecap="butt" stroke-linejoin="miter" stroke="rgb(0%, 0%, 0%)" stroke-opacity="1" stroke-miterlimit="10" d="M 127.4249 7.067144 L 65.063177 7.067144 C 62.860564 7.067144 61.076565 5.279233 61.076565 3.080532 L 61.076565 -3.081307 C 61.076565 -5.280007 62.860564 -7.064006 65.063177 -7.064006 L 127.4249 -7.064006 C 129.627513 -7.064006 131.411512 -5.280007 131.411512 -3.081307 L 131.411512 3.080532 C 131.411512 5.279233 129.627513 7.067144 127.4249 7.067144 Z M 127.4249 7.067144 " transform="matrix(0.998459, 0, 0, -0.998459, 38.294897, 45.458598)"/>
<g fill="rgb(0%, 0%, 0%)" fill-opacity="1">
<use xlink:href="#glyph-0-8" x="113.42794" y="47.179941"/>
<use xlink:href="#glyph-0-9" x="116.598413" y="47.179941"/>
<use xlink:href="#glyph-0-0" x="120.205678" y="47.179941"/>
<use xlink:href="#glyph-0-4" x="123.812944" y="47.179941"/>
<use xlink:href="#glyph-0-10" x="128.294504" y="47.179941"/>
</g>
<g fill="rgb(0%, 0%, 0%)" fill-opacity="1">
<use xlink:href="#glyph-0-9" x="132.989134" y="47.179941"/>
<use xlink:href="#glyph-0-8" x="136.5964" y="47.179941"/>
<use xlink:href="#glyph-0-7" x="139.766873" y="47.179941"/>
<use xlink:href="#glyph-0-11" x="143.810931" y="47.179941"/>
<use xlink:href="#glyph-0-1" x="148.292492" y="47.179941"/>
<use xlink:href="#glyph-0-8" x="152.336549" y="47.179941"/>
</g>
<path fill-rule="nonzero" fill="rgb(98.527527%, 97.3526%, 81.469727%)" fill-opacity="1" stroke-width="0.3985" stroke-linecap="butt" stroke-linejoin="miter" stroke="rgb(0%, 0%, 0%)" stroke-opacity="1" stroke-miterlimit="10" d="M 66.745457 21.63647 L 125.74262 21.63647 L 125.74262 42.324601 L 66.745457 42.324601 Z M 66.745457 21.63647 " transform="matrix(0.998459, 0, 0, -0.998459, 38.294897, 45.458598)"/>
<g fill="rgb(0%, 0%, 0%)" fill-opacity="1">
<use xlink:href="#glyph-0-0" x="122.889337" y="10.178048"/>
<use xlink:href="#glyph-0-1" x="126.496603" y="10.178048"/>
<use xlink:href="#glyph-0-8" x="130.540661" y="10.178048"/>
<use xlink:href="#glyph-0-10" x="133.711134" y="10.178048"/>
<use xlink:href="#glyph-0-4" x="138.192694" y="10.178048"/>
<use xlink:href="#glyph-0-3" x="142.674255" y="10.178048"/>
</g>
<g fill="rgb(0%, 0%, 0%)" fill-opacity="1">
<use xlink:href="#glyph-0-12" x="120.832512" y="18.135767"/>
<use xlink:href="#glyph-0-13" x="124.002985" y="18.135767"/>
<use xlink:href="#glyph-0-2" x="126.299873" y="18.135767"/>
<use xlink:href="#glyph-0-11" x="130.781434" y="18.135767"/>
<use xlink:href="#glyph-0-14" x="135.262994" y="18.135767"/>
<use xlink:href="#glyph-0-0" x="137.559883" y="18.135767"/>
<use xlink:href="#glyph-0-9" x="141.167149" y="18.135767"/>
<use xlink:href="#glyph-0-15" x="144.774414" y="18.135767"/>
</g>
<path fill-rule="nonzero" fill="rgb(88.069153%, 94.706726%, 98.446655%)" fill-opacity="1" d="M 261.617188 34.230469 L 199.351562 34.230469 C 197.15625 34.230469 195.375 36.011719 195.375 38.210938 L 195.375 52.707031 C 195.375 54.902344 197.15625 56.683594 199.351562 56.683594 L 261.617188 56.683594 C 263.816406 56.683594 265.597656 54.902344 265.597656 52.707031 L 265.597656 38.210938 C 265.597656 36.011719 263.816406 34.230469 261.617188 34.230469 Z M 261.617188 34.230469 "/>
<g clip-path="url(#clip-0)">
<path fill="none" stroke-width="0.3985" stroke-linecap="butt" stroke-linejoin="miter" stroke="rgb(0%, 0%, 0%)" stroke-opacity="1" stroke-miterlimit="10" d="M 223.666958 11.245458 L 161.305234 11.245458 C 159.106533 11.245458 157.322534 9.461459 157.322534 7.258846 L 157.322534 -7.25962 C 157.322534 -9.458321 159.106533 -11.24232 161.305234 -11.24232 L 223.666958 -11.24232 C 225.86957 -11.24232 227.65357 -9.458321 227.65357 -7.25962 L 227.65357 7.258846 C 227.65357 9.461459 225.86957 11.245458 223.666958 11.245458 Z M 223.666958 11.245458 " transform="matrix(0.998459, 0, 0, -0.998459, 38.294897, 45.458598)"/>
</g>
<g fill="rgb(0%, 0%, 0%)" fill-opacity="1">
<use xlink:href="#glyph-0-5" x="220.613514" y="43.007381"/>
<use xlink:href="#glyph-0-9" x="222.910402" y="43.007381"/>
<use xlink:href="#glyph-0-0" x="226.517668" y="43.007381"/>
<use xlink:href="#glyph-0-6" x="230.124933" y="43.007381"/>
<use xlink:href="#glyph-0-1" x="233.295406" y="43.007381"/>
<use xlink:href="#glyph-0-8" x="237.339464" y="43.007381"/>
</g>
<g fill="rgb(0%, 0%, 0%)" fill-opacity="1">
<use xlink:href="#glyph-0-12" x="203.590786" y="50.965099"/>
<use xlink:href="#glyph-0-8" x="206.761259" y="50.965099"/>
<use xlink:href="#glyph-0-7" x="209.931732" y="50.965099"/>
<use xlink:href="#glyph-0-16" x="213.97579" y="50.965099"/>
<use xlink:href="#glyph-0-1" x="217.583056" y="50.965099"/>
<use xlink:href="#glyph-0-2" x="221.627114" y="50.965099"/>
<use xlink:href="#glyph-0-7" x="226.108674" y="50.965099"/>
<use xlink:href="#glyph-0-17" x="230.152732" y="50.965099"/>
<use xlink:href="#glyph-0-14" x="236.818254" y="50.965099"/>
<use xlink:href="#glyph-0-9" x="239.115143" y="50.965099"/>
<use xlink:href="#glyph-0-2" x="242.722408" y="50.965099"/>
</g>
<g fill="rgb(0%, 0%, 0%)" fill-opacity="1">
<use xlink:href="#glyph-0-6" x="246.990899" y="50.965099"/>
<use xlink:href="#glyph-0-1" x="250.161373" y="50.965099"/>
<use xlink:href="#glyph-0-15" x="254.20543" y="50.965099"/>
</g>
<path fill-rule="nonzero" fill="rgb(81.999207%, 93.151855%, 90.116882%)" fill-opacity="1" d="M 357.714844 34.898438 L 295.449219 34.898438 C 293.25 34.898438 291.46875 36.679688 291.46875 38.875 L 291.46875 52.039062 C 291.46875 54.238281 293.25 56.019531 295.449219 56.019531 L 357.714844 56.019531 C 359.914062 56.019531 361.695312 54.238281 361.695312 52.039062 L 361.695312 38.875 C 361.695312 36.679688 359.914062 34.898438 357.714844 34.898438 Z M 357.714844 34.898438 "/>
<g clip-path="url(#clip-1)">
<path fill="none" stroke-width="0.3985" stroke-linecap="butt" stroke-linejoin="miter" stroke="rgb(0%, 0%, 0%)" stroke-opacity="1" stroke-miterlimit="10" d="M 319.912927 10.576458 L 257.551204 10.576458 C 255.348591 10.576458 253.564592 8.792459 253.564592 6.593759 L 253.564592 -6.590621 C 253.564592 -8.793234 255.348591 -10.577233 257.551204 -10.577233 L 319.912927 -10.577233 C 322.11554 -10.577233 323.899539 -8.793234 323.899539 -6.590621 L 323.899539 6.593759 C 323.899539 8.792459 322.11554 10.576458 319.912927 10.576458 Z M 319.912927 10.576458 " transform="matrix(0.998459, 0, 0, -0.998459, 38.294897, 45.458598)"/>
</g>
<g fill="rgb(0%, 0%, 0%)" fill-opacity="1">
<use xlink:href="#glyph-0-8" x="310.081432" y="43.26099"/>
<use xlink:href="#glyph-0-9" x="313.251905" y="43.26099"/>
<use xlink:href="#glyph-0-3" x="316.859171" y="43.26099"/>
<use xlink:href="#glyph-0-10" x="320.073678" y="43.26099"/>
<use xlink:href="#glyph-0-4" x="324.555239" y="43.26099"/>
<use xlink:href="#glyph-0-9" x="329.036799" y="43.26099"/>
<use xlink:href="#glyph-0-3" x="332.644065" y="43.26099"/>
<use xlink:href="#glyph-0-6" x="335.858573" y="43.26099"/>
<use xlink:href="#glyph-0-7" x="339.029046" y="43.26099"/>
</g>
<g fill="rgb(0%, 0%, 0%)" fill-opacity="1">
<use xlink:href="#glyph-0-18" x="313.209604" y="51.218708"/>
</g>
<g fill="rgb(0%, 0%, 0%)" fill-opacity="1">
<use xlink:href="#glyph-0-0" x="322.080395" y="51.218708"/>
<use xlink:href="#glyph-0-14" x="325.687661" y="51.218708"/>
<use xlink:href="#glyph-0-6" x="327.984549" y="51.218708"/>
<use xlink:href="#glyph-0-7" x="331.155022" y="51.218708"/>
<use xlink:href="#glyph-0-3" x="335.19908" y="51.218708"/>
</g>
<path fill="none" stroke-width="0.79701" stroke-linecap="butt" stroke-linejoin="miter" stroke="rgb(0%, 0%, 0%)" stroke-opacity="1" stroke-miterlimit="10" d="M 35.365069 0.00156897 L 55.607199 0.00156897 " transform="matrix(0.998459, 0, 0, -0.998459, 38.294897, 45.458598)"/>
<path fill-rule="nonzero" fill="rgb(0%, 0%, 0%)" fill-opacity="1" stroke-width="0.79701" stroke-linecap="butt" stroke-linejoin="miter" stroke="rgb(0%, 0%, 0%)" stroke-opacity="1" stroke-miterlimit="10" d="M 3.626791 0.00156897 C 3.180792 0.111113 1.224652 0.744902 0.000108917 1.433463 L 0.000108917 -1.430325 C 1.224652 -0.745676 3.180792 -0.111887 3.626791 0.00156897 Z M 3.626791 0.00156897 " transform="matrix(0.998459, 0, 0, -0.998459, 93.816298, 45.458598)"/>
<path fill="none" stroke-width="0.79701" stroke-linecap="butt" stroke-linejoin="miter" stroke="rgb(0%, 0%, 0%)" stroke-opacity="1" stroke-miterlimit="10" d="M 96.244038 21.436944 L 96.244038 12.53651 " transform="matrix(0.998459, 0, 0, -0.998459, 38.294897, 45.458598)"/>
<path fill-rule="nonzero" fill="rgb(0%, 0%, 0%)" fill-opacity="1" stroke-width="0.79701" stroke-linecap="butt" stroke-linejoin="miter" stroke="rgb(0%, 0%, 0%)" stroke-opacity="1" stroke-miterlimit="10" d="M 3.629395 0.000308371 C 3.183395 0.109852 1.223343 0.743641 -0.00120011 1.432202 L -0.00120011 -1.431586 C 1.223343 -0.743025 3.183395 -0.113148 3.629395 0.000308371 Z M 3.629395 0.000308371 " transform="matrix(0, 0.998459, 0.998459, 0, 134.390317, 32.942605)"/>
<path fill="none" stroke-width="0.79701" stroke-linecap="butt" stroke-linejoin="miter" stroke="rgb(0%, 0%, 0%)" stroke-opacity="1" stroke-miterlimit="10" d="M 131.611038 0.00156897 L 151.849256 0.00156897 " transform="matrix(0.998459, 0, 0, -0.998459, 38.294897, 45.458598)"/>
<path fill-rule="nonzero" fill="rgb(0%, 0%, 0%)" fill-opacity="1" stroke-width="0.79701" stroke-linecap="butt" stroke-linejoin="miter" stroke="rgb(0%, 0%, 0%)" stroke-opacity="1" stroke-miterlimit="10" d="M 3.629041 0.00156897 C 3.183041 0.111113 1.22299 0.744902 -0.00155365 1.433463 L -0.00155365 -1.430325 C 1.22299 -0.745676 3.183041 -0.111887 3.629041 0.00156897 Z M 3.629041 0.00156897 " transform="matrix(0.998459, 0, 0, -0.998459, 189.911708, 45.458598)"/>
<g fill="rgb(0%, 0%, 0%)" fill-opacity="1">
<use xlink:href="#glyph-1-0" x="170.014606" y="40.391418"/>
<use xlink:href="#glyph-1-1" x="174.408293" y="40.391418"/>
<use xlink:href="#glyph-1-2" x="178.373055" y="40.391418"/>
<use xlink:href="#glyph-1-1" x="181.524533" y="40.391418"/>
</g>
<g fill="rgb(0%, 0%, 0%)" fill-opacity="1">
<use xlink:href="#glyph-1-3" x="185.705151" y="40.391418"/>
<use xlink:href="#glyph-1-4" x="188.171464" y="40.391418"/>
<use xlink:href="#glyph-1-2" x="191.707999" y="40.391418"/>
</g>
<path fill="none" stroke-width="0.79701" stroke-linecap="butt" stroke-linejoin="miter" stroke="rgb(0%, 0%, 0%)" stroke-opacity="1" stroke-miterlimit="10" d="M 227.853096 0.00156897 L 248.095226 0.00156897 " transform="matrix(0.998459, 0, 0, -0.998459, 38.294897, 45.458598)"/>
<path fill-rule="nonzero" fill="rgb(0%, 0%, 0%)" fill-opacity="1" stroke-width="0.79701" stroke-linecap="butt" stroke-linejoin="miter" stroke="rgb(0%, 0%, 0%)" stroke-opacity="1" stroke-miterlimit="10" d="M 3.627348 0.00156897 C 3.181349 0.111113 1.225209 0.744902 0.000666061 1.433463 L 0.000666061 -1.430325 C 1.225209 -0.745676 3.181349 -0.111887 3.627348 0.00156897 Z M 3.627348 0.00156897 " transform="matrix(0.998459, 0, 0, -0.998459, 286.007147, 45.458598)"/>
</svg>
